<svg width="374" height="121" viewBox="0 0 374 121" fill="none" xmlns="http://www.w3.org/2000/svg">
<g clip-path="url(#clip0_86_644)">
<mask id="mask0_86_644" style="mask-type:luminance" maskUnits="userSpaceOnUse" x="0" y="0" width="87" height="117">
<path d="M0 0H86.3177V116.703H0V0Z" fill="white"/>
</mask>
<g mask="url(#mask0_86_644)">
<path d="M85.026 16.2292C83.4844 12.1562 79.6354 8.84895 74.6667 7.3125C72.3125 5.26562 69.1146 3.89062 65.5208 3.44791C62.8385 1.84374 59.4583 1.05208 55.8385 1.21354C52.9271 0.0989539 49.4479 -0.10938 45.9271 0.70312C42.6146 0.0520772 38.8594 0.588537 35.2864 2.26041C29.5 4.9375 25.8177 10.1979 22.5729 14.8542C21.9219 15.7865 21.2917 16.7187 20.6614 17.6458C19.0729 18.625 17.625 19.8125 16.3437 21.1615C14.0364 22.7917 12.0521 24.8385 10.4896 27.1875C8.50519 29.1927 6.91665 31.5417 5.77602 34.125C4.16665 36.4531 2.99998 39.0365 2.34373 41.7812C0.734358 45.3698 0.0364405 49.0937 0.338525 52.5365C0.411441 53.1875 0.505191 53.8646 0.640608 54.5156C2.41665 63.0104 10.0208 68.6406 17.2552 73.0417L18.4896 73.7865C18.4427 73.9948 18.3958 74.1823 18.3489 74.3906C17.5573 77.651 15.9479 80.6771 14.3854 83.6094C13.4271 85.4219 12.4219 87.2865 11.6302 89.2187C9.59894 94.0573 8.83332 100.693 12.6562 104.859C14.5 106.859 16.9739 107.859 19.5417 108.302C20.0781 109.047 20.7292 109.698 21.4531 110.234C23.5989 111.885 26.1875 112.422 28.776 112.422H28.8229C29.4792 113.052 30.2239 113.583 31.0416 114.005C32.5833 114.771 34.2604 115.167 35.9896 115.146C36.8958 115.146 37.8073 115.073 38.6927 114.911C39.4375 115.427 40.2812 115.818 41.1406 116.099C42.125 116.401 43.125 116.562 44.151 116.542C45.7604 116.521 47.3229 116.214 48.8177 115.635C49.6562 116.005 50.5469 116.24 51.4323 116.354C51.8489 116.401 52.2708 116.427 52.6927 116.427C57.6823 116.427 62 112.656 64.8906 109.698C72.125 102.344 75.0625 95.4323 73.6406 89.125C72.1719 82.6302 66.3385 78.2292 60.2292 74.4375L60.0885 74.3698C54.2552 70.7396 48.2604 67.0156 45.9479 60.776C45.5781 59.75 45.3177 58.7031 45.1771 57.6354C45.1771 57.4687 45.1771 57.3333 45.1771 57.1667C45.1771 57.0052 45.25 56.8646 45.2708 56.7031C45.2969 56.5417 45.3906 56.401 45.4375 56.2604C47.0469 53.5365 49.5677 51.0208 52.9948 48.7865C56.4219 46.5521 60.2708 44.8542 63.9844 43.224C65.2917 42.6458 66.6406 42.0625 67.9479 41.4583C72.5937 39.2917 77.8646 36.4792 81.5989 31.9167C85.4948 27.2344 86.8229 21.0469 85.026 16.2292ZM76.9323 10.6198C79.4739 14.9219 79.2396 21.0937 76.3021 26.3281C73.4531 31.401 68.8125 35.0573 64.6614 37.9427C63.4687 38.7812 62.2552 39.5937 61.0677 40.3854C57.6823 42.6458 54.1823 44.974 51.151 47.7865C48.9583 49.8125 47.2812 51.9323 46.0677 54.0729C46.9739 51.7448 48.2135 49.5781 49.7292 47.6042C52.2031 44.3177 55.2083 41.4323 58.151 38.6198C59.1771 37.6406 60.25 36.6146 61.276 35.5937C64.9167 31.9844 68.8802 27.5417 70.8177 21.974C72.7083 16.5521 72.0781 10.7344 69.2552 6.80208C70.7708 6.84895 72.2864 7.05729 73.7344 7.43229C73.9687 7.49999 74.2239 7.5677 74.4583 7.64062C75.4167 8.52604 76.2552 9.52604 76.9323 10.6198ZM26.5625 108.49L27.2135 108.417C29.2917 108.234 31.3437 107.906 33.375 107.443C33.8177 108.745 34.401 109.979 35.0989 111.141C33.2344 111.609 31.0885 112.026 28.9427 112.052C27.9635 111.026 27.1458 109.818 26.5625 108.49ZM22.0833 76.0208C22.8541 76.5104 23.5989 76.974 24.3437 77.4844C25.1406 79.3958 25.651 81.4219 25.8854 83.4687C26.2604 86.7969 25.7917 90.1927 25.3281 93.5C25.0469 95.526 24.7448 97.6406 24.651 99.7135C24.5312 102.411 24.8802 105.464 25.9531 108.141C24.0208 108.281 21.8489 108.302 19.75 107.953C17.2292 104.417 17.1614 99.25 18.0677 95.1302C18.5156 93.125 19.1667 91.1042 19.7969 89.1719C20.8229 85.9844 21.8958 82.6979 22.1041 79.3021C22.1979 78.2083 22.1979 77.1146 22.0833 76.0208ZM2.34373 44.4115C2.41665 43.5521 2.55728 42.7135 2.74477 41.875C3.25519 40.7344 3.86457 39.6198 4.51561 38.5469V38.5729C3.28123 47.1615 8.47915 55.0729 13.7552 61.6615L14.9219 63.1042C16.276 64.8021 17.651 66.5 18.9323 68.2448C18.9583 68.9687 18.9583 69.6875 18.9114 70.4115C18.1614 69.7344 17.4167 69.0833 16.6719 68.4323C16.2031 68.0365 15.7396 67.6198 15.2708 67.224C8.99477 61.6823 2.55728 54.8854 2.27602 46.3698C2.27602 45.7187 2.27602 45.0625 2.34373 44.4115ZM13.6354 24.8854L13.6146 24.9115C13.2864 25.5156 13.0052 26.1198 12.776 26.75C11.7031 27.6302 10.651 28.5417 9.64582 29.5156C9.99998 28.7969 10.3958 28.0729 10.8385 27.401C11.7031 26.5156 12.6562 25.6771 13.6354 24.8854ZM19.1875 19.8125C18.8177 20.3698 18.4219 20.9531 18.026 21.5104C17.0208 22.0937 16.0417 22.6771 15.1094 23.3281C15.5729 22.6771 16.0885 22.0469 16.6458 21.4635C17.4635 20.8594 18.3021 20.3229 19.1875 19.8125ZM20.9375 17.9271C22.5937 16.901 24.3437 16.0625 26.1666 15.4115C25.6979 15.901 25.2083 16.3906 24.7187 16.8802C23.3646 17.3437 22.0573 17.901 20.776 18.5104L20.4271 18.6719L20.6823 18.2969L20.9375 17.9271ZM45.901 1.09895C47.1614 1.35416 48.401 1.79687 49.5208 2.42708L49.6354 2.49479C45.5781 3.98437 41.9844 6.49999 38.7187 8.78125C37.6458 9.52604 36.5729 10.3177 35.5208 11.0833C34.4219 11.875 33.2812 12.7135 32.1354 13.5052C30.7396 13.7396 29.3385 14.0417 27.9635 14.4375C27.8437 14.4583 27.7292 14.5052 27.5885 14.5521L27.8906 14.224C28.776 13.2969 29.7135 12.3385 30.6198 11.4115C34.6094 7.43229 39.1146 2.93749 45.1302 1.28645C45.4375 1.21354 45.6667 1.14583 45.901 1.09895ZM55.75 1.60937C56.9583 2.07812 58.0781 2.72916 59.0833 3.54166L59.1771 3.63541C57.2187 4.01041 55.3021 4.54166 53.4375 5.26562C52.6198 4.23958 51.6406 3.33333 50.5677 2.58854C52.0156 2.125 53.5104 1.79687 55 1.65624C55.2552 1.63541 55.5156 1.63541 55.75 1.60937ZM65.3594 3.82291C66.4583 4.49479 67.4583 5.33333 68.2969 6.29166L68.3906 6.40625C66.4114 6.42708 64.401 6.64062 62.4687 7.03645C61.8385 5.86979 61.0417 4.82291 60.1094 3.89062C61.0885 3.74999 62.0677 3.68229 63.0521 3.68229C63.5885 3.68229 64.0989 3.70833 64.6354 3.75C64.8698 3.77604 65.125 3.79687 65.3594 3.82291ZM39.4375 98.9219C38.7396 95.6667 38.0156 92.2656 36.5 89.2187C34.3541 84.9115 30.9271 81.651 27.0312 78.8125C25.9792 77.4427 24.8594 76.1146 23.6458 74.8802C22.8541 73.3437 21.9687 71.8542 20.9844 70.4115C20.4739 68.7604 19.8646 67.1302 19.1458 65.5469C18.5625 60.776 16.9479 56.026 15.3854 51.375L14.7812 49.6042C12.5625 42.9948 10.6771 35.5677 12.4687 28.9375C13.7292 27.5625 14.9896 26.1406 16.1562 24.6771L16.2969 24.5156L16.6927 24.1875C18.5833 22.7656 20.5416 21.276 22.3385 19.6719L22.5052 19.5312L22.9687 19.3021C25.0937 18.2292 27.2604 17.1146 29.3125 15.8333L29.5 15.7135L30.0156 15.5521C32.276 14.8542 34.6354 14.1354 36.875 13.224L37.0833 13.1562L37.5989 13.0833C39.9531 12.7812 42.3802 12.4792 44.7344 11.9896C47.3021 11.4323 49.8698 10.7135 52.3437 9.98958C53.3437 9.70833 54.3489 9.40625 55.375 9.1302C56.3542 11.3854 56.8698 13.8073 56.8906 16.276C56.9583 22.0677 54.7656 27.5625 52.6198 32.1458C52.0156 33.4531 51.3594 34.776 50.7292 36.0573C48.9375 39.6875 47.0677 43.4583 45.8542 47.4167C44.8073 50.8385 44.4323 53.9792 44.6875 56.8177C44.3854 57.401 44.1302 58.0052 43.8958 58.6094C41.5885 64.9896 43.9219 72.0885 45.9479 78.349L45.9948 78.4896C48.1875 85.2135 49.8229 92.2448 46.8333 98.0156C45.5312 100.531 43.5 102.578 40.7239 104.161C40.2083 102.484 39.8125 100.693 39.4375 98.9219ZM40.375 104.464C38.25 105.578 36.0104 106.417 33.6771 106.974C33.2552 105.698 32.9791 104.37 32.7916 103.042C32.5364 101.016 32.4427 98.901 32.3698 96.849C32.2552 93.5 32.1146 90.0573 31.1562 86.7969C30.4114 84.3542 29.2917 82.0469 27.8229 79.9531C31.25 82.5833 34.2396 85.5885 36.125 89.4271C37.6198 92.4271 38.3437 95.7812 39.0417 99.0417C39.4167 100.807 39.8385 102.672 40.375 104.464ZM25.8854 78C25.4896 77.7187 25.1146 77.4635 24.7187 77.2083C24.5781 76.8333 24.4166 76.4635 24.25 76.1146C24.7916 76.7187 25.3489 77.349 25.8854 78ZM22.6406 73.8802C22.3177 73.5521 21.9687 73.2292 21.6146 72.901C21.5208 72.5052 21.4271 72.1094 21.3385 71.7396C21.8021 72.4375 22.2239 73.1562 22.6406 73.8802ZM19.3542 68.1094C19.3281 67.7135 19.3073 67.2917 19.2812 66.8958C19.6094 67.6667 19.8906 68.4583 20.1719 69.25C19.9114 68.875 19.6354 68.4792 19.3542 68.1094ZM8.31769 33.5C9.3229 32.3594 10.3489 31.2396 11.375 30.1458L11.8854 29.5885C10.3958 36.151 12.2396 43.3437 14.3854 49.7917C14.5937 50.3698 14.7812 50.9531 14.9896 51.5573C16.4114 55.75 17.8594 60.0312 18.5364 64.3125C17.3958 61.8906 16.0885 59.5208 14.8021 57.1667L13.9167 55.5365C10.2552 48.7656 6.8229 40.9896 8.31769 33.5ZM12.7292 28.0729C12.8437 27.724 12.9635 27.3542 13.125 27.0052C13.7292 26.5156 14.3385 26.0521 14.9427 25.5833C14.2187 26.4427 13.4739 27.2812 12.7292 28.0729ZM17.1823 23.349C17.5573 22.8385 17.9323 22.3281 18.2812 21.8125C19.1667 21.3021 20.0781 20.8125 20.9635 20.349C19.75 21.3958 18.4687 22.3958 17.1823 23.349ZM27.8698 16.276C26.4687 17.0885 25.0208 17.8333 23.5989 18.5781C24.0677 18.1354 24.5104 17.6927 24.9531 17.25C25.9114 16.901 26.8906 16.5781 27.8698 16.276ZM30.7396 14.9479C31.276 14.599 31.7864 14.25 32.3021 13.875C33.3021 13.7135 34.3333 13.5521 35.3333 13.4115C33.8177 13.9948 32.276 14.4844 30.7396 14.9479ZM38.4114 12.6198C40.3021 11.8073 42.1719 10.875 43.9635 10.0156C45.1302 9.45312 46.3229 8.875 47.5104 8.3125C49.3542 7.45312 51.2917 6.54687 53.3229 5.77604C54.0469 6.72916 54.6719 7.7552 55.1667 8.82812C54.1614 9.10416 53.1562 9.38541 52.1771 9.66666C49.7031 10.3854 47.1614 11.1094 44.5937 11.6406C42.5885 12.0833 40.4687 12.3646 38.4114 12.6198ZM57.2656 16.3437C57.2396 13.8542 56.7292 11.3854 55.75 9.10416L56.0989 9.01041C58.0573 8.47916 60.1354 7.91666 62.2552 7.52083C63.9114 10.6406 64.5417 14.599 63.8906 18.5573C62.9583 24.2812 59.8542 29.3073 56.9375 33.4531C56.0989 34.6354 55.2344 35.8229 54.3958 36.9635C51.9896 40.2448 49.4948 43.6198 47.6302 47.3229C46.276 49.974 45.4114 52.5365 45.0156 54.9583C45.0833 52.4687 45.4844 50 46.2292 47.625C47.4167 43.7135 49.2604 39.9427 51.0573 36.3125C51.6875 35.0312 52.3437 33.7083 52.9479 32.401C55.1406 27.75 57.3333 22.2083 57.2656 16.3437ZM47.1875 98.2969C50.2396 92.3802 48.6094 85.2604 46.3906 78.4427L46.3437 78.3021C44.2239 71.8333 42.0312 65.1302 44.2448 58.9115C44.2239 59.0781 44.1771 59.2135 44.151 59.3802C42.9844 66.0573 46.5104 72.6458 49.6094 78.4635L49.6823 78.6042C53.0156 84.8437 55.8385 91.5 53.9062 97.6875C52.4583 102.323 48.6302 106 42.4739 108.677C41.8437 107.49 41.3281 106.229 40.9323 104.953C40.9114 104.859 40.8646 104.74 40.8385 104.646C43.7083 103.021 45.8333 100.88 47.1875 98.2969ZM47.9792 47.4635C49.8437 43.8073 52.3177 40.4323 54.7187 37.1771C55.5625 36.0365 56.4219 34.849 57.2656 33.6615C60.2031 29.4687 63.3542 24.3958 64.2864 18.6042C64.9375 14.599 64.3073 10.6198 62.651 7.43229C64.5677 7.05729 66.5 6.84895 68.4635 6.82291H68.7187C71.6354 10.6667 72.3125 16.4844 70.4219 21.8854C68.5104 27.3542 64.5677 31.776 60.9739 35.3385C59.9479 36.3594 58.8958 37.3594 57.8698 38.3594C54.9323 41.1771 51.8958 44.0885 49.401 47.3906C47.6042 49.7917 46.2969 52.1406 45.5052 54.4687C45.9948 52.026 46.8333 49.6719 47.9792 47.4635ZM62.0469 7.10416C59.9687 7.5 57.9167 8.05729 55.9792 8.59375L55.5833 8.70833C55.0937 7.61458 54.4635 6.5677 53.7396 5.61458C55.6302 4.89062 57.5885 4.33333 59.5989 3.98437C60.5521 4.89062 61.3958 5.9427 62.0469 7.10416ZM53.0625 5.42708C51.0833 6.19791 49.1667 7.07812 47.3489 7.9427C46.1614 8.5 44.9687 9.08333 43.8021 9.64062C41.5625 10.7344 39.276 11.8542 36.9427 12.8073C35.6614 12.9687 34.375 13.1302 33.0937 13.3437C34.0052 12.6875 34.8906 12.0365 35.776 11.4115C36.8021 10.6667 37.875 9.875 38.9479 9.1302C42.2864 6.80208 45.9479 4.21874 50.0781 2.77604C51.1979 3.49479 52.2031 4.3802 53.0625 5.42708ZM28.1041 14.8073C29.1771 14.5052 30.25 14.2708 31.3437 14.0625C30.6667 14.526 29.9896 14.9687 29.3125 15.3906C28.1041 15.7865 26.8646 16.1562 25.651 16.5781C26.1198 16.0885 26.6094 15.625 27.0729 15.1354C27.3802 15.0156 27.7291 14.901 28.1041 14.8073ZM20.9635 18.8802C21.9687 18.3906 22.9948 17.974 24.0208 17.5781C23.4375 18.1354 22.8541 18.6927 22.2708 19.2292C21.125 19.8125 19.9844 20.4167 18.8385 21.0469C19.2344 20.4844 19.6094 19.9271 19.9844 19.3698C20.2864 19.2083 20.6354 19.0417 20.9635 18.8802ZM14.6406 24.1406C15.5521 23.4896 16.4844 22.8854 17.4427 22.3281C16.9739 22.9792 16.4844 23.6302 15.9948 24.2812C15.1562 24.9323 14.2917 25.5625 13.4531 26.2344C13.6146 25.8646 13.8021 25.4896 13.9896 25.1198C14.151 24.8385 14.3125 24.5365 14.4792 24.2552L14.6406 24.1406ZM9.34373 30.401C10.3489 29.401 11.3958 28.4219 12.4948 27.5417C12.3542 27.9323 12.2135 28.375 12.0989 28.7969L11.0729 29.8906C10.2083 30.7969 9.34373 31.7292 8.50519 32.6823C8.59894 32.2865 8.71352 31.8906 8.85415 31.4948C8.9479 31.1927 9.06248 30.8698 9.18227 30.5625L9.34373 30.401ZM8.47915 31.3542C8.27082 32.0104 8.10936 32.6615 7.96873 33.3125C7.05728 34.3594 6.17186 35.4531 5.38019 36.5677C5.58852 35.8021 5.86977 35.0312 6.17186 34.2865C6.89582 33.2396 7.66665 32.2656 8.50519 31.3073L8.47915 31.3542ZM5.21352 37.4792C6.03123 36.3125 6.89582 35.1719 7.80727 34.1042C6.61457 41.5052 9.97394 49.0937 13.5677 55.6771L14.4531 57.3073C15.9687 60.0521 17.4844 62.8229 18.7448 65.6615C18.8177 66.2708 18.8646 66.8958 18.9114 67.5C17.7187 65.9167 16.4844 64.3854 15.2448 62.8229L14.0833 61.3802C8.88019 54.8385 3.72394 47.0208 4.93748 38.5937C4.98436 38.2708 5.03123 37.9427 5.09894 37.6146L5.21352 37.4792ZM19.375 68.8281C19.7969 69.4115 20.2187 70.0156 20.6146 70.599C20.8021 71.1771 20.9635 71.7865 21.1042 72.3906C20.5208 71.8333 19.9114 71.2969 19.3281 70.7604C19.3542 70.1094 19.375 69.4792 19.375 68.8281ZM21.2448 73.1094C21.3854 73.8073 21.5 74.5312 21.5937 75.25C20.7552 74.7187 19.8906 74.2031 19.026 73.6927L18.9114 73.625C19.0729 72.8542 19.1667 72.0625 19.2344 71.2969C19.9375 71.875 20.5885 72.4844 21.2448 73.1094ZM21.7552 73.599C22.2708 74.1094 22.7812 74.625 23.2969 75.1354C23.5781 75.6927 23.8333 76.2552 24.0885 76.8125C23.4114 76.3698 22.7344 75.9531 22.0573 75.5104C21.9896 74.8542 21.875 74.2292 21.7552 73.599ZM25.0937 99.7135C25.1875 97.6667 25.4896 95.5729 25.7708 93.5469C26.2344 90.2396 26.7031 86.7969 26.3281 83.4219C26.1198 81.5156 25.651 79.651 24.9739 77.8802C25.5833 78.276 26.1666 78.6979 26.75 79.1146C28.5208 81.4687 29.9219 84.026 30.7604 86.8646C31.7187 90.0781 31.8333 93.5208 31.9531 96.8281C32.0208 98.875 32.1146 100.995 32.3698 103.068C32.5573 104.417 32.8385 105.745 33.2552 107.047C31.25 107.51 29.2239 107.812 27.1927 108.021C26.9375 108.047 26.6771 108.068 26.401 108.094C25.3281 105.464 24.9739 102.411 25.0937 99.7135ZM33.7969 107.349C36.125 106.812 38.3646 105.974 40.4896 104.859C40.5156 104.927 40.5364 105 40.5625 105.068C40.9792 106.37 41.4948 107.625 42.125 108.839C40.2344 109.63 38.2969 110.302 36.3125 110.839C36.0573 110.911 35.8021 110.979 35.5416 111.047C34.8229 109.885 34.2396 108.651 33.7969 107.349ZM36.4062 111.234C38.4114 110.677 40.375 110 42.3073 109.208C42.9635 110.422 43.7552 111.536 44.6667 112.562C42.8906 113.354 40.8646 114.12 38.7656 114.516C37.5729 113.677 36.5729 112.63 35.776 111.422L36.4062 111.234ZM42.6823 109.026C48.9114 106.276 52.8073 102.505 54.3021 97.7812C56.2864 91.4271 53.4375 84.7031 50.0573 78.3698L49.9844 78.2292C46.7656 72.2292 43.4531 65.9896 44.5469 59.4948C44.5469 59.6562 44.5469 59.7969 44.5469 59.9583C44.5729 66.7344 49.1667 72.6198 53.25 77.8125L53.3437 77.9271C57.7292 83.5156 61.651 89.5417 60.8125 95.9896C59.9948 102.25 54.9323 107.625 45.7604 112.005C45.5312 112.12 45.2969 112.234 45.0417 112.328C44.1302 111.349 43.3385 110.234 42.6823 109.026ZM45.9479 112.401C55.2552 107.953 60.3906 102.458 61.2292 96.0625C62.0937 89.474 58.1042 83.3281 53.6719 77.6979L53.5781 77.5781C49.3542 72.2031 45.0156 66.6615 44.9687 60.0781C44.9948 60.2396 45.0156 60.3802 45.0417 60.5417C46.2292 67.1979 51.8073 72.2031 56.7031 76.6042L56.8229 76.6979C62.0937 81.4219 67.0156 86.7031 67.3177 93.1979C67.5989 99.4792 63.5625 105.672 55.2812 111.583C53.4844 112.865 51.2448 114.307 48.8177 115.214C47.5104 114.589 46.3437 113.75 45.3437 112.677L45.9479 112.401ZM73.6667 7.03645C72.125 6.66145 70.5364 6.45312 68.9271 6.42708C68.8333 6.3125 68.7187 6.17187 68.625 6.05729C67.9479 5.26562 67.1771 4.5677 66.3385 3.98437C69.1406 4.45312 71.6562 5.52083 73.6667 7.03645ZM64.4739 3.33333C62.8854 3.21874 61.276 3.28645 59.7135 3.54166C59.5989 3.42708 59.4792 3.33333 59.3385 3.23958C58.5469 2.5677 57.6614 2.0052 56.7292 1.58854C59.5729 1.58854 62.2344 2.1927 64.4739 3.33333ZM50.1458 0.60937C51.7344 0.60937 53.2969 0.817703 54.7917 1.28645C53.2031 1.44791 51.6406 1.79687 50.1458 2.30729C50.0104 2.21874 49.8698 2.14583 49.75 2.05208C48.8437 1.54166 47.8854 1.16666 46.8802 0.89062C47.9323 0.70312 49.0521 0.60937 50.1458 0.60937ZM22.901 15.0885C26.1198 10.4792 29.7812 5.26562 35.4271 2.60937C38.5989 1.11979 41.8906 0.588536 44.901 0.937495C38.8594 2.63541 34.3542 7.125 30.3646 11.1094C29.4323 12.0365 28.5208 12.9948 27.6146 13.9219L26.7969 14.7865C24.9531 15.3906 23.1562 16.1823 21.4739 17.1354C21.9687 16.4375 22.4323 15.7604 22.901 15.0885ZM20.0781 18.5104L19.7031 19.0677C19.2344 19.3229 18.7708 19.5781 18.3281 19.8333C18.8646 19.3906 19.4479 18.9271 20.0781 18.5104ZM15.0833 22.651C14.9427 22.8385 14.8021 23.026 14.6614 23.2083C14.5 23.4427 14.3385 23.6979 14.1719 23.9531C13.4739 24.4687 12.8229 25 12.1927 25.5365C13.0781 24.5156 14.0364 23.5365 15.0833 22.651ZM9.5104 28.8906C9.39061 29.099 9.29686 29.3073 9.20311 29.5156C9.08853 29.7969 8.97394 30.0521 8.85415 30.3333C8.27082 30.9583 7.71353 31.5885 7.17707 32.2396C7.85415 31.0312 8.61977 29.9115 9.5104 28.8906ZM5.09894 35.9635C5.03123 36.1979 4.95832 36.4062 4.91144 36.6406C4.84373 36.9167 4.77082 37.224 4.70311 37.5C4.23436 38.224 3.79165 38.9427 3.37498 39.6667C3.83852 38.3854 4.42186 37.151 5.09894 35.9635ZM17.4427 72.7135C10.3229 68.3385 2.79165 62.776 1.04165 54.4219C0.901024 53.7917 0.807276 53.1406 0.7604 52.5104C0.505192 49.6979 0.947899 46.6927 2.02082 43.6927C1.99477 43.9271 1.97394 44.1562 1.9479 44.3906C1.90102 45.0417 1.88019 45.7187 1.90102 46.3698C2.18228 55.026 8.69269 61.9167 15.0156 67.5C15.4792 67.8958 15.9479 68.3177 16.4114 68.7135C17.2552 69.4323 18.0677 70.1771 18.9114 70.901C18.8385 71.7135 18.7448 72.5312 18.5833 73.3437L17.4427 72.7135ZM12.9635 104.604C9.24998 100.573 10.0469 94.1042 12.0052 89.3802C12.7969 87.474 13.8021 85.6094 14.7552 83.8177C16.3229 80.8594 17.9531 77.8125 18.7448 74.5052C18.7917 74.3437 18.8177 74.1823 18.8646 74.0417C19.7969 74.599 20.7552 75.1823 21.6875 75.7656C21.8021 76.9271 21.8281 78.1146 21.7552 79.2812C21.5469 82.6302 20.4739 85.8906 19.4687 89.0521C18.8385 91.0104 18.1875 93.0365 17.7187 95.0573C16.8125 99.1302 16.8594 104.229 19.2344 107.859C16.8594 107.37 14.6406 106.417 12.9635 104.604ZM20.125 108.417C21.2187 108.557 22.3385 108.63 23.4583 108.63C24.3906 108.63 25.3021 108.583 26.1406 108.51C26.6771 109.818 27.4479 111 28.4062 112.052C26.026 112.005 23.6458 111.443 21.6875 109.932C21.1041 109.49 20.5677 108.979 20.125 108.417ZM31.2031 113.677C30.5521 113.354 29.9427 112.932 29.4062 112.448C31.4167 112.354 33.4219 112.026 35.3594 111.516C36.125 112.703 37.0833 113.75 38.2031 114.589C35.8489 114.958 33.3958 114.818 31.2031 113.677ZM41.2344 115.729C40.5364 115.516 39.8594 115.214 39.2552 114.818C41.2135 114.375 43.125 113.724 44.9479 112.865C45.901 113.891 47.0208 114.75 48.2812 115.401C46.0208 116.172 43.5937 116.448 41.2344 115.729ZM59.875 74.7865L60.0156 74.8802C66.0364 78.625 71.8229 82.9583 73.2448 89.3125C74.6198 95.4531 71.7031 102.25 64.5885 109.49C61.5104 112.609 56.8229 116.703 51.4792 116.005C50.7552 115.911 50.0312 115.729 49.3542 115.469C51.6875 114.542 53.8125 113.167 55.5156 111.932C63.9114 105.953 68.0208 99.6458 67.7135 93.1979C67.4114 86.5625 62.4219 81.2083 57.0781 76.4167L56.9583 76.3021C51.875 71.7396 46.625 67.0365 45.4375 60.5417C45.4844 60.6823 45.5312 60.8437 45.5781 60.9844C47.9062 67.3385 54.2552 71.2969 59.875 74.7865ZM81.2917 31.7292C77.6302 36.2187 72.4062 39.0156 67.8073 41.1562C66.5 41.7604 65.151 42.3646 63.8437 42.9219C60.1094 44.5521 56.2604 46.25 52.8073 48.5104C50.3125 50.1406 48.2604 51.9062 46.7187 53.8177C48.026 51.6979 49.6094 49.7656 51.4531 48.0885C54.4635 45.2969 57.9427 42.9687 61.3021 40.7135C62.4896 39.9219 63.7031 39.1042 64.8906 38.2708C69.0937 35.3385 73.7812 31.6562 76.6719 26.5156C79.6823 21.1615 79.9167 14.8333 77.2812 10.4115C76.7448 9.52604 76.1146 8.6875 75.3906 7.96354C79.8489 9.57291 83.2552 12.6198 84.651 16.3437C86.401 21.0677 85.0729 27.099 81.2917 31.7292Z" fill="#A0E4B0"/>
</g>
<path d="M105.955 76.1137C112.767 76.1137 117.189 72.9731 117.189 68.1814C117.189 63.8689 113.57 60.9366 106.59 59.5512C100.84 58.4366 98.8717 57.3169 98.8717 54.9731C98.8717 52.5252 101.215 51.0356 105.21 51.0356C109.413 51.0356 111.919 52.6866 112.236 55.7179H116.658C116.283 50.2908 111.971 47.0929 105.153 47.0929C98.4967 47.0929 94.455 50.0252 94.455 54.9731C94.455 59.3429 97.8092 62.0044 104.939 63.1762C110.32 64.0773 112.767 65.5721 112.767 68.0721C112.767 70.5773 110.215 72.1189 106.007 72.1189C101.267 72.1189 98.4446 70.0981 98.2883 66.7439H93.8665C93.9758 72.3846 98.7102 76.1137 105.955 76.1137Z" fill="white"/>
<path d="M134.068 75.8481C138.537 75.8481 142.052 74.4106 144.557 71.5877L145.037 75.421H148.709V57.8481C148.709 51.4627 143.865 47.0929 136.62 47.0929C130.604 47.0929 126.078 50.3429 124.854 55.6658H129.38C130.287 52.9523 133.11 51.2491 136.677 51.2491C141.36 51.2491 144.235 53.8585 144.235 58.171V59.1814H132.948C127.198 59.1814 123.417 62.4314 123.417 67.4366C123.417 72.6502 127.412 75.8481 134.068 75.8481ZM127.891 67.3794C127.891 64.77 130.021 63.1189 133.11 63.1189H144.292C144.13 68.2335 139.974 71.8533 134.224 71.8533C130.339 71.8533 127.891 70.0981 127.891 67.3794Z" fill="white"/>
<path d="M158.027 75.421H162.501V60.7231C162.501 55.0252 165.694 51.3533 170.486 51.3533C175.116 51.3533 178.048 54.8689 178.048 60.3533V75.421H182.517V60.7231C182.517 55.0252 185.715 51.3533 190.506 51.3533C195.137 51.3533 198.069 54.8689 198.069 60.3533V75.421H202.538V59.6085C202.538 51.8846 198.069 47.0929 191.09 47.0929C186.621 47.0929 182.996 49.0096 180.814 52.5252C178.954 48.9575 175.543 47.0929 171.126 47.0929C167.293 47.0929 164.204 48.5304 162.126 51.2491L161.699 47.7856H158.027V75.421Z" fill="white"/>
<path d="M226.978 76.1137C235.124 76.1137 241.035 69.9887 241.035 61.5773C241.035 53.2179 235.124 47.0929 226.978 47.0929C222.452 47.0929 218.619 48.9575 216.113 52.046L215.582 47.7856H211.91V86.0721H216.384V71.4783C218.884 74.3585 222.613 76.1137 226.978 76.1137ZM216.223 61.5773C216.223 55.6137 220.426 51.3533 226.389 51.3533C232.41 51.3533 236.561 55.6137 236.561 61.5773C236.561 67.5929 232.41 71.8012 226.389 71.8012C220.426 71.8012 216.223 67.5929 216.223 61.5773Z" fill="white"/>
<path d="M248.755 75.421H253.229V36.02H248.755V75.421Z" fill="white"/>
<path d="M273.142 76.1137C279.954 76.1137 284.376 72.9731 284.376 68.1814C284.376 63.8689 280.756 60.9366 273.777 59.5512C268.027 58.4366 266.058 57.3169 266.058 54.9731C266.058 52.5252 268.402 51.0356 272.397 51.0356C276.6 51.0356 279.105 52.6866 279.423 55.7179H283.845C283.47 50.2908 279.157 47.0929 272.339 47.0929C265.683 47.0929 261.642 50.0252 261.642 54.9731C261.642 59.3429 264.996 62.0044 272.126 63.1762C277.506 64.0773 279.954 65.5721 279.954 68.0721C279.954 70.5773 277.402 72.1189 273.194 72.1189C268.454 72.1189 265.631 70.0981 265.475 66.7439H261.053C261.162 72.3846 265.897 76.1137 273.142 76.1137Z" fill="white"/>
<path d="M304.129 75.421H308.281V71.1085H304.343C300.666 71.1085 298.963 69.2439 298.963 65.2491V51.8846H307.911V47.7856H298.963V40.9158H295.504L295.077 44.645C294.754 47.145 294.01 47.7856 291.458 47.7856H288.687V51.8846H294.489V65.4627C294.489 71.8012 298.004 75.421 304.129 75.421Z" fill="white"/>
<path d="M324.895 75.8481C329.364 75.8481 332.879 74.4106 335.385 71.5877L335.864 75.421H339.536V57.8481C339.536 51.4627 334.692 47.0929 327.447 47.0929C321.431 47.0929 316.905 50.3429 315.681 55.6658H320.207C321.114 52.9523 323.937 51.2491 327.504 51.2491C332.187 51.2491 335.062 53.8585 335.062 58.171V59.1814H323.775C318.025 59.1814 314.244 62.4314 314.244 67.4366C314.244 72.6502 318.239 75.8481 324.895 75.8481ZM318.718 67.3794C318.718 64.77 320.848 63.1189 323.937 63.1189H335.119C334.957 68.2335 330.801 71.8533 325.051 71.8533C321.166 71.8533 318.718 70.0981 318.718 67.3794Z" fill="white"/>
<path d="M348.854 75.421H353.328V63.4939H356.625C357.906 63.4939 359.078 63.4418 360.141 63.2283L367.755 75.421H373.078L364.453 61.7387C366.479 60.4575 367.917 58.3845 369.031 55.3481L371.802 47.7856H367.01L364.932 53.697C363.391 58.171 361.26 59.3429 356.787 59.3429H353.328V36.02H348.854V75.421Z" fill="white"/>
<path d="M129.868 114.169V100.171H132.827V111.729H138.828V114.169H129.868ZM145.476 114.374C144.415 114.374 143.497 114.148 142.722 113.697C141.952 113.242 141.357 112.608 140.938 111.797C140.519 110.982 140.309 110.036 140.309 108.961C140.309 107.876 140.519 106.929 140.938 106.118C141.357 105.302 141.952 104.669 142.722 104.218C143.497 103.762 144.415 103.534 145.476 103.534C146.538 103.534 147.454 103.762 148.224 104.218C148.999 104.669 149.595 105.302 150.015 106.118C150.434 106.929 150.643 107.876 150.643 108.961C150.643 110.036 150.434 110.982 150.015 111.797C149.595 112.608 148.999 113.242 148.224 113.697C147.454 114.148 146.538 114.374 145.476 114.374ZM145.49 112.118C145.973 112.118 146.376 111.982 146.7 111.708C147.023 111.43 147.267 111.052 147.431 110.574C147.6 110.095 147.684 109.551 147.684 108.94C147.684 108.33 147.6 107.785 147.431 107.307C147.267 106.828 147.023 106.45 146.7 106.172C146.376 105.894 145.973 105.755 145.49 105.755C145.003 105.755 144.592 105.894 144.26 106.172C143.932 106.45 143.683 106.828 143.515 107.307C143.351 107.785 143.269 108.33 143.269 108.94C143.269 109.551 143.351 110.095 143.515 110.574C143.683 111.052 143.932 111.43 144.26 111.708C144.592 111.982 145.003 112.118 145.49 112.118ZM157.266 118.324C156.323 118.324 155.514 118.195 154.84 117.935C154.17 117.68 153.637 117.331 153.241 116.889C152.844 116.447 152.587 115.951 152.468 115.399L155.161 115.037C155.243 115.247 155.373 115.442 155.551 115.625C155.729 115.807 155.963 115.953 156.255 116.062C156.551 116.176 156.911 116.233 157.335 116.233C157.968 116.233 158.49 116.078 158.9 115.768C159.314 115.463 159.522 114.95 159.522 114.23V112.31H159.399C159.271 112.601 159.08 112.877 158.825 113.137C158.569 113.397 158.241 113.608 157.84 113.773C157.439 113.937 156.961 114.019 156.405 114.019C155.617 114.019 154.899 113.836 154.252 113.472C153.61 113.103 153.097 112.54 152.714 111.784C152.336 111.023 152.147 110.061 152.147 108.899C152.147 107.71 152.341 106.717 152.728 105.919C153.115 105.122 153.63 104.525 154.273 104.129C154.92 103.732 155.628 103.534 156.398 103.534C156.986 103.534 157.478 103.634 157.875 103.835C158.271 104.031 158.59 104.277 158.831 104.573C159.078 104.865 159.267 105.152 159.399 105.434H159.508V103.671H162.399V114.271C162.399 115.165 162.181 115.912 161.743 116.513C161.306 117.115 160.7 117.566 159.925 117.867C159.155 118.172 158.269 118.324 157.266 118.324ZM157.328 111.831C157.797 111.831 158.194 111.715 158.517 111.483C158.845 111.246 159.096 110.909 159.269 110.471C159.447 110.029 159.535 109.501 159.535 108.886C159.535 108.271 159.449 107.737 159.276 107.286C159.103 106.831 158.852 106.478 158.524 106.227C158.196 105.976 157.797 105.851 157.328 105.851C156.849 105.851 156.446 105.981 156.118 106.241C155.79 106.496 155.542 106.851 155.373 107.307C155.205 107.762 155.12 108.289 155.12 108.886C155.12 109.492 155.205 110.016 155.373 110.458C155.546 110.895 155.795 111.235 156.118 111.476C156.446 111.713 156.849 111.831 157.328 111.831ZM169.171 114.169V103.671H172.082V114.169H169.171ZM170.633 102.317C170.201 102.317 169.829 102.174 169.519 101.887C169.214 101.595 169.061 101.247 169.061 100.841C169.061 100.44 169.214 100.096 169.519 99.8091C169.829 99.5175 170.201 99.3717 170.633 99.3717C171.066 99.3717 171.435 99.5175 171.741 99.8091C172.05 100.096 172.205 100.44 172.205 100.841C172.205 101.247 172.05 101.595 171.741 101.887C171.435 102.174 171.066 102.317 170.633 102.317ZM177.326 108.1V114.169H174.415V103.671H177.19V105.523H177.313C177.545 104.912 177.935 104.429 178.481 104.074C179.028 103.714 179.691 103.534 180.47 103.534C181.199 103.534 181.835 103.694 182.377 104.012C182.919 104.331 183.341 104.787 183.642 105.379C183.942 105.967 184.093 106.669 184.093 107.485V114.169H181.181V108.004C181.186 107.362 181.022 106.86 180.689 106.5C180.356 106.136 179.898 105.954 179.315 105.954C178.923 105.954 178.577 106.038 178.276 106.206C177.98 106.375 177.748 106.621 177.579 106.945C177.415 107.264 177.331 107.649 177.326 108.1ZM191.971 103.671V105.858H185.649V103.671H191.971ZM187.085 101.156H189.996V110.943C189.996 111.212 190.037 111.421 190.119 111.572C190.201 111.718 190.315 111.82 190.461 111.879C190.611 111.939 190.784 111.968 190.98 111.968C191.117 111.968 191.254 111.957 191.39 111.934C191.527 111.907 191.632 111.886 191.705 111.872L192.163 114.039C192.017 114.085 191.812 114.137 191.548 114.196C191.283 114.26 190.962 114.299 190.584 114.312C189.882 114.34 189.267 114.246 188.739 114.032C188.215 113.818 187.807 113.485 187.515 113.034C187.224 112.583 187.08 112.014 187.085 111.326V101.156ZM198.499 114.374C197.437 114.374 196.519 114.148 195.744 113.697C194.974 113.242 194.38 112.608 193.96 111.797C193.541 110.982 193.332 110.036 193.332 108.961C193.332 107.876 193.541 106.929 193.96 106.118C194.38 105.302 194.974 104.669 195.744 104.218C196.519 103.762 197.437 103.534 198.499 103.534C199.56 103.534 200.476 103.762 201.246 104.218C202.021 104.669 202.618 105.302 203.037 106.118C203.456 106.929 203.666 107.876 203.666 108.961C203.666 110.036 203.456 110.982 203.037 111.797C202.618 112.608 202.021 113.242 201.246 113.697C200.476 114.148 199.56 114.374 198.499 114.374ZM198.512 112.118C198.995 112.118 199.399 111.982 199.722 111.708C200.046 111.43 200.289 111.052 200.453 110.574C200.622 110.095 200.706 109.551 200.706 108.94C200.706 108.33 200.622 107.785 200.453 107.307C200.289 106.828 200.046 106.45 199.722 106.172C199.399 105.894 198.995 105.755 198.512 105.755C198.025 105.755 197.615 105.894 197.282 106.172C196.954 106.45 196.706 106.828 196.537 107.307C196.373 107.785 196.291 108.33 196.291 108.94C196.291 109.551 196.373 110.095 196.537 110.574C196.706 111.052 196.954 111.43 197.282 111.708C197.615 111.982 198.025 112.118 198.512 112.118ZM211.811 118.106C211.442 118.106 211.096 118.076 210.772 118.017C210.453 117.962 210.189 117.892 209.979 117.805L210.635 115.632C210.977 115.736 211.285 115.793 211.558 115.802C211.836 115.812 212.075 115.748 212.276 115.611C212.481 115.474 212.647 115.242 212.775 114.914L212.946 114.47L209.18 103.671H212.242L214.415 111.38H214.524L216.718 103.671H219.801L215.72 115.303C215.524 115.868 215.258 116.361 214.921 116.78C214.588 117.204 214.167 117.529 213.656 117.757C213.146 117.99 212.531 118.106 211.811 118.106ZM225.696 114.374C224.634 114.374 223.716 114.148 222.941 113.697C222.171 113.242 221.577 112.608 221.157 111.797C220.738 110.982 220.529 110.036 220.529 108.961C220.529 107.876 220.738 106.929 221.157 106.118C221.577 105.302 222.171 104.669 222.941 104.218C223.716 103.762 224.634 103.534 225.696 103.534C226.757 103.534 227.673 103.762 228.443 104.218C229.218 104.669 229.815 105.302 230.234 106.118C230.653 106.929 230.863 107.876 230.863 108.961C230.863 110.036 230.653 110.982 230.234 111.797C229.815 112.608 229.218 113.242 228.443 113.697C227.673 114.148 226.757 114.374 225.696 114.374ZM225.709 112.118C226.192 112.118 226.596 111.982 226.919 111.708C227.243 111.43 227.486 111.052 227.65 110.574C227.819 110.095 227.903 109.551 227.903 108.94C227.903 108.33 227.819 107.785 227.65 107.307C227.486 106.828 227.243 106.45 226.919 106.172C226.596 105.894 226.192 105.755 225.709 105.755C225.222 105.755 224.812 105.894 224.479 106.172C224.151 106.45 223.903 106.828 223.734 107.307C223.57 107.785 223.488 108.33 223.488 108.94C223.488 109.551 223.57 110.095 223.734 110.574C223.903 111.052 224.151 111.43 224.479 111.708C224.812 111.982 225.222 112.118 225.709 112.118ZM239.488 109.699V103.671H242.4V114.169H239.604V112.262H239.495C239.258 112.877 238.864 113.372 238.313 113.745C237.766 114.119 237.098 114.306 236.31 114.306C235.608 114.306 234.991 114.146 234.458 113.827C233.925 113.508 233.508 113.055 233.207 112.467C232.911 111.879 232.761 111.175 232.756 110.355V103.671H235.668V109.836C235.672 110.455 235.838 110.945 236.167 111.305C236.495 111.665 236.934 111.845 237.486 111.845C237.837 111.845 238.165 111.765 238.47 111.606C238.775 111.442 239.021 111.2 239.208 110.881C239.399 110.562 239.493 110.168 239.488 109.699ZM244.729 114.169V103.671H247.552V105.502H247.661C247.852 104.851 248.173 104.359 248.625 104.026C249.076 103.689 249.595 103.52 250.183 103.52C250.329 103.52 250.486 103.53 250.654 103.548C250.823 103.566 250.971 103.591 251.099 103.623V106.206C250.962 106.165 250.773 106.129 250.531 106.097C250.29 106.065 250.069 106.049 249.868 106.049C249.44 106.049 249.057 106.143 248.72 106.329C248.388 106.512 248.123 106.767 247.927 107.095C247.736 107.423 247.64 107.801 247.64 108.23V114.169H244.729ZM260.052 114.367C259.382 114.367 258.786 114.251 258.262 114.019C257.738 113.782 257.323 113.433 257.018 112.973C256.717 112.508 256.567 111.929 256.567 111.237C256.567 110.654 256.674 110.164 256.888 109.767C257.102 109.371 257.394 109.052 257.763 108.81C258.132 108.569 258.551 108.387 259.02 108.264C259.494 108.141 259.991 108.054 260.51 108.004C261.121 107.94 261.613 107.881 261.986 107.826C262.36 107.767 262.631 107.68 262.8 107.567C262.968 107.453 263.053 107.284 263.053 107.061V107.02C263.053 106.587 262.916 106.252 262.643 106.015C262.374 105.778 261.991 105.66 261.494 105.66C260.97 105.66 260.553 105.776 260.244 106.008C259.934 106.236 259.729 106.523 259.628 106.869L256.936 106.651C257.072 106.013 257.341 105.461 257.742 104.997C258.143 104.527 258.66 104.167 259.294 103.917C259.931 103.662 260.67 103.534 261.508 103.534C262.091 103.534 262.649 103.602 263.183 103.739C263.72 103.876 264.196 104.088 264.611 104.375C265.03 104.662 265.361 105.031 265.602 105.482C265.844 105.928 265.964 106.464 265.964 107.088V114.169H263.203V112.713H263.121C262.952 113.041 262.727 113.331 262.444 113.581C262.162 113.827 261.822 114.021 261.426 114.162C261.03 114.299 260.572 114.367 260.052 114.367ZM260.886 112.358C261.314 112.358 261.693 112.273 262.021 112.105C262.349 111.932 262.606 111.699 262.793 111.408C262.98 111.116 263.073 110.786 263.073 110.417V109.303C262.982 109.362 262.857 109.416 262.697 109.467C262.542 109.512 262.367 109.555 262.171 109.596C261.975 109.633 261.779 109.667 261.583 109.699C261.387 109.726 261.21 109.751 261.05 109.774C260.708 109.824 260.41 109.904 260.155 110.013C259.9 110.123 259.701 110.271 259.56 110.458C259.419 110.64 259.348 110.868 259.348 111.141C259.348 111.538 259.492 111.841 259.779 112.05C260.07 112.255 260.44 112.358 260.886 112.358ZM272.966 114.374C271.891 114.374 270.966 114.146 270.192 113.69C269.422 113.23 268.829 112.592 268.415 111.777C268.004 110.961 267.799 110.023 267.799 108.961C267.799 107.886 268.007 106.942 268.421 106.131C268.841 105.316 269.435 104.68 270.205 104.224C270.975 103.764 271.891 103.534 272.953 103.534C273.869 103.534 274.671 103.7 275.359 104.033C276.047 104.366 276.591 104.833 276.992 105.434C277.393 106.036 277.614 106.742 277.655 107.553H274.908C274.83 107.029 274.625 106.607 274.292 106.288C273.964 105.965 273.534 105.803 273.001 105.803C272.55 105.803 272.155 105.926 271.818 106.172C271.486 106.414 271.226 106.767 271.039 107.232C270.852 107.696 270.759 108.259 270.759 108.92C270.759 109.59 270.85 110.159 271.032 110.629C271.219 111.098 271.481 111.456 271.818 111.702C272.155 111.948 272.55 112.071 273.001 112.071C273.333 112.071 273.632 112.002 273.896 111.866C274.165 111.729 274.386 111.531 274.559 111.271C274.737 111.007 274.853 110.69 274.908 110.321H277.655C277.61 111.123 277.391 111.829 276.999 112.44C276.612 113.046 276.076 113.52 275.393 113.861C274.709 114.203 273.901 114.374 272.966 114.374ZM284.263 114.374C283.187 114.374 282.262 114.146 281.488 113.69C280.718 113.23 280.125 112.592 279.711 111.777C279.301 110.961 279.096 110.023 279.096 108.961C279.096 107.886 279.303 106.942 279.717 106.131C280.137 105.316 280.731 104.68 281.501 104.224C282.271 103.764 283.187 103.534 284.249 103.534C285.165 103.534 285.967 103.7 286.655 104.033C287.343 104.366 287.887 104.833 288.288 105.434C288.689 106.036 288.91 106.742 288.951 107.553H286.204C286.126 107.029 285.921 106.607 285.589 106.288C285.26 105.965 284.83 105.803 284.297 105.803C283.846 105.803 283.452 105.926 283.114 106.172C282.782 106.414 282.522 106.767 282.335 107.232C282.148 107.696 282.055 108.259 282.055 108.92C282.055 109.59 282.146 110.159 282.328 110.629C282.515 111.098 282.777 111.456 283.114 111.702C283.452 111.948 283.846 112.071 284.297 112.071C284.629 112.071 284.928 112.002 285.192 111.866C285.461 111.729 285.682 111.531 285.855 111.271C286.033 111.007 286.149 110.69 286.204 110.321H288.951C288.906 111.123 288.687 111.829 288.295 112.44C287.908 113.046 287.372 113.52 286.689 113.861C286.005 114.203 285.197 114.374 284.263 114.374ZM295.559 114.374C294.497 114.374 293.579 114.148 292.804 113.697C292.034 113.242 291.44 112.608 291.02 111.797C290.601 110.982 290.392 110.036 290.392 108.961C290.392 107.876 290.601 106.929 291.02 106.118C291.44 105.302 292.034 104.669 292.804 104.218C293.579 103.762 294.497 103.534 295.559 103.534C296.62 103.534 297.536 103.762 298.306 104.218C299.081 104.669 299.678 105.302 300.097 106.118C300.516 106.929 300.726 107.876 300.726 108.961C300.726 110.036 300.516 110.982 300.097 111.797C299.678 112.608 299.081 113.242 298.306 113.697C297.536 114.148 296.62 114.374 295.559 114.374ZM295.572 112.118C296.055 112.118 296.459 111.982 296.782 111.708C297.106 111.43 297.349 111.052 297.513 110.574C297.682 110.095 297.766 109.551 297.766 108.94C297.766 108.33 297.682 107.785 297.513 107.307C297.349 106.828 297.106 106.45 296.782 106.172C296.459 105.894 296.055 105.755 295.572 105.755C295.085 105.755 294.675 105.894 294.342 106.172C294.014 106.45 293.766 106.828 293.597 107.307C293.433 107.785 293.351 108.33 293.351 108.94C293.351 109.551 293.433 110.095 293.597 110.574C293.766 111.052 294.014 111.43 294.342 111.708C294.675 111.982 295.085 112.118 295.572 112.118ZM309.351 109.699V103.671H312.263V114.169H309.467V112.262H309.358C309.121 112.877 308.727 113.372 308.176 113.745C307.629 114.119 306.961 114.306 306.173 114.306C305.471 114.306 304.854 114.146 304.321 113.827C303.788 113.508 303.371 113.055 303.07 112.467C302.774 111.879 302.624 111.175 302.619 110.355V103.671H305.531V109.836C305.535 110.455 305.701 110.945 306.03 111.305C306.358 111.665 306.797 111.845 307.349 111.845C307.699 111.845 308.028 111.765 308.333 111.606C308.638 111.442 308.884 111.2 309.071 110.881C309.262 110.562 309.356 110.168 309.351 109.699ZM317.503 108.1V114.169H314.592V103.671H317.367V105.523H317.49C317.722 104.912 318.112 104.429 318.658 104.074C319.205 103.714 319.868 103.534 320.647 103.534C321.376 103.534 322.012 103.694 322.554 104.012C323.096 104.331 323.518 104.787 323.819 105.379C324.119 105.967 324.27 106.669 324.27 107.485V114.169H321.358V108.004C321.363 107.362 321.199 106.86 320.866 106.5C320.533 106.136 320.075 105.954 319.492 105.954C319.1 105.954 318.754 106.038 318.453 106.206C318.157 106.375 317.925 106.621 317.756 106.945C317.592 107.264 317.508 107.649 317.503 108.1ZM332.148 103.671V105.858H325.826V103.671H332.148ZM327.262 101.156H330.173V110.943C330.173 111.212 330.214 111.421 330.296 111.572C330.378 111.718 330.492 111.82 330.638 111.879C330.788 111.939 330.962 111.968 331.157 111.968C331.294 111.968 331.431 111.957 331.568 111.934C331.704 111.907 331.809 111.886 331.882 111.872L332.34 114.039C332.194 114.085 331.989 114.137 331.725 114.196C331.46 114.26 331.139 114.299 330.761 114.312C330.059 114.34 329.444 114.246 328.916 114.032C328.392 113.818 327.984 113.485 327.692 113.034C327.401 112.583 327.257 112.014 327.262 111.326V101.156ZM335.747 114.347C335.296 114.347 334.909 114.187 334.585 113.868C334.266 113.545 334.107 113.157 334.107 112.706C334.107 112.26 334.266 111.877 334.585 111.558C334.909 111.239 335.296 111.08 335.747 111.08C336.184 111.08 336.567 111.239 336.895 111.558C337.223 111.877 337.387 112.26 337.387 112.706C337.387 113.007 337.31 113.283 337.155 113.533C337.005 113.779 336.806 113.978 336.56 114.128C336.314 114.274 336.043 114.347 335.747 114.347Z" fill="white"/>
</g>
<defs>
<clipPath id="clip0_86_644">
<rect width="374" height="120.169" fill="white"/>
</clipPath>
</defs>
</svg>
