<svg width="374" height="121" viewBox="0 0 374 121" fill="none" xmlns="http://www.w3.org/2000/svg">
<g clip-path="url(#clip0_86_644)">
<mask id="mask0_86_644" style="mask-type:luminance" maskUnits="userSpaceOnUse" x="0" y="0" width="87" height="117">
<path d="M0 0H86.3177V116.703H0V0Z" fill="white"/>
</mask>
<g mask="url(#mask0_86_644)">
<path d="M85.026 16.2292C83.4844 12.1562 79.6354 8.84895 74.6667 7.3125C72.3125 5.26562 69.1146 3.89062 65.5208 3.44791C62.8385 1.84374 59.4583 1.05208 55.8385 1.21354C52.9271 0.0989539 49.4479 -0.10938 45.9271 0.70312C42.6146 0.0520772 38.8594 0.588537 35.2864 2.26041C29.5 4.9375 25.8177 10.1979 22.5729 14.8542C21.9219 15.7865 21.2917 16.7187 20.6614 17.6458C19.0729 18.625 17.625 19.8125 16.3437 21.1615C14.0364 22.7917 12.0521 24.8385 10.4896 27.1875C8.50519 29.1927 6.91665 31.5417 5.77602 34.125C4.16665 36.4531 2.99998 39.0365 2.34373 41.7812C0.734358 45.3698 0.0364405 49.0937 0.338525 52.5365C0.411441 53.1875 0.505191 53.8646 0.640608 54.5156C2.41665 63.0104 10.0208 68.6406 17.2552 73.0417L18.4896 73.7865C18.4427 73.9948 18.3958 74.1823 18.3489 74.3906C17.5573 77.651 15.9479 80.6771 14.3854 83.6094C13.4271 85.4219 12.4219 87.2865 11.6302 89.2187C9.59894 94.0573 8.83332 100.693 12.6562 104.859C14.5 106.859 16.9739 107.859 19.5417 108.302C20.0781 109.047 20.7292 109.698 21.4531 110.234C23.5989 111.885 26.1875 112.422 28.776 112.422H28.8229C29.4792 113.052 30.2239 113.583 31.0416 114.005C32.5833 114.771 34.2604 115.167 35.9896 115.146C36.8958 115.146 37.8073 115.073 38.6927 114.911C39.4375 115.427 40.2812 115.818 41.1406 116.099C42.125 116.401 43.125 116.562 44.151 116.542C45.7604 116.521 47.3229 116.214 48.8177 115.635C49.6562 116.005 50.5469 116.24 51.4323 116.354C51.8489 116.401 52.2708 116.427 52.6927 116.427C57.6823 116.427 62 112.656 64.8906 109.698C72.125 102.344 75.0625 95.4323 73.6406 89.125C72.1719 82.6302 66.3385 78.2292 60.2292 74.4375L60.0885 74.3698C54.2552 70.7396 48.2604 67.0156 45.9479 60.776C45.5781 59.75 45.3177 58.7031 45.1771 57.6354C45.1771 57.4687 45.1771 57.3333 45.1771 57.1667C45.1771 57.0052 45.25 56.8646 45.2708 56.7031C45.2969 56.5417 45.3906 56.401 45.4375 56.2604C47.0469 53.5365 49.5677 51.0208 52.9948 48.7865C56.4219 46.5521 60.2708 44.8542 63.9844 43.224C65.2917 42.6458 66.6406 42.0625 67.9479 41.4583C72.5937 39.2917 77.8646 36.4792 81.5989 31.9167C85.4948 27.2344 86.8229 21.0469 85.026 16.2292ZM76.9323 10.6198C79.4739 14.9219 79.2396 21.0937 76.3021 26.3281C73.4531 31.401 68.8125 35.0573 64.6614 37.9427C63.4687 38.7812 62.2552 39.5937 61.0677 40.3854C57.6823 42.6458 54.1823 44.974 51.151 47.7865C48.9583 49.8125 47.2812 51.9323 46.0677 54.0729C46.9739 51.7448 48.2135 49.5781 49.7292 47.6042C52.2031 44.3177 55.2083 41.4323 58.151 38.6198C59.1771 37.6406 60.25 36.6146 61.276 35.5937C64.9167 31.9844 68.8802 27.5417 70.8177 21.974C72.7083 16.5521 72.0781 10.7344 69.2552 6.80208C70.7708 6.84895 72.2864 7.05729 73.7344 7.43229C73.9687 7.49999 74.2239 7.5677 74.4583 7.64062C75.4167 8.52604 76.2552 9.52604 76.9323 10.6198ZM26.5625 108.49L27.2135 108.417C29.2917 108.234 31.3437 107.906 33.375 107.443C33.8177 108.745 34.401 109.979 35.0989 111.141C33.2344 111.609 31.0885 112.026 28.9427 112.052C27.9635 111.026 27.1458 109.818 26.5625 108.49ZM22.0833 76.0208C22.8541 76.5104 23.5989 76.974 24.3437 77.4844C25.1406 79.3958 25.651 81.4219 25.8854 83.4687C26.2604 86.7969 25.7917 90.1927 25.3281 93.5C25.0469 95.526 24.7448 97.6406 24.651 99.7135C24.5312 102.411 24.8802 105.464 25.9531 108.141C24.0208 108.281 21.8489 108.302 19.75 107.953C17.2292 104.417 17.1614 99.25 18.0677 95.1302C18.5156 93.125 19.1667 91.1042 19.7969 89.1719C20.8229 85.9844 21.8958 82.6979 22.1041 79.3021C22.1979 78.2083 22.1979 77.1146 22.0833 76.0208ZM2.34373 44.4115C2.41665 43.5521 2.55728 42.7135 2.74477 41.875C3.25519 40.7344 3.86457 39.6198 4.51561 38.5469V38.5729C3.28123 47.1615 8.47915 55.0729 13.7552 61.6615L14.9219 63.1042C16.276 64.8021 17.651 66.5 18.9323 68.2448C18.9583 68.9687 18.9583 69.6875 18.9114 70.4115C18.1614 69.7344 17.4167 69.0833 16.6719 68.4323C16.2031 68.0365 15.7396 67.6198 15.2708 67.224C8.99477 61.6823 2.55728 54.8854 2.27602 46.3698C2.27602 45.7187 2.27602 45.0625 2.34373 44.4115ZM13.6354 24.8854L13.6146 24.9115C13.2864 25.5156 13.0052 26.1198 12.776 26.75C11.7031 27.6302 10.651 28.5417 9.64582 29.5156C9.99998 28.7969 10.3958 28.0729 10.8385 27.401C11.7031 26.5156 12.6562 25.6771 13.6354 24.8854ZM19.1875 19.8125C18.8177 20.3698 18.4219 20.9531 18.026 21.5104C17.0208 22.0937 16.0417 22.6771 15.1094 23.3281C15.5729 22.6771 16.0885 22.0469 16.6458 21.4635C17.4635 20.8594 18.3021 20.3229 19.1875 19.8125ZM20.9375 17.9271C22.5937 16.901 24.3437 16.0625 26.1666 15.4115C25.6979 15.901 25.2083 16.3906 24.7187 16.8802C23.3646 17.3437 22.0573 17.901 20.776 18.5104L20.4271 18.6719L20.6823 18.2969L20.9375 17.9271ZM45.901 1.09895C47.1614 1.35416 48.401 1.79687 49.5208 2.42708L49.6354 2.49479C45.5781 3.98437 41.9844 6.49999 38.7187 8.78125C37.6458 9.52604 36.5729 10.3177 35.5208 11.0833C34.4219 11.875 33.2812 12.7135 32.1354 13.5052C30.7396 13.7396 29.3385 14.0417 27.9635 14.4375C27.8437 14.4583 27.7292 14.5052 27.5885 14.5521L27.8906 14.224C28.776 13.2969 29.7135 12.3385 30.6198 11.4115C34.6094 7.43229 39.1146 2.93749 45.1302 1.28645C45.4375 1.21354 45.6667 1.14583 45.901 1.09895ZM55.75 1.60937C56.9583 2.07812 58.0781 2.72916 59.0833 3.54166L59.1771 3.63541C57.2187 4.01041 55.3021 4.54166 53.4375 5.26562C52.6198 4.23958 51.6406 3.33333 50.5677 2.58854C52.0156 2.125 53.5104 1.79687 55 1.65624C55.2552 1.63541 55.5156 1.63541 55.75 1.60937ZM65.3594 3.82291C66.4583 4.49479 67.4583 5.33333 68.2969 6.29166L68.3906 6.40625C66.4114 6.42708 64.401 6.64062 62.4687 7.03645C61.8385 5.86979 61.0417 4.82291 60.1094 3.89062C61.0885 3.74999 62.0677 3.68229 63.0521 3.68229C63.5885 3.68229 64.0989 3.70833 64.6354 3.75C64.8698 3.77604 65.125 3.79687 65.3594 3.82291ZM39.4375 98.9219C38.7396 95.6667 38.0156 92.2656 36.5 89.2187C34.3541 84.9115 30.9271 81.651 27.0312 78.8125C25.9792 77.4427 24.8594 76.1146 23.6458 74.8802C22.8541 73.3437 21.9687 71.8542 20.9844 70.4115C20.4739 68.7604 19.8646 67.1302 19.1458 65.5469C18.5625 60.776 16.9479 56.026 15.3854 51.375L14.7812 49.6042C12.5625 42.9948 10.6771 35.5677 12.4687 28.9375C13.7292 27.5625 14.9896 26.1406 16.1562 24.6771L16.2969 24.5156L16.6927 24.1875C18.5833 22.7656 20.5416 21.276 22.3385 19.6719L22.5052 19.5312L22.9687 19.3021C25.0937 18.2292 27.2604 17.1146 29.3125 15.8333L29.5 15.7135L30.0156 15.5521C32.276 14.8542 34.6354 14.1354 36.875 13.224L37.0833 13.1562L37.5989 13.0833C39.9531 12.7812 42.3802 12.4792 44.7344 11.9896C47.3021 11.4323 49.8698 10.7135 52.3437 9.98958C53.3437 9.70833 54.3489 9.40625 55.375 9.1302C56.3542 11.3854 56.8698 13.8073 56.8906 16.276C56.9583 22.0677 54.7656 27.5625 52.6198 32.1458C52.0156 33.4531 51.3594 34.776 50.7292 36.0573C48.9375 39.6875 47.0677 43.4583 45.8542 47.4167C44.8073 50.8385 44.4323 53.9792 44.6875 56.8177C44.3854 57.401 44.1302 58.0052 43.8958 58.6094C41.5885 64.9896 43.9219 72.0885 45.9479 78.349L45.9948 78.4896C48.1875 85.2135 49.8229 92.2448 46.8333 98.0156C45.5312 100.531 43.5 102.578 40.7239 104.161C40.2083 102.484 39.8125 100.693 39.4375 98.9219ZM40.375 104.464C38.25 105.578 36.0104 106.417 33.6771 106.974C33.2552 105.698 32.9791 104.37 32.7916 103.042C32.5364 101.016 32.4427 98.901 32.3698 96.849C32.2552 93.5 32.1146 90.0573 31.1562 86.7969C30.4114 84.3542 29.2917 82.0469 27.8229 79.9531C31.25 82.5833 34.2396 85.5885 36.125 89.4271C37.6198 92.4271 38.3437 95.7812 39.0417 99.0417C39.4167 100.807 39.8385 102.672 40.375 104.464ZM25.8854 78C25.4896 77.7187 25.1146 77.4635 24.7187 77.2083C24.5781 76.8333 24.4166 76.4635 24.25 76.1146C24.7916 76.7187 25.3489 77.349 25.8854 78ZM22.6406 73.8802C22.3177 73.5521 21.9687 73.2292 21.6146 72.901C21.5208 72.5052 21.4271 72.1094 21.3385 71.7396C21.8021 72.4375 22.2239 73.1562 22.6406 73.8802ZM19.3542 68.1094C19.3281 67.7135 19.3073 67.2917 19.2812 66.8958C19.6094 67.6667 19.8906 68.4583 20.1719 69.25C19.9114 68.875 19.6354 68.4792 19.3542 68.1094ZM8.31769 33.5C9.3229 32.3594 10.3489 31.2396 11.375 30.1458L11.8854 29.5885C10.3958 36.151 12.2396 43.3437 14.3854 49.7917C14.5937 50.3698 14.7812 50.9531 14.9896 51.5573C16.4114 55.75 17.8594 60.0312 18.5364 64.3125C17.3958 61.8906 16.0885 59.5208 14.8021 57.1667L13.9167 55.5365C10.2552 48.7656 6.8229 40.9896 8.31769 33.5ZM12.7292 28.0729C12.8437 27.724 12.9635 27.3542 13.125 27.0052C13.7292 26.5156 14.3385 26.0521 14.9427 25.5833C14.2187 26.4427 13.4739 27.2812 12.7292 28.0729ZM17.1823 23.349C17.5573 22.8385 17.9323 22.3281 18.2812 21.8125C19.1667 21.3021 20.0781 20.8125 20.9635 20.349C19.75 21.3958 18.4687 22.3958 17.1823 23.349ZM27.8698 16.276C26.4687 17.0885 25.0208 17.8333 23.5989 18.5781C24.0677 18.1354 24.5104 17.6927 24.9531 17.25C25.9114 16.901 26.8906 16.5781 27.8698 16.276ZM30.7396 14.9479C31.276 14.599 31.7864 14.25 32.3021 13.875C33.3021 13.7135 34.3333 13.5521 35.3333 13.4115C33.8177 13.9948 32.276 14.4844 30.7396 14.9479ZM38.4114 12.6198C40.3021 11.8073 42.1719 10.875 43.9635 10.0156C45.1302 9.45312 46.3229 8.875 47.5104 8.3125C49.3542 7.45312 51.2917 6.54687 53.3229 5.77604C54.0469 6.72916 54.6719 7.7552 55.1667 8.82812C54.1614 9.10416 53.1562 9.38541 52.1771 9.66666C49.7031 10.3854 47.1614 11.1094 44.5937 11.6406C42.5885 12.0833 40.4687 12.3646 38.4114 12.6198ZM57.2656 16.3437C57.2396 13.8542 56.7292 11.3854 55.75 9.10416L56.0989 9.01041C58.0573 8.47916 60.1354 7.91666 62.2552 7.52083C63.9114 10.6406 64.5417 14.599 63.8906 18.5573C62.9583 24.2812 59.8542 29.3073 56.9375 33.4531C56.0989 34.6354 55.2344 35.8229 54.3958 36.9635C51.9896 40.2448 49.4948 43.6198 47.6302 47.3229C46.276 49.974 45.4114 52.5365 45.0156 54.9583C45.0833 52.4687 45.4844 50 46.2292 47.625C47.4167 43.7135 49.2604 39.9427 51.0573 36.3125C51.6875 35.0312 52.3437 33.7083 52.9479 32.401C55.1406 27.75 57.3333 22.2083 57.2656 16.3437ZM47.1875 98.2969C50.2396 92.3802 48.6094 85.2604 46.3906 78.4427L46.3437 78.3021C44.2239 71.8333 42.0312 65.1302 44.2448 58.9115C44.2239 59.0781 44.1771 59.2135 44.151 59.3802C42.9844 66.0573 46.5104 72.6458 49.6094 78.4635L49.6823 78.6042C53.0156 84.8437 55.8385 91.5 53.9062 97.6875C52.4583 102.323 48.6302 106 42.4739 108.677C41.8437 107.49 41.3281 106.229 40.9323 104.953C40.9114 104.859 40.8646 104.74 40.8385 104.646C43.7083 103.021 45.8333 100.88 47.1875 98.2969ZM47.9792 47.4635C49.8437 43.8073 52.3177 40.4323 54.7187 37.1771C55.5625 36.0365 56.4219 34.849 57.2656 33.6615C60.2031 29.4687 63.3542 24.3958 64.2864 18.6042C64.9375 14.599 64.3073 10.6198 62.651 7.43229C64.5677 7.05729 66.5 6.84895 68.4635 6.82291H68.7187C71.6354 10.6667 72.3125 16.4844 70.4219 21.8854C68.5104 27.3542 64.5677 31.776 60.9739 35.3385C59.9479 36.3594 58.8958 37.3594 57.8698 38.3594C54.9323 41.1771 51.8958 44.0885 49.401 47.3906C47.6042 49.7917 46.2969 52.1406 45.5052 54.4687C45.9948 52.026 46.8333 49.6719 47.9792 47.4635ZM62.0469 7.10416C59.9687 7.5 57.9167 8.05729 55.9792 8.59375L55.5833 8.70833C55.0937 7.61458 54.4635 6.5677 53.7396 5.61458C55.6302 4.89062 57.5885 4.33333 59.5989 3.98437C60.5521 4.89062 61.3958 5.9427 62.0469 7.10416ZM53.0625 5.42708C51.0833 6.19791 49.1667 7.07812 47.3489 7.9427C46.1614 8.5 44.9687 9.08333 43.8021 9.64062C41.5625 10.7344 39.276 11.8542 36.9427 12.8073C35.6614 12.9687 34.375 13.1302 33.0937 13.3437C34.0052 12.6875 34.8906 12.0365 35.776 11.4115C36.8021 10.6667 37.875 9.875 38.9479 9.1302C42.2864 6.80208 45.9479 4.21874 50.0781 2.77604C51.1979 3.49479 52.2031 4.3802 53.0625 5.42708ZM28.1041 14.8073C29.1771 14.5052 30.25 14.2708 31.3437 14.0625C30.6667 14.526 29.9896 14.9687 29.3125 15.3906C28.1041 15.7865 26.8646 16.1562 25.651 16.5781C26.1198 16.0885 26.6094 15.625 27.0729 15.1354C27.3802 15.0156 27.7291 14.901 28.1041 14.8073ZM20.9635 18.8802C21.9687 18.3906 22.9948 17.974 24.0208 17.5781C23.4375 18.1354 22.8541 18.6927 22.2708 19.2292C21.125 19.8125 19.9844 20.4167 18.8385 21.0469C19.2344 20.4844 19.6094 19.9271 19.9844 19.3698C20.2864 19.2083 20.6354 19.0417 20.9635 18.8802ZM14.6406 24.1406C15.5521 23.4896 16.4844 22.8854 17.4427 22.3281C16.9739 22.9792 16.4844 23.6302 15.9948 24.2812C15.1562 24.9323 14.2917 25.5625 13.4531 26.2344C13.6146 25.8646 13.8021 25.4896 13.9896 25.1198C14.151 24.8385 14.3125 24.5365 14.4792 24.2552L14.6406 24.1406ZM9.34373 30.401C10.3489 29.401 11.3958 28.4219 12.4948 27.5417C12.3542 27.9323 12.2135 28.375 12.0989 28.7969L11.0729 29.8906C10.2083 30.7969 9.34373 31.7292 8.50519 32.6823C8.59894 32.2865 8.71352 31.8906 8.85415 31.4948C8.9479 31.1927 9.06248 30.8698 9.18227 30.5625L9.34373 30.401ZM8.47915 31.3542C8.27082 32.0104 8.10936 32.6615 7.96873 33.3125C7.05728 34.3594 6.17186 35.4531 5.38019 36.5677C5.58852 35.8021 5.86977 35.0312 6.17186 34.2865C6.89582 33.2396 7.66665 32.2656 8.50519 31.3073L8.47915 31.3542ZM5.21352 37.4792C6.03123 36.3125 6.89582 35.1719 7.80727 34.1042C6.61457 41.5052 9.97394 49.0937 13.5677 55.6771L14.4531 57.3073C15.9687 60.0521 17.4844 62.8229 18.7448 65.6615C18.8177 66.2708 18.8646 66.8958 18.9114 67.5C17.7187 65.9167 16.4844 64.3854 15.2448 62.8229L14.0833 61.3802C8.88019 54.8385 3.72394 47.0208 4.93748 38.5937C4.98436 38.2708 5.03123 37.9427 5.09894 37.6146L5.21352 37.4792ZM19.375 68.8281C19.7969 69.4115 20.2187 70.0156 20.6146 70.599C20.8021 71.1771 20.9635 71.7865 21.1042 72.3906C20.5208 71.8333 19.9114 71.2969 19.3281 70.7604C19.3542 70.1094 19.375 69.4792 19.375 68.8281ZM21.2448 73.1094C21.3854 73.8073 21.5 74.5312 21.5937 75.25C20.7552 74.7187 19.8906 74.2031 19.026 73.6927L18.9114 73.625C19.0729 72.8542 19.1667 72.0625 19.2344 71.2969C19.9375 71.875 20.5885 72.4844 21.2448 73.1094ZM21.7552 73.599C22.2708 74.1094 22.7812 74.625 23.2969 75.1354C23.5781 75.6927 23.8333 76.2552 24.0885 76.8125C23.4114 76.3698 22.7344 75.9531 22.0573 75.5104C21.9896 74.8542 21.875 74.2292 21.7552 73.599ZM25.0937 99.7135C25.1875 97.6667 25.4896 95.5729 25.7708 93.5469C26.2344 90.2396 26.7031 86.7969 26.3281 83.4219C26.1198 81.5156 25.651 79.651 24.9739 77.8802C25.5833 78.276 26.1666 78.6979 26.75 79.1146C28.5208 81.4687 29.9219 84.026 30.7604 86.8646C31.7187 90.0781 31.8333 93.5208 31.9531 96.8281C32.0208 98.875 32.1146 100.995 32.3698 103.068C32.5573 104.417 32.8385 105.745 33.2552 107.047C31.25 107.51 29.2239 107.812 27.1927 108.021C26.9375 108.047 26.6771 108.068 26.401 108.094C25.3281 105.464 24.9739 102.411 25.0937 99.7135ZM33.7969 107.349C36.125 106.812 38.3646 105.974 40.4896 104.859C40.5156 104.927 40.5364 105 40.5625 105.068C40.9792 106.37 41.4948 107.625 42.125 108.839C40.2344 109.63 38.2969 110.302 36.3125 110.839C36.0573 110.911 35.8021 110.979 35.5416 111.047C34.8229 109.885 34.2396 108.651 33.7969 107.349ZM36.4062 111.234C38.4114 110.677 40.375 110 42.3073 109.208C42.9635 110.422 43.7552 111.536 44.6667 112.562C42.8906 113.354 40.8646 114.12 38.7656 114.516C37.5729 113.677 36.5729 112.63 35.776 111.422L36.4062 111.234ZM42.6823 109.026C48.9114 106.276 52.8073 102.505 54.3021 97.7812C56.2864 91.4271 53.4375 84.7031 50.0573 78.3698L49.9844 78.2292C46.7656 72.2292 43.4531 65.9896 44.5469 59.4948C44.5469 59.6562 44.5469 59.7969 44.5469 59.9583C44.5729 66.7344 49.1667 72.6198 53.25 77.8125L53.3437 77.9271C57.7292 83.5156 61.651 89.5417 60.8125 95.9896C59.9948 102.25 54.9323 107.625 45.7604 112.005C45.5312 112.12 45.2969 112.234 45.0417 112.328C44.1302 111.349 43.3385 110.234 42.6823 109.026ZM45.9479 112.401C55.2552 107.953 60.3906 102.458 61.2292 96.0625C62.0937 89.474 58.1042 83.3281 53.6719 77.6979L53.5781 77.5781C49.3542 72.2031 45.0156 66.6615 44.9687 60.0781C44.9948 60.2396 45.0156 60.3802 45.0417 60.5417C46.2292 67.1979 51.8073 72.2031 56.7031 76.6042L56.8229 76.6979C62.0937 81.4219 67.0156 86.7031 67.3177 93.1979C67.5989 99.4792 63.5625 105.672 55.2812 111.583C53.4844 112.865 51.2448 114.307 48.8177 115.214C47.5104 114.589 46.3437 113.75 45.3437 112.677L45.9479 112.401ZM73.6667 7.03645C72.125 6.66145 70.5364 6.45312 68.9271 6.42708C68.8333 6.3125 68.7187 6.17187 68.625 6.05729C67.9479 5.26562 67.1771 4.5677 66.3385 3.98437C69.1406 4.45312 71.6562 5.52083 73.6667 7.03645ZM64.4739 3.33333C62.8854 3.21874 61.276 3.28645 59.7135 3.54166C59.5989 3.42708 59.4792 3.33333 59.3385 3.23958C58.5469 2.5677 57.6614 2.0052 56.7292 1.58854C59.5729 1.58854 62.2344 2.1927 64.4739 3.33333ZM50.1458 0.60937C51.7344 0.60937 53.2969 0.817703 54.7917 1.28645C53.2031 1.44791 51.6406 1.79687 50.1458 2.30729C50.0104 2.21874 49.8698 2.14583 49.75 2.05208C48.8437 1.54166 47.8854 1.16666 46.8802 0.89062C47.9323 0.70312 49.0521 0.60937 50.1458 0.60937ZM22.901 15.0885C26.1198 10.4792 29.7812 5.26562 35.4271 2.60937C38.5989 1.11979 41.8906 0.588536 44.901 0.937495C38.8594 2.63541 34.3542 7.125 30.3646 11.1094C29.4323 12.0365 28.5208 12.9948 27.6146 13.9219L26.7969 14.7865C24.9531 15.3906 23.1562 16.1823 21.4739 17.1354C21.9687 16.4375 22.4323 15.7604 22.901 15.0885ZM20.0781 18.5104L19.7031 19.0677C19.2344 19.3229 18.7708 19.5781 18.3281 19.8333C18.8646 19.3906 19.4479 18.9271 20.0781 18.5104ZM15.0833 22.651C14.9427 22.8385 14.8021 23.026 14.6614 23.2083C14.5 23.4427 14.3385 23.6979 14.1719 23.9531C13.4739 24.4687 12.8229 25 12.1927 25.5365C13.0781 24.5156 14.0364 23.5365 15.0833 22.651ZM9.5104 28.8906C9.39061 29.099 9.29686 29.3073 9.20311 29.5156C9.08853 29.7969 8.97394 30.0521 8.85415 30.3333C8.27082 30.9583 7.71353 31.5885 7.17707 32.2396C7.85415 31.0312 8.61977 29.9115 9.5104 28.8906ZM5.09894 35.9635C5.03123 36.1979 4.95832 36.4062 4.91144 36.6406C4.84373 36.9167 4.77082 37.224 4.70311 37.5C4.23436 38.224 3.79165 38.9427 3.37498 39.6667C3.83852 38.3854 4.42186 37.151 5.09894 35.9635ZM17.4427 72.7135C10.3229 68.3385 2.79165 62.776 1.04165 54.4219C0.901024 53.7917 0.807276 53.1406 0.7604 52.5104C0.505192 49.6979 0.947899 46.6927 2.02082 43.6927C1.99477 43.9271 1.97394 44.1562 1.9479 44.3906C1.90102 45.0417 1.88019 45.7187 1.90102 46.3698C2.18228 55.026 8.69269 61.9167 15.0156 67.5C15.4792 67.8958 15.9479 68.3177 16.4114 68.7135C17.2552 69.4323 18.0677 70.1771 18.9114 70.901C18.8385 71.7135 18.7448 72.5312 18.5833 73.3437L17.4427 72.7135ZM12.9635 104.604C9.24998 100.573 10.0469 94.1042 12.0052 89.3802C12.7969 87.474 13.8021 85.6094 14.7552 83.8177C16.3229 80.8594 17.9531 77.8125 18.7448 74.5052C18.7917 74.3437 18.8177 74.1823 18.8646 74.0417C19.7969 74.599 20.7552 75.1823 21.6875 75.7656C21.8021 76.9271 21.8281 78.1146 21.7552 79.2812C21.5469 82.6302 20.4739 85.8906 19.4687 89.0521C18.8385 91.0104 18.1875 93.0365 17.7187 95.0573C16.8125 99.1302 16.8594 104.229 19.2344 107.859C16.8594 107.37 14.6406 106.417 12.9635 104.604ZM20.125 108.417C21.2187 108.557 22.3385 108.63 23.4583 108.63C24.3906 108.63 25.3021 108.583 26.1406 108.51C26.6771 109.818 27.4479 111 28.4062 112.052C26.026 112.005 23.6458 111.443 21.6875 109.932C21.1041 109.49 20.5677 108.979 20.125 108.417ZM31.2031 113.677C30.5521 113.354 29.9427 112.932 29.4062 112.448C31.4167 112.354 33.4219 112.026 35.3594 111.516C36.125 112.703 37.0833 113.75 38.2031 114.589C35.8489 114.958 33.3958 114.818 31.2031 113.677ZM41.2344 115.729C40.5364 115.516 39.8594 115.214 39.2552 114.818C41.2135 114.375 43.125 113.724 44.9479 112.865C45.901 113.891 47.0208 114.75 48.2812 115.401C46.0208 116.172 43.5937 116.448 41.2344 115.729ZM59.875 74.7865L60.0156 74.8802C66.0364 78.625 71.8229 82.9583 73.2448 89.3125C74.6198 95.4531 71.7031 102.25 64.5885 109.49C61.5104 112.609 56.8229 116.703 51.4792 116.005C50.7552 115.911 50.0312 115.729 49.3542 115.469C51.6875 114.542 53.8125 113.167 55.5156 111.932C63.9114 105.953 68.0208 99.6458 67.7135 93.1979C67.4114 86.5625 62.4219 81.2083 57.0781 76.4167L56.9583 76.3021C51.875 71.7396 46.625 67.0365 45.4375 60.5417C45.4844 60.6823 45.5312 60.8437 45.5781 60.9844C47.9062 67.3385 54.2552 71.2969 59.875 74.7865ZM81.2917 31.7292C77.6302 36.2187 72.4062 39.0156 67.8073 41.1562C66.5 41.7604 65.151 42.3646 63.8437 42.9219C60.1094 44.5521 56.2604 46.25 52.8073 48.5104C50.3125 50.1406 48.2604 51.9062 46.7187 53.8177C48.026 51.6979 49.6094 49.7656 51.4531 48.0885C54.4635 45.2969 57.9427 42.9687 61.3021 40.7135C62.4896 39.9219 63.7031 39.1042 64.8906 38.2708C69.0937 35.3385 73.7812 31.6562 76.6719 26.5156C79.6823 21.1615 79.9167 14.8333 77.2812 10.4115C76.7448 9.52604 76.1146 8.6875 75.3906 7.96354C79.8489 9.57291 83.2552 12.6198 84.651 16.3437C86.401 21.0677 85.0729 27.099 81.2917 31.7292Z" fill="#A0E4B0"/>
</g>
<path d="M105.955 76.1137C112.767 76.1137 117.189 72.9731 117.189 68.1814C117.189 63.8689 113.57 60.9366 106.59 59.5512C100.84 58.4366 98.8717 57.3169 98.8717 54.9731C98.8717 52.5252 101.215 51.0356 105.21 51.0356C109.413 51.0356 111.919 52.6866 112.236 55.7179H116.658C116.283 50.2908 111.971 47.0929 105.153 47.0929C98.4967 47.0929 94.455 50.0252 94.455 54.9731C94.455 59.3429 97.8092 62.0044 104.939 63.1762C110.32 64.0773 112.767 65.5721 112.767 68.0721C112.767 70.5773 110.215 72.1189 106.007 72.1189C101.267 72.1189 98.4446 70.0981 98.2883 66.7439H93.8665C93.9758 72.3846 98.7102 76.1137 105.955 76.1137Z" fill="white"/>
<path d="M134.068 75.8481C138.537 75.8481 142.052 74.4106 144.557 71.5877L145.037 75.421H148.709V57.8481C148.709 51.4627 143.865 47.0929 136.62 47.0929C130.604 47.0929 126.078 50.3429 124.854 55.6658H129.38C130.287 52.9523 133.11 51.2491 136.677 51.2491C141.36 51.2491 144.235 53.8585 144.235 58.171V59.1814H132.948C127.198 59.1814 123.417 62.4314 123.417 67.4366C123.417 72.6502 127.412 75.8481 134.068 75.8481ZM127.891 67.3794C127.891 64.77 130.021 63.1189 133.11 63.1189H144.292C144.13 68.2335 139.974 71.8533 134.224 71.8533C130.339 71.8533 127.891 70.0981 127.891 67.3794Z" fill="white"/>
<path d="M158.027 75.421H162.501V60.7231C162.501 55.0252 165.694 51.3533 170.486 51.3533C175.116 51.3533 178.048 54.8689 178.048 60.3533V75.421H182.517V60.7231C182.517 55.0252 185.715 51.3533 190.506 51.3533C195.137 51.3533 198.069 54.8689 198.069 60.3533V75.421H202.538V59.6085C202.538 51.8846 198.069 47.0929 191.09 47.0929C186.621 47.0929 182.996 49.0096 180.814 52.5252C178.954 48.9575 175.543 47.0929 171.126 47.0929C167.293 47.0929 164.204 48.5304 162.126 51.2491L161.699 47.7856H158.027V75.421Z" fill="white"/>
<path d="M226.978 76.1137C235.124 76.1137 241.035 69.9887 241.035 61.5773C241.035 53.2179 235.124 47.0929 226.978 47.0929C222.452 47.0929 218.619 48.9575 216.113 52.046L215.582 47.7856H211.91V86.0721H216.384V71.4783C218.884 74.3585 222.613 76.1137 226.978 76.1137ZM216.223 61.5773C216.223 55.6137 220.426 51.3533 226.389 51.3533C232.41 51.3533 236.561 55.6137 236.561 61.5773C236.561 67.5929 232.41 71.8012 226.389 71.8012C220.426 71.8012 216.223 67.5929 216.223 61.5773Z" fill="white"/>
<path d="M248.755 75.421H253.229V36.02H248.755V75.421Z" fill="white"/>
<path d="M273.142 76.1137C279.954 76.1137 284.376 72.9731 284.376 68.1814C284.376 63.8689 280.756 60.9366 273.777 59.5512C268.027 58.4366 266.058 57.3169 266.058 54.9731C266.058 52.5252 268.402 51.0356 272.397 51.0356C276.6 51.0356 279.105 52.6866 279.423 55.7179H283.845C283.47 50.2908 279.157 47.0929 272.339 47.0929C265.683 47.0929 261.642 50.0252 261.642 54.9731C261.642 59.3429 264.996 62.0044 272.126 63.1762C277.506 64.0773 279.954 65.5721 279.954 68.0721C279.954 70.5773 277.402 72.1189 273.194 72.1189C268.454 72.1189 265.631 70.0981 265.475 66.7439H261.053C261.162 72.3846 265.897 76.1137 273.142 76.1137Z" fill="white"/>
<path d="M304.129 75.421H308.281V71.1085H304.343C300.666 71.1085 298.963 69.2439 298.963 65.2491V51.8846H307.911V47.7856H298.963V40.9158H295.504L295.077 44.645C294.754 47.145 294.01 47.7856 291.458 47.7856H288.687V51.8846H294.489V65.4627C294.489 71.8012 298.004 75.421 304.129 75.421Z" fill="white"/>
<path d="M324.895 75.8481C329.364 75.8481 332.879 74.4106 335.385 71.5877L335.864 75.421H339.536V57.8481C339.536 51.4627 334.692 47.0929 327.447 47.0929C321.431 47.0929 316.905 50.3429 315.681 55.6658H320.207C321.114 52.9523 323.937 51.2491 327.504 51.2491C332.187 51.2491 335.062 53.8585 335.062 58.171V59.1814H323.775C318.025 59.1814 314.244 62.4314 314.244 67.4366C314.244 72.6502 318.239 75.8481 324.895 75.8481ZM318.718 67.3794C318.718 64.77 320.848 63.1189 323.937 63.1189H335.119C334.957 68.2335 330.801 71.8533 325.051 71.8533C321.166 71.8533 318.718 70.0981 318.718 67.3794Z" fill="white"/>
<path d="M348.854 75.421H353.328V63.4939H356.625C357.906 63.4939 359.078 63.4418 360.141 63.2283L367.755 75.421H373.078L364.453 61.7387C366.479 60.4575 367.917 58.3845 369.031 55.3481L371.802 47.7856H367.01L364.932 53.697C363.391 58.171 361.26 59.3429 356.787 59.3429H353.328V36.02H348.854V75.421Z" fill="white"/>
<path d="M129.868 114.169V100.171H135.39C136.447 100.171 137.349 100.36 138.097 100.739C138.848 101.112 139.42 101.643 139.812 102.331C140.209 103.015 140.407 103.819 140.407 104.744C140.407 105.673 140.206 106.473 139.805 107.143C139.404 107.808 138.823 108.318 138.062 108.674C137.306 109.029 136.39 109.207 135.315 109.207H131.617V106.828H134.836C135.401 106.828 135.871 106.751 136.244 106.596C136.618 106.441 136.896 106.209 137.078 105.899C137.265 105.589 137.358 105.204 137.358 104.744C137.358 104.279 137.265 103.887 137.078 103.568C136.896 103.249 136.616 103.008 136.238 102.844C135.864 102.675 135.392 102.591 134.823 102.591H132.827V114.169H129.868ZM137.427 107.799L140.906 114.169H137.639L134.235 107.799H137.427ZM147.059 114.374C145.979 114.374 145.049 114.155 144.27 113.718C143.495 113.276 142.899 112.652 142.479 111.845C142.06 111.034 141.851 110.075 141.851 108.968C141.851 107.888 142.06 106.94 142.479 106.124C142.899 105.309 143.489 104.673 144.25 104.218C145.015 103.762 145.913 103.534 146.942 103.534C147.635 103.534 148.28 103.646 148.877 103.869C149.478 104.088 150.002 104.418 150.449 104.86C150.9 105.302 151.251 105.858 151.501 106.528C151.752 107.193 151.877 107.972 151.877 108.865V109.665H143.012V107.86H149.136C149.136 107.441 149.045 107.07 148.863 106.746C148.681 106.423 148.428 106.17 148.104 105.988C147.785 105.801 147.414 105.708 146.99 105.708C146.548 105.708 146.156 105.81 145.815 106.015C145.478 106.216 145.213 106.487 145.022 106.828C144.831 107.166 144.733 107.541 144.728 107.956V109.672C144.728 110.191 144.824 110.64 145.015 111.018C145.211 111.396 145.487 111.688 145.842 111.893C146.197 112.098 146.619 112.201 147.106 112.201C147.43 112.201 147.726 112.155 147.995 112.064C148.264 111.973 148.494 111.836 148.685 111.654C148.877 111.471 149.023 111.248 149.123 110.984L151.816 111.162C151.679 111.809 151.399 112.374 150.975 112.857C150.556 113.335 150.014 113.709 149.348 113.978C148.688 114.242 147.924 114.374 147.059 114.374ZM158.507 118.324C157.564 118.324 156.755 118.195 156.081 117.935C155.411 117.68 154.878 117.331 154.481 116.889C154.085 116.447 153.827 115.951 153.709 115.399L156.402 115.037C156.484 115.247 156.614 115.442 156.791 115.625C156.969 115.807 157.204 115.953 157.495 116.062C157.791 116.176 158.151 116.233 158.575 116.233C159.209 116.233 159.73 116.078 160.14 115.768C160.555 115.463 160.762 114.95 160.762 114.23V112.31H160.639C160.512 112.601 160.32 112.877 160.065 113.137C159.81 113.397 159.482 113.608 159.081 113.773C158.68 113.937 158.202 114.019 157.646 114.019C156.857 114.019 156.14 113.836 155.493 113.472C154.85 113.103 154.338 112.54 153.955 111.784C153.577 111.023 153.388 110.061 153.388 108.899C153.388 107.71 153.581 106.717 153.969 105.919C154.356 105.122 154.871 104.525 155.513 104.129C156.16 103.732 156.869 103.534 157.639 103.534C158.227 103.534 158.719 103.634 159.115 103.835C159.512 104.031 159.831 104.277 160.072 104.573C160.318 104.865 160.507 105.152 160.639 105.434H160.749V103.671H163.64V114.271C163.64 115.165 163.421 115.912 162.984 116.513C162.546 117.115 161.94 117.566 161.166 117.867C160.396 118.172 159.509 118.324 158.507 118.324ZM158.568 111.831C159.038 111.831 159.434 111.715 159.758 111.483C160.086 111.246 160.336 110.909 160.509 110.471C160.687 110.029 160.776 109.501 160.776 108.886C160.776 108.271 160.689 107.737 160.516 107.286C160.343 106.831 160.093 106.478 159.764 106.227C159.436 105.976 159.038 105.851 158.568 105.851C158.09 105.851 157.687 105.981 157.359 106.241C157.031 106.496 156.782 106.851 156.614 107.307C156.445 107.762 156.361 108.289 156.361 108.886C156.361 109.492 156.445 110.016 156.614 110.458C156.787 110.895 157.035 111.235 157.359 111.476C157.687 111.713 158.09 111.831 158.568 111.831ZM165.957 114.169V103.671H168.868V114.169H165.957ZM167.419 102.317C166.986 102.317 166.615 102.174 166.305 101.887C166 101.595 165.847 101.247 165.847 100.841C165.847 100.44 166 100.096 166.305 99.8091C166.615 99.5175 166.986 99.3717 167.419 99.3717C167.852 99.3717 168.221 99.5175 168.527 99.8091C168.836 100.096 168.991 100.44 168.991 100.841C168.991 101.247 168.836 101.595 168.527 101.887C168.221 102.174 167.852 102.317 167.419 102.317ZM179.935 106.664L177.27 106.828C177.224 106.601 177.126 106.396 176.976 106.213C176.826 106.026 176.627 105.878 176.381 105.769C176.14 105.655 175.851 105.598 175.513 105.598C175.062 105.598 174.682 105.694 174.372 105.885C174.062 106.072 173.907 106.323 173.907 106.637C173.907 106.888 174.007 107.1 174.208 107.273C174.408 107.446 174.752 107.585 175.24 107.69L177.14 108.072C178.161 108.282 178.922 108.619 179.423 109.084C179.924 109.549 180.175 110.159 180.175 110.916C180.175 111.604 179.972 112.207 179.566 112.727C179.165 113.246 178.614 113.652 177.912 113.943C177.215 114.23 176.411 114.374 175.5 114.374C174.11 114.374 173.003 114.085 172.178 113.506C171.358 112.923 170.877 112.13 170.736 111.127L173.6 110.977C173.686 111.401 173.896 111.724 174.228 111.948C174.561 112.166 174.987 112.276 175.507 112.276C176.017 112.276 176.427 112.178 176.737 111.982C177.051 111.781 177.211 111.524 177.215 111.209C177.211 110.945 177.099 110.729 176.88 110.56C176.662 110.387 176.324 110.255 175.869 110.164L174.051 109.802C173.026 109.596 172.262 109.241 171.761 108.735C171.264 108.23 171.016 107.585 171.016 106.801C171.016 106.127 171.198 105.546 171.563 105.058C171.932 104.571 172.449 104.195 173.114 103.93C173.784 103.666 174.568 103.534 175.466 103.534C176.791 103.534 177.835 103.814 178.596 104.375C179.361 104.935 179.808 105.698 179.935 106.664ZM187.592 103.671V105.858H181.27V103.671H187.592ZM182.705 101.156H185.617V110.943C185.617 111.212 185.658 111.421 185.74 111.572C185.822 111.718 185.936 111.82 186.082 111.879C186.232 111.939 186.405 111.968 186.601 111.968C186.738 111.968 186.874 111.957 187.011 111.934C187.148 111.907 187.253 111.886 187.326 111.872L187.783 114.039C187.638 114.085 187.433 114.137 187.168 114.196C186.904 114.26 186.583 114.299 186.205 114.312C185.503 114.34 184.888 114.246 184.359 114.032C183.835 113.818 183.427 113.485 183.136 113.034C182.844 112.583 182.701 112.014 182.705 111.326V101.156ZM194.16 114.374C193.08 114.374 192.151 114.155 191.372 113.718C190.597 113.276 190 112.652 189.581 111.845C189.162 111.034 188.952 110.075 188.952 108.968C188.952 107.888 189.162 106.94 189.581 106.124C190 105.309 190.59 104.673 191.351 104.218C192.117 103.762 193.014 103.534 194.044 103.534C194.737 103.534 195.381 103.646 195.978 103.869C196.58 104.088 197.104 104.418 197.55 104.86C198.001 105.302 198.352 105.858 198.603 106.528C198.853 107.193 198.979 107.972 198.979 108.865V109.665H190.114V107.86H196.238C196.238 107.441 196.147 107.07 195.965 106.746C195.782 106.423 195.529 106.17 195.206 105.988C194.887 105.801 194.516 105.708 194.092 105.708C193.65 105.708 193.258 105.81 192.916 106.015C192.579 106.216 192.315 106.487 192.123 106.828C191.932 107.166 191.834 107.541 191.83 107.956V109.672C191.83 110.191 191.925 110.64 192.117 111.018C192.313 111.396 192.588 111.688 192.944 111.893C193.299 112.098 193.721 112.201 194.208 112.201C194.532 112.201 194.828 112.155 195.097 112.064C195.365 111.973 195.596 111.836 195.787 111.654C195.978 111.471 196.124 111.248 196.224 110.984L198.917 111.162C198.781 111.809 198.5 112.374 198.077 112.857C197.657 113.335 197.115 113.709 196.45 113.978C195.789 114.242 195.026 114.374 194.16 114.374ZM200.879 114.169V103.671H203.702V105.502H203.811C204.002 104.851 204.324 104.359 204.775 104.026C205.226 103.689 205.745 103.52 206.333 103.52C206.479 103.52 206.636 103.53 206.805 103.548C206.973 103.566 207.121 103.591 207.249 103.623V106.206C207.112 106.165 206.923 106.129 206.681 106.097C206.44 106.065 206.219 106.049 206.019 106.049C205.59 106.049 205.207 106.143 204.87 106.329C204.538 106.512 204.273 106.767 204.077 107.095C203.886 107.423 203.79 107.801 203.79 108.23V114.169H200.879ZM216.202 114.367C215.532 114.367 214.936 114.251 214.412 114.019C213.888 113.782 213.473 113.433 213.168 112.973C212.867 112.508 212.717 111.929 212.717 111.237C212.717 110.654 212.824 110.164 213.038 109.767C213.252 109.371 213.544 109.052 213.913 108.81C214.282 108.569 214.701 108.387 215.17 108.264C215.644 108.141 216.141 108.054 216.66 108.004C217.271 107.94 217.763 107.881 218.137 107.826C218.51 107.767 218.781 107.68 218.95 107.567C219.118 107.453 219.203 107.284 219.203 107.061V107.02C219.203 106.587 219.066 106.252 218.793 106.015C218.524 105.778 218.141 105.66 217.644 105.66C217.12 105.66 216.703 105.776 216.394 106.008C216.084 106.236 215.879 106.523 215.779 106.869L213.086 106.651C213.222 106.013 213.491 105.461 213.892 104.997C214.293 104.527 214.81 104.167 215.444 103.917C216.082 103.662 216.82 103.534 217.658 103.534C218.241 103.534 218.799 103.602 219.333 103.739C219.87 103.876 220.346 104.088 220.761 104.375C221.18 104.662 221.511 105.031 221.752 105.482C221.994 105.928 222.114 106.464 222.114 107.088V114.169H219.353V112.713H219.271C219.102 113.041 218.877 113.331 218.594 113.581C218.312 113.827 217.972 114.021 217.576 114.162C217.18 114.299 216.722 114.367 216.202 114.367ZM217.036 112.358C217.464 112.358 217.843 112.273 218.171 112.105C218.499 111.932 218.756 111.699 218.943 111.408C219.13 111.116 219.223 110.786 219.223 110.417V109.303C219.132 109.362 219.007 109.416 218.847 109.467C218.692 109.512 218.517 109.555 218.321 109.596C218.125 109.633 217.929 109.667 217.733 109.699C217.537 109.726 217.36 109.751 217.2 109.774C216.858 109.824 216.56 109.904 216.305 110.013C216.05 110.123 215.851 110.271 215.71 110.458C215.569 110.64 215.498 110.868 215.498 111.141C215.498 111.538 215.642 111.841 215.929 112.05C216.22 112.255 216.59 112.358 217.036 112.358ZM231.739 108.1V114.169H228.828V103.671H231.603V105.523H231.726C231.958 104.912 232.348 104.429 232.894 104.074C233.441 103.714 234.104 103.534 234.883 103.534C235.612 103.534 236.248 103.694 236.79 104.012C237.332 104.331 237.754 104.787 238.055 105.379C238.355 105.967 238.506 106.669 238.506 107.485V114.169H235.594V108.004C235.599 107.362 235.435 106.86 235.102 106.5C234.769 106.136 234.311 105.954 233.728 105.954C233.336 105.954 232.99 106.038 232.689 106.206C232.393 106.375 232.161 106.621 231.992 106.945C231.828 107.264 231.744 107.649 231.739 108.1ZM245.585 114.374C244.505 114.374 243.575 114.155 242.796 113.718C242.022 113.276 241.425 112.652 241.006 111.845C240.586 111.034 240.377 110.075 240.377 108.968C240.377 107.888 240.586 106.94 241.006 106.124C241.425 105.309 242.015 104.673 242.776 104.218C243.541 103.762 244.439 103.534 245.469 103.534C246.161 103.534 246.806 103.646 247.403 103.869C248.004 104.088 248.528 104.418 248.975 104.86C249.426 105.302 249.777 105.858 250.027 106.528C250.278 107.193 250.403 107.972 250.403 108.865V109.665H241.539V107.86H247.663C247.663 107.441 247.571 107.07 247.389 106.746C247.207 106.423 246.954 106.17 246.631 105.988C246.312 105.801 245.94 105.708 245.516 105.708C245.074 105.708 244.683 105.81 244.341 106.015C244.004 106.216 243.739 106.487 243.548 106.828C243.357 107.166 243.259 107.541 243.254 107.956V109.672C243.254 110.191 243.35 110.64 243.541 111.018C243.737 111.396 244.013 111.688 244.368 111.893C244.724 112.098 245.145 112.201 245.633 112.201C245.956 112.201 246.252 112.155 246.521 112.064C246.79 111.973 247.02 111.836 247.211 111.654C247.403 111.471 247.549 111.248 247.649 110.984L250.342 111.162C250.205 111.809 249.925 112.374 249.501 112.857C249.082 113.335 248.54 113.709 247.874 113.978C247.214 114.242 246.451 114.374 245.585 114.374ZM254.299 114.169L251.442 103.671H254.388L256.015 110.724H256.11L257.805 103.671H260.696L262.419 110.683H262.508L264.107 103.671H267.046L264.196 114.169H261.113L259.309 107.567H259.179L257.375 114.169H254.299ZM276.047 114.367C275.377 114.367 274.781 114.251 274.257 114.019C273.733 113.782 273.318 113.433 273.013 112.973C272.712 112.508 272.562 111.929 272.562 111.237C272.562 110.654 272.669 110.164 272.883 109.767C273.097 109.371 273.389 109.052 273.758 108.81C274.127 108.569 274.546 108.387 275.015 108.264C275.489 108.141 275.986 108.054 276.505 108.004C277.116 107.94 277.608 107.881 277.981 107.826C278.355 107.767 278.626 107.68 278.795 107.567C278.963 107.453 279.048 107.284 279.048 107.061V107.02C279.048 106.587 278.911 106.252 278.638 106.015C278.369 105.778 277.986 105.66 277.489 105.66C276.965 105.66 276.548 105.776 276.239 106.008C275.929 106.236 275.724 106.523 275.623 106.869L272.931 106.651C273.067 106.013 273.336 105.461 273.737 104.997C274.138 104.527 274.655 104.167 275.289 103.917C275.926 103.662 276.665 103.534 277.503 103.534C278.086 103.534 278.644 103.602 279.178 103.739C279.715 103.876 280.191 104.088 280.606 104.375C281.025 104.662 281.356 105.031 281.597 105.482C281.839 105.928 281.959 106.464 281.959 107.088V114.169H279.198V112.713H279.116C278.947 113.041 278.722 113.331 278.439 113.581C278.157 113.827 277.817 114.021 277.421 114.162C277.025 114.299 276.567 114.367 276.047 114.367ZM276.881 112.358C277.309 112.358 277.688 112.273 278.016 112.105C278.344 111.932 278.601 111.699 278.788 111.408C278.975 111.116 279.068 110.786 279.068 110.417V109.303C278.977 109.362 278.852 109.416 278.692 109.467C278.537 109.512 278.362 109.555 278.166 109.596C277.97 109.633 277.774 109.667 277.578 109.699C277.382 109.726 277.205 109.751 277.045 109.774C276.703 109.824 276.405 109.904 276.15 110.013C275.895 110.123 275.696 110.271 275.555 110.458C275.414 110.64 275.343 110.868 275.343 111.141C275.343 111.538 275.487 111.841 275.774 112.05C276.065 112.255 276.435 112.358 276.881 112.358ZM288.961 114.374C287.886 114.374 286.961 114.146 286.187 113.69C285.417 113.23 284.824 112.592 284.41 111.777C283.999 110.961 283.794 110.023 283.794 108.961C283.794 107.886 284.002 106.942 284.416 106.131C284.836 105.316 285.43 104.68 286.2 104.224C286.97 103.764 287.886 103.534 288.948 103.534C289.864 103.534 290.666 103.7 291.354 104.033C292.042 104.366 292.586 104.833 292.987 105.434C293.388 106.036 293.609 106.742 293.65 107.553H290.903C290.825 107.029 290.62 106.607 290.287 106.288C289.959 105.965 289.529 105.803 288.996 105.803C288.545 105.803 288.15 105.926 287.813 106.172C287.481 106.414 287.221 106.767 287.034 107.232C286.847 107.696 286.754 108.259 286.754 108.92C286.754 109.59 286.845 110.159 287.027 110.629C287.214 111.098 287.476 111.456 287.813 111.702C288.15 111.948 288.545 112.071 288.996 112.071C289.328 112.071 289.627 112.002 289.891 111.866C290.16 111.729 290.381 111.531 290.554 111.271C290.732 111.007 290.848 110.69 290.903 110.321H293.65C293.605 111.123 293.386 111.829 292.994 112.44C292.607 113.046 292.071 113.52 291.388 113.861C290.704 114.203 289.896 114.374 288.961 114.374ZM300.258 114.374C299.182 114.374 298.257 114.146 297.483 113.69C296.713 113.23 296.12 112.592 295.706 111.777C295.296 110.961 295.091 110.023 295.091 108.961C295.091 107.886 295.298 106.942 295.712 106.131C296.132 105.316 296.726 104.68 297.496 104.224C298.266 103.764 299.182 103.534 300.244 103.534C301.16 103.534 301.962 103.7 302.65 104.033C303.338 104.366 303.882 104.833 304.283 105.434C304.684 106.036 304.905 106.742 304.946 107.553H302.199C302.121 107.029 301.916 106.607 301.584 106.288C301.255 105.965 300.825 105.803 300.292 105.803C299.841 105.803 299.447 105.926 299.109 106.172C298.777 106.414 298.517 106.767 298.33 107.232C298.143 107.696 298.05 108.259 298.05 108.92C298.05 109.59 298.141 110.159 298.323 110.629C298.51 111.098 298.772 111.456 299.109 111.702C299.447 111.948 299.841 112.071 300.292 112.071C300.624 112.071 300.923 112.002 301.187 111.866C301.456 111.729 301.677 111.531 301.85 111.271C302.028 111.007 302.144 110.69 302.199 110.321H304.946C304.901 111.123 304.682 111.829 304.29 112.44C303.903 113.046 303.367 113.52 302.684 113.861C302 114.203 301.192 114.374 300.258 114.374ZM311.554 114.374C310.492 114.374 309.574 114.148 308.799 113.697C308.029 113.242 307.435 112.608 307.015 111.797C306.596 110.982 306.387 110.036 306.387 108.961C306.387 107.876 306.596 106.929 307.015 106.118C307.435 105.302 308.029 104.669 308.799 104.218C309.574 103.762 310.492 103.534 311.554 103.534C312.615 103.534 313.531 103.762 314.301 104.218C315.076 104.669 315.673 105.302 316.092 106.118C316.511 106.929 316.721 107.876 316.721 108.961C316.721 110.036 316.511 110.982 316.092 111.797C315.673 112.608 315.076 113.242 314.301 113.697C313.531 114.148 312.615 114.374 311.554 114.374ZM311.567 112.118C312.05 112.118 312.454 111.982 312.777 111.708C313.101 111.43 313.344 111.052 313.508 110.574C313.677 110.095 313.761 109.551 313.761 108.94C313.761 108.33 313.677 107.785 313.508 107.307C313.344 106.828 313.101 106.45 312.777 106.172C312.454 105.894 312.05 105.755 311.567 105.755C311.08 105.755 310.67 105.894 310.337 106.172C310.009 106.45 309.761 106.828 309.592 107.307C309.428 107.785 309.346 108.33 309.346 108.94C309.346 109.551 309.428 110.095 309.592 110.574C309.761 111.052 310.009 111.43 310.337 111.708C310.67 111.982 311.08 112.118 311.567 112.118ZM325.346 109.699V103.671H328.258V114.169H325.462V112.262H325.353C325.116 112.877 324.722 113.372 324.171 113.745C323.624 114.119 322.956 114.306 322.168 114.306C321.466 114.306 320.849 114.146 320.316 113.827C319.783 113.508 319.366 113.055 319.065 112.467C318.769 111.879 318.619 111.175 318.614 110.355V103.671H321.526V109.836C321.53 110.455 321.696 110.945 322.025 111.305C322.353 111.665 322.792 111.845 323.344 111.845C323.694 111.845 324.023 111.765 324.328 111.606C324.633 111.442 324.879 111.2 325.066 110.881C325.257 110.562 325.351 110.168 325.346 109.699ZM333.498 108.1V114.169H330.587V103.671H333.362V105.523H333.485C333.717 104.912 334.107 104.429 334.653 104.074C335.2 103.714 335.863 103.534 336.642 103.534C337.371 103.534 338.007 103.694 338.549 104.012C339.091 104.331 339.513 104.787 339.814 105.379C340.114 105.967 340.265 106.669 340.265 107.485V114.169H337.353V108.004C337.358 107.362 337.194 106.86 336.861 106.5C336.528 106.136 336.07 105.954 335.487 105.954C335.095 105.954 334.749 106.038 334.448 106.206C334.152 106.375 333.92 106.621 333.751 106.945C333.587 107.264 333.503 107.649 333.498 108.1ZM348.143 103.671V105.858H341.821V103.671H348.143ZM343.257 101.156H346.168V110.943C346.168 111.212 346.209 111.421 346.291 111.572C346.373 111.718 346.487 111.82 346.633 111.879C346.783 111.939 346.957 111.968 347.152 111.968C347.289 111.968 347.426 111.957 347.563 111.934C347.699 111.907 347.804 111.886 347.877 111.872L348.335 114.039C348.189 114.085 347.984 114.137 347.72 114.196C347.455 114.26 347.134 114.299 346.756 114.312C346.054 114.34 345.439 114.246 344.911 114.032C344.387 113.818 343.979 113.485 343.687 113.034C343.396 112.583 343.252 112.014 343.257 111.326V101.156ZM351.742 114.347C351.291 114.347 350.904 114.187 350.58 113.868C350.261 113.545 350.102 113.157 350.102 112.706C350.102 112.26 350.261 111.877 350.58 111.558C350.904 111.239 351.291 111.08 351.742 111.08C352.179 111.08 352.562 111.239 352.89 111.558C353.218 111.877 353.382 112.26 353.382 112.706C353.382 113.007 353.305 113.283 353.15 113.533C353 113.779 352.801 113.978 352.555 114.128C352.309 114.274 352.038 114.347 351.742 114.347Z" fill="white"/>
</g>
<defs>
<clipPath id="clip0_86_644">
<rect width="374" height="120.169" fill="white"/>
</clipPath>
</defs>
</svg>
