<svg width="641" height="318" viewBox="0 0 641 318" fill="none" xmlns="http://www.w3.org/2000/svg">
<mask id="mask0_83_595" style="mask-type:luminance" maskUnits="userSpaceOnUse" x="100" y="100" width="87" height="117">
<path d="M100.349 100H186.667V216.703H100.349V100Z" fill="white"/>
</mask>
<g mask="url(#mask0_83_595)">
<path d="M185.375 116.229C183.833 112.156 179.984 108.849 175.016 107.312C172.661 105.266 169.463 103.891 165.87 103.448C163.187 101.844 159.807 101.052 156.187 101.214C153.276 100.099 149.797 99.8906 146.276 100.703C142.963 100.052 139.208 100.589 135.635 102.26C129.849 104.937 126.167 110.198 122.922 114.854C122.271 115.786 121.641 116.719 121.01 117.646C119.422 118.625 117.974 119.812 116.693 121.161C114.385 122.792 112.401 124.839 110.838 127.187C108.854 129.193 107.266 131.542 106.125 134.125C104.516 136.453 103.349 139.036 102.693 141.781C101.083 145.37 100.385 149.094 100.687 152.536C100.76 153.187 100.854 153.865 100.989 154.516C102.766 163.01 110.37 168.641 117.604 173.042L118.838 173.786C118.792 173.995 118.745 174.182 118.698 174.391C117.906 177.651 116.297 180.677 114.734 183.609C113.776 185.422 112.771 187.286 111.979 189.219C109.948 194.057 109.182 200.693 113.005 204.859C114.849 206.859 117.323 207.859 119.891 208.302C120.427 209.047 121.078 209.698 121.802 210.234C123.948 211.885 126.536 212.422 129.125 212.422H129.172C129.828 213.052 130.573 213.583 131.391 214.005C132.932 214.771 134.609 215.167 136.338 215.146C137.245 215.146 138.156 215.073 139.042 214.911C139.786 215.427 140.63 215.818 141.489 216.099C142.474 216.401 143.474 216.562 144.5 216.542C146.109 216.521 147.672 216.214 149.167 215.635C150.005 216.005 150.896 216.24 151.781 216.354C152.198 216.401 152.62 216.427 153.042 216.427C158.031 216.427 162.349 212.656 165.239 209.698C172.474 202.344 175.411 195.432 173.989 189.125C172.521 182.63 166.687 178.229 160.578 174.437L160.437 174.37C154.604 170.74 148.609 167.016 146.297 160.776C145.927 159.75 145.667 158.703 145.526 157.635C145.526 157.469 145.526 157.333 145.526 157.167C145.526 157.005 145.599 156.865 145.62 156.703C145.646 156.542 145.739 156.401 145.786 156.26C147.396 153.536 149.917 151.021 153.344 148.786C156.771 146.552 160.62 144.854 164.333 143.224C165.641 142.646 166.989 142.062 168.297 141.458C172.943 139.292 178.213 136.479 181.948 131.917C185.844 127.234 187.172 121.047 185.375 116.229ZM177.281 110.62C179.823 114.922 179.588 121.094 176.651 126.328C173.802 131.401 169.161 135.057 165.01 137.943C163.818 138.781 162.604 139.594 161.417 140.385C158.031 142.646 154.531 144.974 151.5 147.786C149.307 149.812 147.63 151.932 146.417 154.073C147.323 151.745 148.562 149.578 150.078 147.604C152.552 144.318 155.557 141.432 158.5 138.62C159.526 137.641 160.599 136.615 161.625 135.594C165.266 131.984 169.229 127.542 171.167 121.974C173.057 116.552 172.427 110.734 169.604 106.802C171.12 106.849 172.635 107.057 174.083 107.432C174.318 107.5 174.573 107.568 174.807 107.641C175.766 108.526 176.604 109.526 177.281 110.62ZM126.911 208.49L127.562 208.417C129.641 208.234 131.693 207.906 133.724 207.443C134.167 208.745 134.75 209.979 135.448 211.141C133.583 211.609 131.437 212.026 129.292 212.052C128.312 211.026 127.495 209.818 126.911 208.49ZM122.432 176.021C123.203 176.51 123.948 176.974 124.693 177.484C125.489 179.396 126 181.422 126.234 183.469C126.609 186.797 126.141 190.193 125.677 193.5C125.396 195.526 125.094 197.641 125 199.714C124.88 202.411 125.229 205.464 126.302 208.141C124.37 208.281 122.198 208.302 120.099 207.953C117.578 204.417 117.51 199.25 118.417 195.13C118.864 193.125 119.516 191.104 120.146 189.172C121.172 185.984 122.245 182.698 122.453 179.302C122.547 178.208 122.547 177.115 122.432 176.021ZM102.693 144.411C102.766 143.552 102.906 142.714 103.094 141.875C103.604 140.734 104.213 139.62 104.864 138.547V138.573C103.63 147.161 108.828 155.073 114.104 161.661L115.271 163.104C116.625 164.802 118 166.5 119.281 168.245C119.307 168.969 119.307 169.687 119.26 170.411C118.51 169.734 117.766 169.083 117.021 168.432C116.552 168.036 116.088 167.62 115.62 167.224C109.344 161.682 102.906 154.885 102.625 146.37C102.625 145.719 102.625 145.062 102.693 144.411ZM113.984 124.885L113.963 124.911C113.635 125.516 113.354 126.12 113.125 126.75C112.052 127.63 111 128.542 109.995 129.516C110.349 128.797 110.745 128.073 111.187 127.401C112.052 126.516 113.005 125.677 113.984 124.885ZM119.536 119.812C119.167 120.37 118.771 120.953 118.375 121.51C117.37 122.094 116.391 122.677 115.458 123.328C115.922 122.677 116.437 122.047 116.995 121.464C117.812 120.859 118.651 120.323 119.536 119.812ZM121.286 117.927C122.943 116.901 124.693 116.062 126.516 115.411C126.047 115.901 125.557 116.391 125.068 116.88C123.713 117.344 122.406 117.901 121.125 118.51L120.776 118.672L121.031 118.297L121.286 117.927ZM146.25 101.099C147.51 101.354 148.75 101.797 149.87 102.427L149.984 102.495C145.927 103.984 142.333 106.5 139.068 108.781C137.995 109.526 136.922 110.318 135.87 111.083C134.771 111.875 133.63 112.714 132.484 113.505C131.088 113.74 129.687 114.042 128.312 114.437C128.193 114.458 128.078 114.505 127.937 114.552L128.239 114.224C129.125 113.297 130.062 112.339 130.969 111.411C134.958 107.432 139.463 102.937 145.479 101.286C145.786 101.214 146.016 101.146 146.25 101.099ZM156.099 101.609C157.307 102.078 158.427 102.729 159.432 103.542L159.526 103.635C157.568 104.01 155.651 104.542 153.786 105.266C152.969 104.24 151.989 103.333 150.917 102.589C152.364 102.125 153.859 101.797 155.349 101.656C155.604 101.635 155.864 101.635 156.099 101.609ZM165.708 103.823C166.807 104.495 167.807 105.333 168.646 106.292L168.739 106.406C166.76 106.427 164.75 106.641 162.818 107.036C162.187 105.87 161.391 104.823 160.458 103.891C161.437 103.75 162.417 103.682 163.401 103.682C163.937 103.682 164.448 103.708 164.984 103.75C165.219 103.776 165.474 103.797 165.708 103.823ZM139.786 198.922C139.088 195.667 138.364 192.266 136.849 189.219C134.703 184.911 131.276 181.651 127.38 178.812C126.328 177.443 125.208 176.115 123.995 174.88C123.203 173.344 122.318 171.854 121.333 170.411C120.823 168.76 120.213 167.13 119.495 165.547C118.911 160.776 117.297 156.026 115.734 151.375L115.13 149.604C112.911 142.995 111.026 135.568 112.818 128.937C114.078 127.562 115.338 126.141 116.505 124.677L116.646 124.516L117.042 124.187C118.932 122.766 120.891 121.276 122.687 119.672L122.854 119.531L123.318 119.302C125.443 118.229 127.609 117.115 129.661 115.833L129.849 115.714L130.364 115.552C132.625 114.854 134.984 114.135 137.224 113.224L137.432 113.156L137.948 113.083C140.302 112.781 142.729 112.479 145.083 111.99C147.651 111.432 150.219 110.714 152.693 109.99C153.693 109.708 154.698 109.406 155.724 109.13C156.703 111.385 157.219 113.807 157.239 116.276C157.307 122.068 155.114 127.562 152.969 132.146C152.364 133.453 151.708 134.776 151.078 136.057C149.286 139.687 147.417 143.458 146.203 147.417C145.156 150.839 144.781 153.979 145.036 156.818C144.734 157.401 144.479 158.005 144.245 158.609C141.937 164.99 144.271 172.089 146.297 178.349L146.344 178.49C148.536 185.214 150.172 192.245 147.182 198.016C145.88 200.531 143.849 202.578 141.073 204.161C140.557 202.484 140.161 200.693 139.786 198.922ZM140.724 204.464C138.599 205.578 136.359 206.417 134.026 206.974C133.604 205.698 133.328 204.37 133.141 203.042C132.885 201.016 132.792 198.901 132.719 196.849C132.604 193.5 132.463 190.057 131.505 186.797C130.76 184.354 129.641 182.047 128.172 179.953C131.599 182.583 134.588 185.589 136.474 189.427C137.969 192.427 138.693 195.781 139.391 199.042C139.766 200.807 140.187 202.672 140.724 204.464ZM126.234 178C125.838 177.719 125.463 177.464 125.068 177.208C124.927 176.833 124.766 176.464 124.599 176.115C125.141 176.719 125.698 177.349 126.234 178ZM122.989 173.88C122.667 173.552 122.318 173.229 121.963 172.901C121.87 172.505 121.776 172.109 121.687 171.74C122.151 172.437 122.573 173.156 122.989 173.88ZM119.703 168.109C119.677 167.714 119.656 167.292 119.63 166.896C119.958 167.667 120.239 168.458 120.521 169.25C120.26 168.875 119.984 168.479 119.703 168.109ZM108.667 133.5C109.672 132.359 110.698 131.24 111.724 130.146L112.234 129.589C110.745 136.151 112.588 143.344 114.734 149.792C114.943 150.37 115.13 150.953 115.338 151.557C116.76 155.75 118.208 160.031 118.885 164.312C117.745 161.891 116.437 159.521 115.151 157.167L114.266 155.536C110.604 148.766 107.172 140.99 108.667 133.5ZM113.078 128.073C113.193 127.724 113.312 127.354 113.474 127.005C114.078 126.516 114.687 126.052 115.292 125.583C114.568 126.443 113.823 127.281 113.078 128.073ZM117.531 123.349C117.906 122.839 118.281 122.328 118.63 121.812C119.516 121.302 120.427 120.812 121.312 120.349C120.099 121.396 118.818 122.396 117.531 123.349ZM128.219 116.276C126.818 117.089 125.37 117.833 123.948 118.578C124.417 118.135 124.859 117.693 125.302 117.25C126.26 116.901 127.239 116.578 128.219 116.276ZM131.088 114.948C131.625 114.599 132.135 114.25 132.651 113.875C133.651 113.714 134.682 113.552 135.682 113.411C134.167 113.995 132.625 114.484 131.088 114.948ZM138.76 112.62C140.651 111.807 142.521 110.875 144.312 110.016C145.479 109.453 146.672 108.875 147.859 108.312C149.703 107.453 151.641 106.547 153.672 105.776C154.396 106.729 155.021 107.755 155.516 108.828C154.51 109.104 153.505 109.385 152.526 109.667C150.052 110.385 147.51 111.109 144.943 111.641C142.937 112.083 140.818 112.365 138.76 112.62ZM157.614 116.344C157.588 113.854 157.078 111.385 156.099 109.104L156.448 109.01C158.406 108.479 160.484 107.917 162.604 107.521C164.26 110.641 164.891 114.599 164.239 118.557C163.307 124.281 160.203 129.307 157.286 133.453C156.448 134.635 155.583 135.823 154.745 136.964C152.338 140.245 149.844 143.62 147.979 147.323C146.625 149.974 145.76 152.536 145.364 154.958C145.432 152.469 145.833 150 146.578 147.625C147.766 143.714 149.609 139.943 151.406 136.312C152.036 135.031 152.693 133.708 153.297 132.401C155.489 127.75 157.682 122.208 157.614 116.344ZM147.536 198.297C150.588 192.38 148.958 185.26 146.739 178.443L146.693 178.302C144.573 171.833 142.38 165.13 144.594 158.911C144.573 159.078 144.526 159.214 144.5 159.38C143.333 166.057 146.859 172.646 149.958 178.464L150.031 178.604C153.364 184.844 156.187 191.5 154.255 197.687C152.807 202.323 148.979 206 142.823 208.677C142.193 207.49 141.677 206.229 141.281 204.953C141.26 204.859 141.213 204.74 141.187 204.646C144.057 203.021 146.182 200.88 147.536 198.297ZM148.328 147.464C150.193 143.807 152.667 140.432 155.068 137.177C155.911 136.036 156.771 134.849 157.614 133.661C160.552 129.469 163.703 124.396 164.635 118.604C165.286 114.599 164.656 110.62 163 107.432C164.917 107.057 166.849 106.849 168.812 106.823H169.068C171.984 110.667 172.661 116.484 170.771 121.885C168.859 127.354 164.917 131.776 161.323 135.339C160.297 136.359 159.245 137.359 158.219 138.359C155.281 141.177 152.245 144.089 149.75 147.391C147.953 149.792 146.646 152.141 145.854 154.469C146.344 152.026 147.182 149.672 148.328 147.464ZM162.396 107.104C160.318 107.5 158.266 108.057 156.328 108.594L155.932 108.708C155.443 107.615 154.812 106.568 154.088 105.615C155.979 104.891 157.937 104.333 159.948 103.984C160.901 104.891 161.745 105.943 162.396 107.104ZM153.411 105.427C151.432 106.198 149.516 107.078 147.698 107.943C146.51 108.5 145.318 109.083 144.151 109.641C141.911 110.734 139.625 111.854 137.292 112.807C136.01 112.969 134.724 113.13 133.443 113.344C134.354 112.687 135.239 112.036 136.125 111.411C137.151 110.667 138.224 109.875 139.297 109.13C142.635 106.802 146.297 104.219 150.427 102.776C151.547 103.495 152.552 104.38 153.411 105.427ZM128.453 114.807C129.526 114.505 130.599 114.271 131.693 114.062C131.016 114.526 130.338 114.969 129.661 115.391C128.453 115.786 127.213 116.156 126 116.578C126.469 116.089 126.958 115.625 127.422 115.135C127.729 115.016 128.078 114.901 128.453 114.807ZM121.312 118.88C122.318 118.391 123.344 117.974 124.37 117.578C123.786 118.135 123.203 118.693 122.62 119.229C121.474 119.812 120.333 120.417 119.187 121.047C119.583 120.484 119.958 119.927 120.333 119.37C120.635 119.208 120.984 119.042 121.312 118.88ZM114.989 124.141C115.901 123.49 116.833 122.885 117.792 122.328C117.323 122.979 116.833 123.63 116.344 124.281C115.505 124.932 114.641 125.562 113.802 126.234C113.963 125.865 114.151 125.49 114.338 125.12C114.5 124.839 114.661 124.536 114.828 124.255L114.989 124.141ZM109.693 130.401C110.698 129.401 111.745 128.422 112.844 127.542C112.703 127.932 112.562 128.375 112.448 128.797L111.422 129.891C110.557 130.797 109.693 131.729 108.854 132.682C108.948 132.286 109.062 131.891 109.203 131.495C109.297 131.193 109.411 130.87 109.531 130.562L109.693 130.401ZM108.828 131.354C108.62 132.01 108.458 132.661 108.318 133.312C107.406 134.359 106.521 135.453 105.729 136.568C105.937 135.802 106.219 135.031 106.521 134.286C107.245 133.24 108.016 132.266 108.854 131.307L108.828 131.354ZM105.562 137.479C106.38 136.312 107.245 135.172 108.156 134.104C106.963 141.505 110.323 149.094 113.917 155.677L114.802 157.307C116.318 160.052 117.833 162.823 119.094 165.661C119.167 166.271 119.213 166.896 119.26 167.5C118.068 165.917 116.833 164.385 115.594 162.823L114.432 161.38C109.229 154.839 104.073 147.021 105.286 138.594C105.333 138.271 105.38 137.943 105.448 137.615L105.562 137.479ZM119.724 168.828C120.146 169.411 120.568 170.016 120.963 170.599C121.151 171.177 121.312 171.786 121.453 172.391C120.87 171.833 120.26 171.297 119.677 170.76C119.703 170.109 119.724 169.479 119.724 168.828ZM121.594 173.109C121.734 173.807 121.849 174.531 121.943 175.25C121.104 174.719 120.239 174.203 119.375 173.693L119.26 173.625C119.422 172.854 119.516 172.062 119.583 171.297C120.286 171.875 120.937 172.484 121.594 173.109ZM122.104 173.599C122.62 174.109 123.13 174.625 123.646 175.135C123.927 175.693 124.182 176.255 124.437 176.812C123.76 176.37 123.083 175.953 122.406 175.51C122.338 174.854 122.224 174.229 122.104 173.599ZM125.443 199.714C125.536 197.667 125.838 195.573 126.12 193.547C126.583 190.24 127.052 186.797 126.677 183.422C126.469 181.516 126 179.651 125.323 177.88C125.932 178.276 126.516 178.698 127.099 179.115C128.87 181.469 130.271 184.026 131.109 186.865C132.068 190.078 132.182 193.521 132.302 196.828C132.37 198.875 132.463 200.995 132.719 203.068C132.906 204.417 133.187 205.745 133.604 207.047C131.599 207.51 129.573 207.812 127.542 208.021C127.286 208.047 127.026 208.068 126.75 208.094C125.677 205.464 125.323 202.411 125.443 199.714ZM134.146 207.349C136.474 206.812 138.713 205.974 140.838 204.859C140.864 204.927 140.885 205 140.911 205.068C141.328 206.37 141.844 207.625 142.474 208.839C140.583 209.63 138.646 210.302 136.661 210.839C136.406 210.911 136.151 210.979 135.891 211.047C135.172 209.885 134.588 208.651 134.146 207.349ZM136.755 211.234C138.76 210.677 140.724 210 142.656 209.208C143.312 210.422 144.104 211.536 145.016 212.562C143.239 213.354 141.213 214.12 139.114 214.516C137.922 213.677 136.922 212.63 136.125 211.422L136.755 211.234ZM143.031 209.026C149.26 206.276 153.156 202.505 154.651 197.781C156.635 191.427 153.786 184.703 150.406 178.37L150.333 178.229C147.114 172.229 143.802 165.99 144.896 159.495C144.896 159.656 144.896 159.797 144.896 159.958C144.922 166.734 149.516 172.62 153.599 177.812L153.693 177.927C158.078 183.516 162 189.542 161.161 195.99C160.344 202.25 155.281 207.625 146.109 212.005C145.88 212.12 145.646 212.234 145.391 212.328C144.479 211.349 143.687 210.234 143.031 209.026ZM146.297 212.401C155.604 207.953 160.739 202.458 161.578 196.062C162.443 189.474 158.453 183.328 154.021 177.698L153.927 177.578C149.703 172.203 145.364 166.661 145.318 160.078C145.344 160.24 145.364 160.38 145.391 160.542C146.578 167.198 152.156 172.203 157.052 176.604L157.172 176.698C162.443 181.422 167.364 186.703 167.667 193.198C167.948 199.479 163.911 205.672 155.63 211.583C153.833 212.865 151.594 214.307 149.167 215.214C147.859 214.589 146.693 213.75 145.693 212.677L146.297 212.401ZM174.016 107.036C172.474 106.661 170.885 106.453 169.276 106.427C169.182 106.312 169.068 106.172 168.974 106.057C168.297 105.266 167.526 104.568 166.687 103.984C169.489 104.453 172.005 105.521 174.016 107.036ZM164.823 103.333C163.234 103.219 161.625 103.286 160.062 103.542C159.948 103.427 159.828 103.333 159.687 103.24C158.896 102.568 158.01 102.005 157.078 101.589C159.922 101.589 162.583 102.193 164.823 103.333ZM150.495 100.609C152.083 100.609 153.646 100.818 155.141 101.286C153.552 101.448 151.989 101.797 150.495 102.307C150.359 102.219 150.219 102.146 150.099 102.052C149.193 101.542 148.234 101.167 147.229 100.891C148.281 100.703 149.401 100.609 150.495 100.609ZM123.25 115.089C126.469 110.479 130.13 105.266 135.776 102.609C138.948 101.12 142.239 100.589 145.25 100.937C139.208 102.635 134.703 107.125 130.713 111.109C129.781 112.036 128.87 112.995 127.963 113.922L127.146 114.786C125.302 115.391 123.505 116.182 121.823 117.135C122.318 116.437 122.781 115.76 123.25 115.089ZM120.427 118.51L120.052 119.068C119.583 119.323 119.12 119.578 118.677 119.833C119.213 119.391 119.797 118.927 120.427 118.51ZM115.432 122.651C115.292 122.839 115.151 123.026 115.01 123.208C114.849 123.443 114.687 123.698 114.521 123.953C113.823 124.469 113.172 125 112.542 125.536C113.427 124.516 114.385 123.536 115.432 122.651ZM109.859 128.891C109.739 129.099 109.646 129.307 109.552 129.516C109.437 129.797 109.323 130.052 109.203 130.333C108.62 130.958 108.062 131.589 107.526 132.24C108.203 131.031 108.969 129.911 109.859 128.891ZM105.448 135.964C105.38 136.198 105.307 136.406 105.26 136.641C105.193 136.917 105.12 137.224 105.052 137.5C104.583 138.224 104.141 138.943 103.724 139.667C104.187 138.385 104.771 137.151 105.448 135.964ZM117.792 172.714C110.672 168.339 103.141 162.776 101.391 154.422C101.25 153.792 101.156 153.141 101.109 152.51C100.854 149.698 101.297 146.693 102.37 143.693C102.344 143.927 102.323 144.156 102.297 144.391C102.25 145.042 102.229 145.719 102.25 146.37C102.531 155.026 109.042 161.917 115.364 167.5C115.828 167.896 116.297 168.318 116.76 168.714C117.604 169.432 118.417 170.177 119.26 170.901C119.187 171.714 119.094 172.531 118.932 173.344L117.792 172.714ZM113.312 204.604C109.599 200.573 110.396 194.104 112.354 189.38C113.146 187.474 114.151 185.609 115.104 183.818C116.672 180.859 118.302 177.812 119.094 174.505C119.141 174.344 119.167 174.182 119.213 174.042C120.146 174.599 121.104 175.182 122.036 175.766C122.151 176.927 122.177 178.115 122.104 179.281C121.896 182.63 120.823 185.891 119.818 189.052C119.187 191.01 118.536 193.036 118.068 195.057C117.161 199.13 117.208 204.229 119.583 207.859C117.208 207.37 114.989 206.417 113.312 204.604ZM120.474 208.417C121.568 208.557 122.687 208.63 123.807 208.63C124.739 208.63 125.651 208.583 126.489 208.51C127.026 209.818 127.797 211 128.755 212.052C126.375 212.005 123.995 211.443 122.036 209.932C121.453 209.49 120.917 208.979 120.474 208.417ZM131.552 213.677C130.901 213.354 130.292 212.932 129.755 212.448C131.766 212.354 133.771 212.026 135.708 211.516C136.474 212.703 137.432 213.75 138.552 214.589C136.198 214.958 133.745 214.818 131.552 213.677ZM141.583 215.729C140.885 215.516 140.208 215.214 139.604 214.818C141.562 214.375 143.474 213.724 145.297 212.865C146.25 213.891 147.37 214.75 148.63 215.401C146.37 216.172 143.943 216.448 141.583 215.729ZM160.224 174.786L160.364 174.88C166.385 178.625 172.172 182.958 173.594 189.312C174.969 195.453 172.052 202.25 164.937 209.49C161.859 212.609 157.172 216.703 151.828 216.005C151.104 215.911 150.38 215.729 149.703 215.469C152.036 214.542 154.161 213.167 155.864 211.932C164.26 205.953 168.37 199.646 168.062 193.198C167.76 186.562 162.771 181.208 157.427 176.417L157.307 176.302C152.224 171.74 146.974 167.036 145.786 160.542C145.833 160.682 145.88 160.844 145.927 160.984C148.255 167.339 154.604 171.297 160.224 174.786ZM181.641 131.729C177.979 136.219 172.755 139.016 168.156 141.156C166.849 141.76 165.5 142.365 164.193 142.922C160.458 144.552 156.609 146.25 153.156 148.51C150.661 150.141 148.609 151.906 147.068 153.818C148.375 151.698 149.958 149.766 151.802 148.089C154.812 145.297 158.292 142.969 161.651 140.714C162.838 139.922 164.052 139.104 165.239 138.271C169.443 135.339 174.13 131.656 177.021 126.516C180.031 121.161 180.266 114.833 177.63 110.411C177.094 109.526 176.463 108.687 175.739 107.964C180.198 109.573 183.604 112.62 185 116.344C186.75 121.068 185.422 127.099 181.641 131.729Z" fill="#A0E4B0"/>
</g>
<path d="M206.304 176.114C213.116 176.114 217.538 172.973 217.538 168.181C217.538 163.869 213.918 160.937 206.939 159.551C201.189 158.437 199.221 157.317 199.221 154.973C199.221 152.525 201.564 151.036 205.559 151.036C209.762 151.036 212.267 152.687 212.585 155.718H217.007C216.632 150.291 212.319 147.093 205.502 147.093C198.846 147.093 194.804 150.025 194.804 154.973C194.804 159.343 198.158 162.004 205.288 163.176C210.668 164.077 213.116 165.572 213.116 168.072C213.116 170.577 210.564 172.119 206.356 172.119C201.616 172.119 198.793 170.098 198.637 166.744H194.215C194.325 172.385 199.059 176.114 206.304 176.114Z" fill="white"/>
<path d="M234.417 175.848C238.886 175.848 242.401 174.411 244.906 171.588L245.386 175.421H249.058V157.848C249.058 151.463 244.214 147.093 236.969 147.093C230.953 147.093 226.427 150.343 225.203 155.666H229.729C230.636 152.952 233.459 151.249 237.026 151.249C241.709 151.249 244.584 153.859 244.584 158.171V159.181H233.297C227.547 159.181 223.766 162.431 223.766 167.437C223.766 172.65 227.761 175.848 234.417 175.848ZM228.24 167.379C228.24 164.77 230.37 163.119 233.459 163.119H244.641C244.479 168.234 240.323 171.853 234.573 171.853C230.688 171.853 228.24 170.098 228.24 167.379Z" fill="white"/>
<path d="M258.376 175.421H262.85V160.723C262.85 155.025 266.043 151.353 270.835 151.353C275.465 151.353 278.397 154.869 278.397 160.353V175.421H282.866V160.723C282.866 155.025 286.064 151.353 290.855 151.353C295.486 151.353 298.418 154.869 298.418 160.353V175.421H302.887V159.609C302.887 151.885 298.418 147.093 291.439 147.093C286.97 147.093 283.345 149.01 281.163 152.525C279.303 148.957 275.892 147.093 271.475 147.093C267.642 147.093 264.553 148.53 262.475 151.249L262.048 147.786H258.376V175.421Z" fill="white"/>
<path d="M327.327 176.114C335.473 176.114 341.384 169.989 341.384 161.577C341.384 153.218 335.473 147.093 327.327 147.093C322.801 147.093 318.968 148.957 316.462 152.046L315.931 147.786H312.259V186.072H316.733V171.478C319.233 174.359 322.962 176.114 327.327 176.114ZM316.572 161.577C316.572 155.614 320.775 151.353 326.738 151.353C332.759 151.353 336.91 155.614 336.91 161.577C336.91 167.593 332.759 171.801 326.738 171.801C320.775 171.801 316.572 167.593 316.572 161.577Z" fill="white"/>
<path d="M349.104 175.421H353.578V136.02H349.104V175.421Z" fill="white"/>
<path d="M373.491 176.114C380.303 176.114 384.725 172.973 384.725 168.181C384.725 163.869 381.105 160.937 374.126 159.551C368.376 158.437 366.407 157.317 366.407 154.973C366.407 152.525 368.751 151.036 372.746 151.036C376.949 151.036 379.454 152.687 379.772 155.718H384.194C383.819 150.291 379.506 147.093 372.689 147.093C366.032 147.093 361.991 150.025 361.991 154.973C361.991 159.343 365.345 162.004 372.475 163.176C377.855 164.077 380.303 165.572 380.303 168.072C380.303 170.577 377.751 172.119 373.543 172.119C368.803 172.119 365.98 170.098 365.824 166.744H361.402C361.511 172.385 366.246 176.114 373.491 176.114Z" fill="white"/>
<path d="M404.479 175.421H408.63V171.109H404.692C401.015 171.109 399.312 169.244 399.312 165.249V151.885H408.26V147.786H399.312V140.916H395.854L395.427 144.645C395.104 147.145 394.359 147.786 391.807 147.786H389.036V151.885H394.838V165.463C394.838 171.801 398.354 175.421 404.479 175.421Z" fill="white"/>
<path d="M425.244 175.848C429.713 175.848 433.228 174.411 435.733 171.588L436.213 175.421H439.884V157.848C439.884 151.463 435.041 147.093 427.796 147.093C421.78 147.093 417.254 150.343 416.03 155.666H420.556C421.463 152.952 424.285 151.249 427.853 151.249C432.535 151.249 435.41 153.859 435.41 158.171V159.181H424.124C418.374 159.181 414.593 162.431 414.593 167.437C414.593 172.65 418.588 175.848 425.244 175.848ZM419.067 167.379C419.067 164.77 421.197 163.119 424.285 163.119H435.468C435.306 168.234 431.15 171.853 425.4 171.853C421.515 171.853 419.067 170.098 419.067 167.379Z" fill="white"/>
<path d="M449.203 175.421H453.677V163.494H456.974C458.255 163.494 459.427 163.442 460.49 163.228L468.104 175.421H473.427L464.802 161.739C466.828 160.457 468.266 158.385 469.38 155.348L472.151 147.786H467.359L465.281 153.697C463.74 158.171 461.609 159.343 457.135 159.343H453.677V136.02H449.203V175.421Z" fill="white"/>
<path d="M230.217 214.169V200.171H233.176V211.729H239.177V214.169H230.217ZM245.825 214.374C244.764 214.374 243.846 214.148 243.071 213.697C242.301 213.242 241.706 212.608 241.287 211.797C240.868 210.982 240.658 210.036 240.658 208.961C240.658 207.876 240.868 206.929 241.287 206.118C241.706 205.302 242.301 204.669 243.071 204.218C243.846 203.762 244.764 203.534 245.825 203.534C246.887 203.534 247.803 203.762 248.573 204.218C249.348 204.669 249.944 205.302 250.364 206.118C250.783 206.929 250.992 207.876 250.992 208.961C250.992 210.036 250.783 210.982 250.364 211.797C249.944 212.608 249.348 213.242 248.573 213.697C247.803 214.148 246.887 214.374 245.825 214.374ZM245.839 212.118C246.322 212.118 246.725 211.982 247.049 211.708C247.372 211.43 247.616 211.052 247.78 210.574C247.949 210.095 248.033 209.551 248.033 208.94C248.033 208.33 247.949 207.785 247.78 207.307C247.616 206.828 247.372 206.45 247.049 206.172C246.725 205.894 246.322 205.755 245.839 205.755C245.352 205.755 244.941 205.894 244.609 206.172C244.281 206.45 244.032 206.828 243.864 207.307C243.7 207.785 243.618 208.33 243.618 208.94C243.618 209.551 243.7 210.095 243.864 210.574C244.032 211.052 244.281 211.43 244.609 211.708C244.941 211.982 245.352 212.118 245.839 212.118ZM257.615 218.324C256.672 218.324 255.863 218.195 255.189 217.935C254.519 217.68 253.986 217.331 253.59 216.889C253.193 216.447 252.936 215.951 252.817 215.399L255.51 215.037C255.592 215.247 255.722 215.442 255.9 215.625C256.078 215.807 256.312 215.953 256.604 216.062C256.9 216.176 257.26 216.233 257.684 216.233C258.317 216.233 258.839 216.078 259.249 215.768C259.663 215.463 259.871 214.95 259.871 214.23V212.31H259.748C259.62 212.601 259.429 212.877 259.174 213.137C258.918 213.397 258.59 213.608 258.189 213.773C257.788 213.937 257.31 214.019 256.754 214.019C255.966 214.019 255.248 213.836 254.601 213.472C253.959 213.103 253.446 212.54 253.063 211.784C252.685 211.023 252.496 210.061 252.496 208.899C252.496 207.71 252.69 206.717 253.077 205.919C253.464 205.122 253.979 204.525 254.622 204.129C255.269 203.732 255.977 203.534 256.747 203.534C257.335 203.534 257.827 203.634 258.224 203.835C258.62 204.031 258.939 204.277 259.18 204.573C259.427 204.865 259.616 205.152 259.748 205.434H259.857V203.671H262.748V214.271C262.748 215.165 262.53 215.912 262.092 216.513C261.655 217.115 261.049 217.566 260.274 217.867C259.504 218.172 258.618 218.324 257.615 218.324ZM257.677 211.831C258.146 211.831 258.543 211.715 258.866 211.483C259.194 211.246 259.445 210.909 259.618 210.471C259.796 210.029 259.884 209.501 259.884 208.886C259.884 208.271 259.798 207.737 259.625 207.286C259.452 206.831 259.201 206.478 258.873 206.227C258.545 205.976 258.146 205.851 257.677 205.851C257.198 205.851 256.795 205.981 256.467 206.241C256.139 206.496 255.891 206.851 255.722 207.307C255.554 207.762 255.469 208.289 255.469 208.886C255.469 209.492 255.554 210.016 255.722 210.458C255.895 210.895 256.144 211.235 256.467 211.476C256.795 211.713 257.198 211.831 257.677 211.831ZM269.52 214.169V203.671H272.431V214.169H269.52ZM270.982 202.317C270.55 202.317 270.178 202.174 269.868 201.887C269.563 201.595 269.41 201.247 269.41 200.841C269.41 200.44 269.563 200.096 269.868 199.809C270.178 199.518 270.55 199.372 270.982 199.372C271.415 199.372 271.784 199.518 272.09 199.809C272.399 200.096 272.554 200.44 272.554 200.841C272.554 201.247 272.399 201.595 272.09 201.887C271.784 202.174 271.415 202.317 270.982 202.317ZM277.675 208.1V214.169H274.764V203.671H277.539V205.523H277.662C277.894 204.912 278.284 204.429 278.83 204.074C279.377 203.714 280.04 203.534 280.819 203.534C281.548 203.534 282.184 203.694 282.726 204.012C283.268 204.331 283.69 204.787 283.991 205.379C284.291 205.967 284.442 206.669 284.442 207.485V214.169H281.53V208.004C281.535 207.362 281.371 206.86 281.038 206.5C280.705 206.136 280.247 205.954 279.664 205.954C279.272 205.954 278.926 206.038 278.625 206.206C278.329 206.375 278.097 206.621 277.928 206.945C277.764 207.264 277.68 207.649 277.675 208.1ZM292.32 203.671V205.858H285.998V203.671H292.32ZM287.434 201.156H290.345V210.943C290.345 211.212 290.386 211.421 290.468 211.572C290.55 211.718 290.664 211.82 290.81 211.879C290.96 211.939 291.133 211.968 291.329 211.968C291.466 211.968 291.603 211.957 291.739 211.934C291.876 211.907 291.981 211.886 292.054 211.872L292.512 214.039C292.366 214.085 292.161 214.137 291.897 214.196C291.632 214.26 291.311 214.299 290.933 214.312C290.231 214.34 289.616 214.246 289.088 214.032C288.564 213.818 288.156 213.485 287.864 213.034C287.573 212.583 287.429 212.014 287.434 211.326V201.156ZM298.848 214.374C297.786 214.374 296.868 214.148 296.093 213.697C295.323 213.242 294.729 212.608 294.309 211.797C293.89 210.982 293.681 210.036 293.681 208.961C293.681 207.876 293.89 206.929 294.309 206.118C294.729 205.302 295.323 204.669 296.093 204.218C296.868 203.762 297.786 203.534 298.848 203.534C299.909 203.534 300.825 203.762 301.595 204.218C302.37 204.669 302.967 205.302 303.386 206.118C303.805 206.929 304.015 207.876 304.015 208.961C304.015 210.036 303.805 210.982 303.386 211.797C302.967 212.608 302.37 213.242 301.595 213.697C300.825 214.148 299.909 214.374 298.848 214.374ZM298.861 212.118C299.344 212.118 299.748 211.982 300.071 211.708C300.395 211.43 300.638 211.052 300.802 210.574C300.971 210.095 301.055 209.551 301.055 208.94C301.055 208.33 300.971 207.785 300.802 207.307C300.638 206.828 300.395 206.45 300.071 206.172C299.748 205.894 299.344 205.755 298.861 205.755C298.374 205.755 297.964 205.894 297.631 206.172C297.303 206.45 297.055 206.828 296.886 207.307C296.722 207.785 296.64 208.33 296.64 208.94C296.64 209.551 296.722 210.095 296.886 210.574C297.055 211.052 297.303 211.43 297.631 211.708C297.964 211.982 298.374 212.118 298.861 212.118ZM312.16 218.106C311.791 218.106 311.445 218.076 311.121 218.017C310.802 217.962 310.538 217.892 310.328 217.805L310.984 215.632C311.326 215.736 311.634 215.793 311.907 215.802C312.185 215.812 312.424 215.748 312.625 215.611C312.83 215.474 312.996 215.242 313.124 214.914L313.295 214.47L309.529 203.671H312.591L314.764 211.38H314.873L317.067 203.671H320.15L316.069 215.303C315.873 215.868 315.607 216.361 315.27 216.78C314.937 217.204 314.516 217.529 314.005 217.757C313.495 217.99 312.88 218.106 312.16 218.106ZM326.045 214.374C324.983 214.374 324.065 214.148 323.29 213.697C322.52 213.242 321.926 212.608 321.506 211.797C321.087 210.982 320.878 210.036 320.878 208.961C320.878 207.876 321.087 206.929 321.506 206.118C321.926 205.302 322.52 204.669 323.29 204.218C324.065 203.762 324.983 203.534 326.045 203.534C327.106 203.534 328.022 203.762 328.792 204.218C329.567 204.669 330.164 205.302 330.583 206.118C331.002 206.929 331.212 207.876 331.212 208.961C331.212 210.036 331.002 210.982 330.583 211.797C330.164 212.608 329.567 213.242 328.792 213.697C328.022 214.148 327.106 214.374 326.045 214.374ZM326.058 212.118C326.541 212.118 326.945 211.982 327.268 211.708C327.592 211.43 327.835 211.052 327.999 210.574C328.168 210.095 328.252 209.551 328.252 208.94C328.252 208.33 328.168 207.785 327.999 207.307C327.835 206.828 327.592 206.45 327.268 206.172C326.945 205.894 326.541 205.755 326.058 205.755C325.571 205.755 325.161 205.894 324.828 206.172C324.5 206.45 324.252 206.828 324.083 207.307C323.919 207.785 323.837 208.33 323.837 208.94C323.837 209.551 323.919 210.095 324.083 210.574C324.252 211.052 324.5 211.43 324.828 211.708C325.161 211.982 325.571 212.118 326.058 212.118ZM339.837 209.699V203.671H342.749V214.169H339.953V212.262H339.844C339.607 212.877 339.213 213.372 338.662 213.745C338.115 214.119 337.447 214.306 336.659 214.306C335.957 214.306 335.34 214.146 334.807 213.827C334.274 213.508 333.857 213.055 333.556 212.467C333.26 211.879 333.11 211.175 333.105 210.355V203.671H336.017V209.836C336.021 210.455 336.187 210.945 336.516 211.305C336.844 211.665 337.283 211.845 337.835 211.845C338.186 211.845 338.514 211.765 338.819 211.606C339.124 211.442 339.37 211.2 339.557 210.881C339.748 210.562 339.842 210.168 339.837 209.699ZM345.078 214.169V203.671H347.901V205.502H348.01C348.201 204.851 348.522 204.359 348.974 204.026C349.425 203.689 349.944 203.52 350.532 203.52C350.678 203.52 350.835 203.53 351.003 203.548C351.172 203.566 351.32 203.591 351.448 203.623V206.206C351.311 206.165 351.122 206.129 350.88 206.097C350.639 206.065 350.418 206.049 350.217 206.049C349.789 206.049 349.406 206.143 349.069 206.329C348.737 206.512 348.472 206.767 348.276 207.095C348.085 207.423 347.989 207.801 347.989 208.23V214.169H345.078ZM360.401 214.367C359.731 214.367 359.135 214.251 358.611 214.019C358.087 213.782 357.672 213.433 357.367 212.973C357.066 212.508 356.916 211.929 356.916 211.237C356.916 210.654 357.023 210.164 357.237 209.767C357.451 209.371 357.743 209.052 358.112 208.81C358.481 208.569 358.9 208.387 359.369 208.264C359.843 208.141 360.34 208.054 360.859 208.004C361.47 207.94 361.962 207.881 362.335 207.826C362.709 207.767 362.98 207.68 363.149 207.567C363.317 207.453 363.402 207.284 363.402 207.061V207.02C363.402 206.587 363.265 206.252 362.992 206.015C362.723 205.778 362.34 205.66 361.843 205.66C361.319 205.66 360.902 205.776 360.593 206.008C360.283 206.236 360.078 206.523 359.977 206.869L357.285 206.651C357.421 206.013 357.69 205.461 358.091 204.997C358.492 204.527 359.009 204.167 359.643 203.917C360.28 203.662 361.019 203.534 361.857 203.534C362.44 203.534 362.998 203.602 363.532 203.739C364.069 203.876 364.545 204.088 364.96 204.375C365.379 204.662 365.71 205.031 365.951 205.482C366.193 205.928 366.313 206.464 366.313 207.088V214.169H363.552V212.713H363.47C363.301 213.041 363.076 213.331 362.793 213.581C362.511 213.827 362.171 214.021 361.775 214.162C361.379 214.299 360.921 214.367 360.401 214.367ZM361.235 212.358C361.663 212.358 362.042 212.273 362.37 212.105C362.698 211.932 362.955 211.699 363.142 211.408C363.329 211.116 363.422 210.786 363.422 210.417V209.303C363.331 209.362 363.206 209.416 363.046 209.467C362.891 209.512 362.716 209.555 362.52 209.596C362.324 209.633 362.128 209.667 361.932 209.699C361.736 209.726 361.559 209.751 361.399 209.774C361.057 209.824 360.759 209.904 360.504 210.013C360.249 210.123 360.05 210.271 359.909 210.458C359.768 210.64 359.697 210.868 359.697 211.141C359.697 211.538 359.841 211.841 360.128 212.05C360.419 212.255 360.789 212.358 361.235 212.358ZM373.315 214.374C372.24 214.374 371.315 214.146 370.541 213.69C369.771 213.23 369.178 212.592 368.764 211.777C368.353 210.961 368.148 210.023 368.148 208.961C368.148 207.886 368.356 206.942 368.77 206.131C369.19 205.316 369.784 204.68 370.554 204.224C371.324 203.764 372.24 203.534 373.302 203.534C374.218 203.534 375.02 203.7 375.708 204.033C376.396 204.366 376.94 204.833 377.341 205.434C377.742 206.036 377.963 206.742 378.004 207.553H375.257C375.179 207.029 374.974 206.607 374.641 206.288C374.313 205.965 373.883 205.803 373.35 205.803C372.899 205.803 372.504 205.926 372.167 206.172C371.835 206.414 371.575 206.767 371.388 207.232C371.201 207.696 371.108 208.259 371.108 208.92C371.108 209.59 371.199 210.159 371.381 210.629C371.568 211.098 371.83 211.456 372.167 211.702C372.504 211.948 372.899 212.071 373.35 212.071C373.682 212.071 373.981 212.002 374.245 211.866C374.514 211.729 374.735 211.531 374.908 211.271C375.086 211.007 375.202 210.69 375.257 210.321H378.004C377.959 211.123 377.74 211.829 377.348 212.44C376.961 213.046 376.425 213.52 375.742 213.861C375.058 214.203 374.25 214.374 373.315 214.374ZM384.612 214.374C383.536 214.374 382.611 214.146 381.837 213.69C381.067 213.23 380.474 212.592 380.06 211.777C379.65 210.961 379.445 210.023 379.445 208.961C379.445 207.886 379.652 206.942 380.066 206.131C380.486 205.316 381.08 204.68 381.85 204.224C382.62 203.764 383.536 203.534 384.598 203.534C385.514 203.534 386.316 203.7 387.004 204.033C387.692 204.366 388.236 204.833 388.637 205.434C389.038 206.036 389.259 206.742 389.3 207.553H386.553C386.475 207.029 386.27 206.607 385.938 206.288C385.609 205.965 385.179 205.803 384.646 205.803C384.195 205.803 383.801 205.926 383.463 206.172C383.131 206.414 382.871 206.767 382.684 207.232C382.497 207.696 382.404 208.259 382.404 208.92C382.404 209.59 382.495 210.159 382.677 210.629C382.864 211.098 383.126 211.456 383.463 211.702C383.801 211.948 384.195 212.071 384.646 212.071C384.978 212.071 385.277 212.002 385.541 211.866C385.81 211.729 386.031 211.531 386.204 211.271C386.382 211.007 386.498 210.69 386.553 210.321H389.3C389.255 211.123 389.036 211.829 388.644 212.44C388.257 213.046 387.721 213.52 387.038 213.861C386.354 214.203 385.546 214.374 384.612 214.374ZM395.908 214.374C394.846 214.374 393.928 214.148 393.153 213.697C392.383 213.242 391.789 212.608 391.369 211.797C390.95 210.982 390.741 210.036 390.741 208.961C390.741 207.876 390.95 206.929 391.369 206.118C391.789 205.302 392.383 204.669 393.153 204.218C393.928 203.762 394.846 203.534 395.908 203.534C396.969 203.534 397.885 203.762 398.655 204.218C399.43 204.669 400.027 205.302 400.446 206.118C400.865 206.929 401.075 207.876 401.075 208.961C401.075 210.036 400.865 210.982 400.446 211.797C400.027 212.608 399.43 213.242 398.655 213.697C397.885 214.148 396.969 214.374 395.908 214.374ZM395.921 212.118C396.404 212.118 396.808 211.982 397.131 211.708C397.455 211.43 397.698 211.052 397.862 210.574C398.031 210.095 398.115 209.551 398.115 208.94C398.115 208.33 398.031 207.785 397.862 207.307C397.698 206.828 397.455 206.45 397.131 206.172C396.808 205.894 396.404 205.755 395.921 205.755C395.434 205.755 395.024 205.894 394.691 206.172C394.363 206.45 394.115 206.828 393.946 207.307C393.782 207.785 393.7 208.33 393.7 208.94C393.7 209.551 393.782 210.095 393.946 210.574C394.115 211.052 394.363 211.43 394.691 211.708C395.024 211.982 395.434 212.118 395.921 212.118ZM409.7 209.699V203.671H412.612V214.169H409.816V212.262H409.707C409.47 212.877 409.076 213.372 408.525 213.745C407.978 214.119 407.31 214.306 406.522 214.306C405.82 214.306 405.203 214.146 404.67 213.827C404.137 213.508 403.72 213.055 403.419 212.467C403.123 211.879 402.973 211.175 402.968 210.355V203.671H405.88V209.836C405.884 210.455 406.05 210.945 406.379 211.305C406.707 211.665 407.146 211.845 407.698 211.845C408.048 211.845 408.377 211.765 408.682 211.606C408.987 211.442 409.233 211.2 409.42 210.881C409.611 210.562 409.705 210.168 409.7 209.699ZM417.852 208.1V214.169H414.941V203.671H417.716V205.523H417.839C418.071 204.912 418.461 204.429 419.007 204.074C419.554 203.714 420.217 203.534 420.996 203.534C421.725 203.534 422.361 203.694 422.903 204.012C423.445 204.331 423.867 204.787 424.168 205.379C424.468 205.967 424.619 206.669 424.619 207.485V214.169H421.707V208.004C421.712 207.362 421.548 206.86 421.215 206.5C420.882 206.136 420.424 205.954 419.841 205.954C419.449 205.954 419.103 206.038 418.802 206.206C418.506 206.375 418.274 206.621 418.105 206.945C417.941 207.264 417.857 207.649 417.852 208.1ZM432.497 203.671V205.858H426.175V203.671H432.497ZM427.611 201.156H430.522V210.943C430.522 211.212 430.563 211.421 430.645 211.572C430.727 211.718 430.841 211.82 430.987 211.879C431.137 211.939 431.311 211.968 431.506 211.968C431.643 211.968 431.78 211.957 431.917 211.934C432.053 211.907 432.158 211.886 432.231 211.872L432.689 214.039C432.543 214.085 432.338 214.137 432.074 214.196C431.809 214.26 431.488 214.299 431.11 214.312C430.408 214.34 429.793 214.246 429.265 214.032C428.741 213.818 428.333 213.485 428.041 213.034C427.75 212.583 427.606 212.014 427.611 211.326V201.156ZM436.096 214.347C435.645 214.347 435.258 214.187 434.934 213.868C434.615 213.545 434.456 213.157 434.456 212.706C434.456 212.26 434.615 211.877 434.934 211.558C435.258 211.239 435.645 211.08 436.096 211.08C436.533 211.08 436.916 211.239 437.244 211.558C437.572 211.877 437.736 212.26 437.736 212.706C437.736 213.007 437.659 213.283 437.504 213.533C437.354 213.779 437.155 213.978 436.909 214.128C436.663 214.274 436.392 214.347 436.096 214.347Z" fill="white"/>
</svg>
