<svg width="641" height="318" viewBox="0 0 641 318" fill="none" xmlns="http://www.w3.org/2000/svg">
<mask id="mask0_86_644" style="mask-type:luminance" maskUnits="userSpaceOnUse" x="100" y="100" width="87" height="117">
<path d="M100.349 100H186.667V216.703H100.349V100Z" fill="white"/>
</mask>
<g mask="url(#mask0_86_644)">
<path d="M185.375 116.229C183.833 112.156 179.984 108.849 175.016 107.312C172.661 105.266 169.464 103.891 165.87 103.448C163.188 101.844 159.807 101.052 156.188 101.214C153.276 100.099 149.797 99.8906 146.276 100.703C142.964 100.052 139.208 100.589 135.635 102.26C129.849 104.937 126.167 110.198 122.922 114.854C122.271 115.786 121.641 116.719 121.01 117.646C119.422 118.625 117.974 119.812 116.693 121.161C114.385 122.792 112.401 124.839 110.839 127.187C108.854 129.193 107.266 131.542 106.125 134.125C104.516 136.453 103.349 139.036 102.693 141.781C101.083 145.37 100.385 149.094 100.688 152.536C100.76 153.187 100.854 153.865 100.99 154.516C102.766 163.01 110.37 168.641 117.604 173.042L118.839 173.786C118.792 173.995 118.745 174.182 118.698 174.391C117.906 177.651 116.297 180.677 114.734 183.609C113.776 185.422 112.771 187.286 111.979 189.219C109.948 194.057 109.182 200.693 113.005 204.859C114.849 206.859 117.323 207.859 119.891 208.302C120.427 209.047 121.078 209.698 121.802 210.234C123.948 211.885 126.536 212.422 129.125 212.422H129.172C129.828 213.052 130.573 213.583 131.391 214.005C132.932 214.771 134.609 215.167 136.339 215.146C137.245 215.146 138.156 215.073 139.042 214.911C139.786 215.427 140.63 215.818 141.49 216.099C142.474 216.401 143.474 216.562 144.5 216.542C146.109 216.521 147.672 216.214 149.167 215.635C150.005 216.005 150.896 216.24 151.781 216.354C152.198 216.401 152.62 216.427 153.042 216.427C158.031 216.427 162.349 212.656 165.24 209.698C172.474 202.344 175.411 195.432 173.99 189.125C172.521 182.63 166.688 178.229 160.578 174.437L160.438 174.37C154.604 170.74 148.609 167.016 146.297 160.776C145.927 159.75 145.667 158.703 145.526 157.635C145.526 157.469 145.526 157.333 145.526 157.167C145.526 157.005 145.599 156.865 145.62 156.703C145.646 156.542 145.74 156.401 145.786 156.26C147.396 153.536 149.917 151.021 153.344 148.786C156.771 146.552 160.62 144.854 164.333 143.224C165.641 142.646 166.99 142.062 168.297 141.458C172.943 139.292 178.214 136.479 181.948 131.917C185.844 127.234 187.172 121.047 185.375 116.229ZM177.281 110.62C179.823 114.922 179.589 121.094 176.651 126.328C173.802 131.401 169.161 135.057 165.01 137.943C163.818 138.781 162.604 139.594 161.417 140.385C158.031 142.646 154.531 144.974 151.5 147.786C149.307 149.812 147.63 151.932 146.417 154.073C147.323 151.745 148.563 149.578 150.078 147.604C152.552 144.318 155.557 141.432 158.5 138.62C159.526 137.641 160.599 136.615 161.625 135.594C165.266 131.984 169.229 127.542 171.167 121.974C173.057 116.552 172.427 110.734 169.604 106.802C171.12 106.849 172.635 107.057 174.083 107.432C174.318 107.5 174.573 107.568 174.807 107.641C175.766 108.526 176.604 109.526 177.281 110.62ZM126.911 208.49L127.563 208.417C129.641 208.234 131.693 207.906 133.724 207.443C134.167 208.745 134.75 209.979 135.448 211.141C133.583 211.609 131.438 212.026 129.292 212.052C128.313 211.026 127.495 209.818 126.911 208.49ZM122.432 176.021C123.203 176.51 123.948 176.974 124.693 177.484C125.49 179.396 126 181.422 126.234 183.469C126.609 186.797 126.141 190.193 125.677 193.5C125.396 195.526 125.094 197.641 125 199.714C124.88 202.411 125.229 205.464 126.302 208.141C124.37 208.281 122.198 208.302 120.099 207.953C117.578 204.417 117.51 199.25 118.417 195.13C118.865 193.125 119.516 191.104 120.146 189.172C121.172 185.984 122.245 182.698 122.453 179.302C122.547 178.208 122.547 177.115 122.432 176.021ZM102.693 144.411C102.766 143.552 102.906 142.714 103.094 141.875C103.604 140.734 104.214 139.62 104.865 138.547V138.573C103.63 147.161 108.828 155.073 114.104 161.661L115.271 163.104C116.625 164.802 118 166.5 119.281 168.245C119.307 168.969 119.307 169.687 119.26 170.411C118.51 169.734 117.766 169.083 117.021 168.432C116.552 168.036 116.089 167.62 115.62 167.224C109.344 161.682 102.906 154.885 102.625 146.37C102.625 145.719 102.625 145.062 102.693 144.411ZM113.984 124.885L113.964 124.911C113.635 125.516 113.354 126.12 113.125 126.75C112.052 127.63 111 128.542 109.995 129.516C110.349 128.797 110.745 128.073 111.188 127.401C112.052 126.516 113.005 125.677 113.984 124.885ZM119.536 119.812C119.167 120.37 118.771 120.953 118.375 121.51C117.37 122.094 116.391 122.677 115.458 123.328C115.922 122.677 116.438 122.047 116.995 121.464C117.813 120.859 118.651 120.323 119.536 119.812ZM121.286 117.927C122.943 116.901 124.693 116.062 126.516 115.411C126.047 115.901 125.557 116.391 125.068 116.88C123.714 117.344 122.406 117.901 121.125 118.51L120.776 118.672L121.031 118.297L121.286 117.927ZM146.25 101.099C147.51 101.354 148.75 101.797 149.87 102.427L149.984 102.495C145.927 103.984 142.333 106.5 139.068 108.781C137.995 109.526 136.922 110.318 135.87 111.083C134.771 111.875 133.63 112.714 132.484 113.505C131.089 113.74 129.688 114.042 128.313 114.437C128.193 114.458 128.078 114.505 127.938 114.552L128.24 114.224C129.125 113.297 130.063 112.339 130.969 111.411C134.958 107.432 139.464 102.937 145.479 101.286C145.786 101.214 146.016 101.146 146.25 101.099ZM156.099 101.609C157.307 102.078 158.427 102.729 159.432 103.542L159.526 103.635C157.568 104.01 155.651 104.542 153.786 105.266C152.969 104.24 151.99 103.333 150.917 102.589C152.365 102.125 153.859 101.797 155.349 101.656C155.604 101.635 155.865 101.635 156.099 101.609ZM165.708 103.823C166.807 104.495 167.807 105.333 168.646 106.292L168.74 106.406C166.76 106.427 164.75 106.641 162.818 107.036C162.188 105.87 161.391 104.823 160.458 103.891C161.438 103.75 162.417 103.682 163.401 103.682C163.938 103.682 164.448 103.708 164.984 103.75C165.219 103.776 165.474 103.797 165.708 103.823ZM139.786 198.922C139.089 195.667 138.365 192.266 136.849 189.219C134.703 184.911 131.276 181.651 127.38 178.812C126.328 177.443 125.208 176.115 123.995 174.88C123.203 173.344 122.318 171.854 121.333 170.411C120.823 168.76 120.214 167.13 119.495 165.547C118.911 160.776 117.297 156.026 115.734 151.375L115.13 149.604C112.911 142.995 111.026 135.568 112.818 128.937C114.078 127.562 115.339 126.141 116.505 124.677L116.646 124.516L117.042 124.187C118.932 122.766 120.891 121.276 122.688 119.672L122.854 119.531L123.318 119.302C125.443 118.229 127.609 117.115 129.661 115.833L129.849 115.714L130.365 115.552C132.625 114.854 134.984 114.135 137.224 113.224L137.432 113.156L137.948 113.083C140.302 112.781 142.729 112.479 145.083 111.99C147.651 111.432 150.219 110.714 152.693 109.99C153.693 109.708 154.698 109.406 155.724 109.13C156.703 111.385 157.219 113.807 157.24 116.276C157.307 122.068 155.115 127.562 152.969 132.146C152.365 133.453 151.708 134.776 151.078 136.057C149.286 139.687 147.417 143.458 146.203 147.417C145.156 150.839 144.781 153.979 145.036 156.818C144.734 157.401 144.479 158.005 144.245 158.609C141.938 164.99 144.271 172.089 146.297 178.349L146.344 178.49C148.536 185.214 150.172 192.245 147.182 198.016C145.88 200.531 143.849 202.578 141.073 204.161C140.557 202.484 140.161 200.693 139.786 198.922ZM140.724 204.464C138.599 205.578 136.359 206.417 134.026 206.974C133.604 205.698 133.328 204.37 133.141 203.042C132.885 201.016 132.792 198.901 132.719 196.849C132.604 193.5 132.464 190.057 131.505 186.797C130.76 184.354 129.641 182.047 128.172 179.953C131.599 182.583 134.589 185.589 136.474 189.427C137.969 192.427 138.693 195.781 139.391 199.042C139.766 200.807 140.188 202.672 140.724 204.464ZM126.234 178C125.839 177.719 125.464 177.464 125.068 177.208C124.927 176.833 124.766 176.464 124.599 176.115C125.141 176.719 125.698 177.349 126.234 178ZM122.99 173.88C122.667 173.552 122.318 173.229 121.964 172.901C121.87 172.505 121.776 172.109 121.688 171.74C122.151 172.437 122.573 173.156 122.99 173.88ZM119.703 168.109C119.677 167.714 119.656 167.292 119.63 166.896C119.958 167.667 120.24 168.458 120.521 169.25C120.26 168.875 119.984 168.479 119.703 168.109ZM108.667 133.5C109.672 132.359 110.698 131.24 111.724 130.146L112.234 129.589C110.745 136.151 112.589 143.344 114.734 149.792C114.943 150.37 115.13 150.953 115.339 151.557C116.76 155.75 118.208 160.031 118.885 164.312C117.745 161.891 116.438 159.521 115.151 157.167L114.266 155.536C110.604 148.766 107.172 140.99 108.667 133.5ZM113.078 128.073C113.193 127.724 113.313 127.354 113.474 127.005C114.078 126.516 114.688 126.052 115.292 125.583C114.568 126.443 113.823 127.281 113.078 128.073ZM117.531 123.349C117.906 122.839 118.281 122.328 118.63 121.812C119.516 121.302 120.427 120.812 121.313 120.349C120.099 121.396 118.818 122.396 117.531 123.349ZM128.219 116.276C126.818 117.089 125.37 117.833 123.948 118.578C124.417 118.135 124.859 117.693 125.302 117.25C126.26 116.901 127.24 116.578 128.219 116.276ZM131.089 114.948C131.625 114.599 132.135 114.25 132.651 113.875C133.651 113.714 134.682 113.552 135.682 113.411C134.167 113.995 132.625 114.484 131.089 114.948ZM138.76 112.62C140.651 111.807 142.521 110.875 144.313 110.016C145.479 109.453 146.672 108.875 147.859 108.312C149.703 107.453 151.641 106.547 153.672 105.776C154.396 106.729 155.021 107.755 155.516 108.828C154.51 109.104 153.505 109.385 152.526 109.667C150.052 110.385 147.51 111.109 144.943 111.641C142.938 112.083 140.818 112.365 138.76 112.62ZM157.615 116.344C157.589 113.854 157.078 111.385 156.099 109.104L156.448 109.01C158.406 108.479 160.484 107.917 162.604 107.521C164.26 110.641 164.891 114.599 164.24 118.557C163.307 124.281 160.203 129.307 157.286 133.453C156.448 134.635 155.583 135.823 154.745 136.964C152.339 140.245 149.844 143.62 147.979 147.323C146.625 149.974 145.76 152.536 145.365 154.958C145.432 152.469 145.833 150 146.578 147.625C147.766 143.714 149.609 139.943 151.406 136.312C152.036 135.031 152.693 133.708 153.297 132.401C155.49 127.75 157.682 122.208 157.615 116.344ZM147.536 198.297C150.589 192.38 148.958 185.26 146.74 178.443L146.693 178.302C144.573 171.833 142.38 165.13 144.594 158.911C144.573 159.078 144.526 159.214 144.5 159.38C143.333 166.057 146.859 172.646 149.958 178.464L150.031 178.604C153.365 184.844 156.188 191.5 154.255 197.687C152.807 202.323 148.979 206 142.823 208.677C142.193 207.49 141.677 206.229 141.281 204.953C141.26 204.859 141.214 204.74 141.188 204.646C144.057 203.021 146.182 200.88 147.536 198.297ZM148.328 147.464C150.193 143.807 152.667 140.432 155.068 137.177C155.911 136.036 156.771 134.849 157.615 133.661C160.552 129.469 163.703 124.396 164.635 118.604C165.286 114.599 164.656 110.62 163 107.432C164.917 107.057 166.849 106.849 168.813 106.823H169.068C171.984 110.667 172.661 116.484 170.771 121.885C168.859 127.354 164.917 131.776 161.323 135.339C160.297 136.359 159.245 137.359 158.219 138.359C155.281 141.177 152.245 144.089 149.75 147.391C147.953 149.792 146.646 152.141 145.854 154.469C146.344 152.026 147.182 149.672 148.328 147.464ZM162.396 107.104C160.318 107.5 158.266 108.057 156.328 108.594L155.932 108.708C155.443 107.615 154.813 106.568 154.089 105.615C155.979 104.891 157.938 104.333 159.948 103.984C160.901 104.891 161.745 105.943 162.396 107.104ZM153.411 105.427C151.432 106.198 149.516 107.078 147.698 107.943C146.51 108.5 145.318 109.083 144.151 109.641C141.911 110.734 139.625 111.854 137.292 112.807C136.01 112.969 134.724 113.13 133.443 113.344C134.354 112.687 135.24 112.036 136.125 111.411C137.151 110.667 138.224 109.875 139.297 109.13C142.635 106.802 146.297 104.219 150.427 102.776C151.547 103.495 152.552 104.38 153.411 105.427ZM128.453 114.807C129.526 114.505 130.599 114.271 131.693 114.062C131.016 114.526 130.339 114.969 129.661 115.391C128.453 115.786 127.214 116.156 126 116.578C126.469 116.089 126.958 115.625 127.422 115.135C127.729 115.016 128.078 114.901 128.453 114.807ZM121.313 118.88C122.318 118.391 123.344 117.974 124.37 117.578C123.786 118.135 123.203 118.693 122.62 119.229C121.474 119.812 120.333 120.417 119.188 121.047C119.583 120.484 119.958 119.927 120.333 119.37C120.635 119.208 120.984 119.042 121.313 118.88ZM114.99 124.141C115.901 123.49 116.833 122.885 117.792 122.328C117.323 122.979 116.833 123.63 116.344 124.281C115.505 124.932 114.641 125.562 113.802 126.234C113.964 125.865 114.151 125.49 114.339 125.12C114.5 124.839 114.661 124.536 114.828 124.255L114.99 124.141ZM109.693 130.401C110.698 129.401 111.745 128.422 112.844 127.542C112.703 127.932 112.563 128.375 112.448 128.797L111.422 129.891C110.557 130.797 109.693 131.729 108.854 132.682C108.948 132.286 109.063 131.891 109.203 131.495C109.297 131.193 109.411 130.87 109.531 130.562L109.693 130.401ZM108.828 131.354C108.62 132.01 108.458 132.661 108.318 133.312C107.406 134.359 106.521 135.453 105.729 136.568C105.938 135.802 106.219 135.031 106.521 134.286C107.245 133.24 108.016 132.266 108.854 131.307L108.828 131.354ZM105.563 137.479C106.38 136.312 107.245 135.172 108.156 134.104C106.964 141.505 110.323 149.094 113.917 155.677L114.802 157.307C116.318 160.052 117.833 162.823 119.094 165.661C119.167 166.271 119.214 166.896 119.26 167.5C118.068 165.917 116.833 164.385 115.594 162.823L114.432 161.38C109.229 154.839 104.073 147.021 105.286 138.594C105.333 138.271 105.38 137.943 105.448 137.615L105.563 137.479ZM119.724 168.828C120.146 169.411 120.568 170.016 120.964 170.599C121.151 171.177 121.313 171.786 121.453 172.391C120.87 171.833 120.26 171.297 119.677 170.76C119.703 170.109 119.724 169.479 119.724 168.828ZM121.594 173.109C121.734 173.807 121.849 174.531 121.943 175.25C121.104 174.719 120.24 174.203 119.375 173.693L119.26 173.625C119.422 172.854 119.516 172.062 119.583 171.297C120.286 171.875 120.938 172.484 121.594 173.109ZM122.104 173.599C122.62 174.109 123.13 174.625 123.646 175.135C123.927 175.693 124.182 176.255 124.438 176.812C123.76 176.37 123.083 175.953 122.406 175.51C122.339 174.854 122.224 174.229 122.104 173.599ZM125.443 199.714C125.536 197.667 125.839 195.573 126.12 193.547C126.583 190.24 127.052 186.797 126.677 183.422C126.469 181.516 126 179.651 125.323 177.88C125.932 178.276 126.516 178.698 127.099 179.115C128.87 181.469 130.271 184.026 131.109 186.865C132.068 190.078 132.182 193.521 132.302 196.828C132.37 198.875 132.464 200.995 132.719 203.068C132.906 204.417 133.188 205.745 133.604 207.047C131.599 207.51 129.573 207.812 127.542 208.021C127.286 208.047 127.026 208.068 126.75 208.094C125.677 205.464 125.323 202.411 125.443 199.714ZM134.146 207.349C136.474 206.812 138.714 205.974 140.839 204.859C140.865 204.927 140.885 205 140.911 205.068C141.328 206.37 141.844 207.625 142.474 208.839C140.583 209.63 138.646 210.302 136.661 210.839C136.406 210.911 136.151 210.979 135.891 211.047C135.172 209.885 134.589 208.651 134.146 207.349ZM136.755 211.234C138.76 210.677 140.724 210 142.656 209.208C143.313 210.422 144.104 211.536 145.016 212.562C143.24 213.354 141.214 214.12 139.115 214.516C137.922 213.677 136.922 212.63 136.125 211.422L136.755 211.234ZM143.031 209.026C149.26 206.276 153.156 202.505 154.651 197.781C156.635 191.427 153.786 184.703 150.406 178.37L150.333 178.229C147.115 172.229 143.802 165.99 144.896 159.495C144.896 159.656 144.896 159.797 144.896 159.958C144.922 166.734 149.516 172.62 153.599 177.812L153.693 177.927C158.078 183.516 162 189.542 161.161 195.99C160.344 202.25 155.281 207.625 146.109 212.005C145.88 212.12 145.646 212.234 145.391 212.328C144.479 211.349 143.688 210.234 143.031 209.026ZM146.297 212.401C155.604 207.953 160.74 202.458 161.578 196.062C162.443 189.474 158.453 183.328 154.021 177.698L153.927 177.578C149.703 172.203 145.365 166.661 145.318 160.078C145.344 160.24 145.365 160.38 145.391 160.542C146.578 167.198 152.156 172.203 157.052 176.604L157.172 176.698C162.443 181.422 167.365 186.703 167.667 193.198C167.948 199.479 163.911 205.672 155.63 211.583C153.833 212.865 151.594 214.307 149.167 215.214C147.859 214.589 146.693 213.75 145.693 212.677L146.297 212.401ZM174.016 107.036C172.474 106.661 170.885 106.453 169.276 106.427C169.182 106.312 169.068 106.172 168.974 106.057C168.297 105.266 167.526 104.568 166.688 103.984C169.49 104.453 172.005 105.521 174.016 107.036ZM164.823 103.333C163.234 103.219 161.625 103.286 160.063 103.542C159.948 103.427 159.828 103.333 159.688 103.24C158.896 102.568 158.01 102.005 157.078 101.589C159.922 101.589 162.583 102.193 164.823 103.333ZM150.495 100.609C152.083 100.609 153.646 100.818 155.141 101.286C153.552 101.448 151.99 101.797 150.495 102.307C150.359 102.219 150.219 102.146 150.099 102.052C149.193 101.542 148.234 101.167 147.229 100.891C148.281 100.703 149.401 100.609 150.495 100.609ZM123.25 115.089C126.469 110.479 130.13 105.266 135.776 102.609C138.948 101.12 142.24 100.589 145.25 100.937C139.208 102.635 134.703 107.125 130.714 111.109C129.781 112.036 128.87 112.995 127.964 113.922L127.146 114.786C125.302 115.391 123.505 116.182 121.823 117.135C122.318 116.437 122.781 115.76 123.25 115.089ZM120.427 118.51L120.052 119.068C119.583 119.323 119.12 119.578 118.677 119.833C119.214 119.391 119.797 118.927 120.427 118.51ZM115.432 122.651C115.292 122.839 115.151 123.026 115.01 123.208C114.849 123.443 114.688 123.698 114.521 123.953C113.823 124.469 113.172 125 112.542 125.536C113.427 124.516 114.385 123.536 115.432 122.651ZM109.859 128.891C109.74 129.099 109.646 129.307 109.552 129.516C109.438 129.797 109.323 130.052 109.203 130.333C108.62 130.958 108.063 131.589 107.526 132.24C108.203 131.031 108.969 129.911 109.859 128.891ZM105.448 135.964C105.38 136.198 105.307 136.406 105.26 136.641C105.193 136.917 105.12 137.224 105.052 137.5C104.583 138.224 104.141 138.943 103.724 139.667C104.188 138.385 104.771 137.151 105.448 135.964ZM117.792 172.714C110.672 168.339 103.141 162.776 101.391 154.422C101.25 153.792 101.156 153.141 101.109 152.51C100.854 149.698 101.297 146.693 102.37 143.693C102.344 143.927 102.323 144.156 102.297 144.391C102.25 145.042 102.229 145.719 102.25 146.37C102.531 155.026 109.042 161.917 115.365 167.5C115.828 167.896 116.297 168.318 116.76 168.714C117.604 169.432 118.417 170.177 119.26 170.901C119.188 171.714 119.094 172.531 118.932 173.344L117.792 172.714ZM113.313 204.604C109.599 200.573 110.396 194.104 112.354 189.38C113.146 187.474 114.151 185.609 115.104 183.818C116.672 180.859 118.302 177.812 119.094 174.505C119.141 174.344 119.167 174.182 119.214 174.042C120.146 174.599 121.104 175.182 122.036 175.766C122.151 176.927 122.177 178.115 122.104 179.281C121.896 182.63 120.823 185.891 119.818 189.052C119.188 191.01 118.536 193.036 118.068 195.057C117.161 199.13 117.208 204.229 119.583 207.859C117.208 207.37 114.99 206.417 113.313 204.604ZM120.474 208.417C121.568 208.557 122.688 208.63 123.807 208.63C124.74 208.63 125.651 208.583 126.49 208.51C127.026 209.818 127.797 211 128.755 212.052C126.375 212.005 123.995 211.443 122.036 209.932C121.453 209.49 120.917 208.979 120.474 208.417ZM131.552 213.677C130.901 213.354 130.292 212.932 129.755 212.448C131.766 212.354 133.771 212.026 135.708 211.516C136.474 212.703 137.432 213.75 138.552 214.589C136.198 214.958 133.745 214.818 131.552 213.677ZM141.583 215.729C140.885 215.516 140.208 215.214 139.604 214.818C141.563 214.375 143.474 213.724 145.297 212.865C146.25 213.891 147.37 214.75 148.63 215.401C146.37 216.172 143.943 216.448 141.583 215.729ZM160.224 174.786L160.365 174.88C166.385 178.625 172.172 182.958 173.594 189.312C174.969 195.453 172.052 202.25 164.938 209.49C161.859 212.609 157.172 216.703 151.828 216.005C151.104 215.911 150.38 215.729 149.703 215.469C152.036 214.542 154.161 213.167 155.865 211.932C164.26 205.953 168.37 199.646 168.063 193.198C167.76 186.562 162.771 181.208 157.427 176.417L157.307 176.302C152.224 171.74 146.974 167.036 145.786 160.542C145.833 160.682 145.88 160.844 145.927 160.984C148.255 167.339 154.604 171.297 160.224 174.786ZM181.641 131.729C177.979 136.219 172.755 139.016 168.156 141.156C166.849 141.76 165.5 142.365 164.193 142.922C160.458 144.552 156.609 146.25 153.156 148.51C150.661 150.141 148.609 151.906 147.068 153.818C148.375 151.698 149.958 149.766 151.802 148.089C154.813 145.297 158.292 142.969 161.651 140.714C162.839 139.922 164.052 139.104 165.24 138.271C169.443 135.339 174.13 131.656 177.021 126.516C180.031 121.161 180.266 114.833 177.63 110.411C177.094 109.526 176.464 108.687 175.74 107.964C180.198 109.573 183.604 112.62 185 116.344C186.75 121.068 185.422 127.099 181.641 131.729Z" fill="#A0E4B0"/>
</g>
<path d="M206.304 176.114C213.116 176.114 217.538 172.973 217.538 168.181C217.538 163.869 213.919 160.937 206.939 159.551C201.189 158.437 199.221 157.317 199.221 154.973C199.221 152.525 201.564 151.036 205.559 151.036C209.762 151.036 212.268 152.687 212.585 155.718H217.007C216.632 150.291 212.32 147.093 205.502 147.093C198.846 147.093 194.804 150.025 194.804 154.973C194.804 159.343 198.158 162.004 205.288 163.176C210.669 164.077 213.116 165.572 213.116 168.072C213.116 170.577 210.564 172.119 206.356 172.119C201.616 172.119 198.794 170.098 198.637 166.744H194.215C194.325 172.385 199.059 176.114 206.304 176.114Z" fill="white"/>
<path d="M234.417 175.848C238.886 175.848 242.401 174.411 244.906 171.588L245.386 175.421H249.058V157.848C249.058 151.463 244.214 147.093 236.969 147.093C230.953 147.093 226.427 150.343 225.203 155.666H229.729C230.636 152.952 233.459 151.249 237.026 151.249C241.709 151.249 244.584 153.859 244.584 158.171V159.181H233.297C227.547 159.181 223.766 162.431 223.766 167.437C223.766 172.65 227.761 175.848 234.417 175.848ZM228.24 167.379C228.24 164.77 230.37 163.119 233.459 163.119H244.641C244.479 168.234 240.323 171.853 234.573 171.853C230.688 171.853 228.24 170.098 228.24 167.379Z" fill="white"/>
<path d="M258.376 175.421H262.85V160.723C262.85 155.025 266.043 151.353 270.835 151.353C275.465 151.353 278.397 154.869 278.397 160.353V175.421H282.866V160.723C282.866 155.025 286.064 151.353 290.855 151.353C295.486 151.353 298.418 154.869 298.418 160.353V175.421H302.887V159.609C302.887 151.885 298.418 147.093 291.439 147.093C286.97 147.093 283.345 149.01 281.163 152.525C279.303 148.957 275.892 147.093 271.475 147.093C267.642 147.093 264.553 148.53 262.475 151.249L262.048 147.786H258.376V175.421Z" fill="white"/>
<path d="M327.327 176.114C335.473 176.114 341.384 169.989 341.384 161.577C341.384 153.218 335.473 147.093 327.327 147.093C322.801 147.093 318.968 148.957 316.462 152.046L315.931 147.786H312.259V186.072H316.733V171.478C319.233 174.359 322.962 176.114 327.327 176.114ZM316.572 161.577C316.572 155.614 320.775 151.353 326.738 151.353C332.759 151.353 336.91 155.614 336.91 161.577C336.91 167.593 332.759 171.801 326.738 171.801C320.775 171.801 316.572 167.593 316.572 161.577Z" fill="white"/>
<path d="M349.104 175.421H353.578V136.02H349.104V175.421Z" fill="white"/>
<path d="M373.491 176.114C380.303 176.114 384.725 172.973 384.725 168.181C384.725 163.869 381.105 160.937 374.126 159.551C368.376 158.437 366.407 157.317 366.407 154.973C366.407 152.525 368.751 151.036 372.746 151.036C376.949 151.036 379.454 152.687 379.772 155.718H384.194C383.819 150.291 379.506 147.093 372.688 147.093C366.032 147.093 361.991 150.025 361.991 154.973C361.991 159.343 365.345 162.004 372.475 163.176C377.855 164.077 380.303 165.572 380.303 168.072C380.303 170.577 377.751 172.119 373.543 172.119C368.803 172.119 365.98 170.098 365.824 166.744H361.402C361.511 172.385 366.246 176.114 373.491 176.114Z" fill="white"/>
<path d="M404.478 175.421H408.63V171.109H404.692C401.015 171.109 399.312 169.244 399.312 165.249V151.885H408.26V147.786H399.312V140.916H395.853L395.426 144.645C395.103 147.145 394.359 147.786 391.807 147.786H389.036V151.885H394.838V165.463C394.838 171.801 398.353 175.421 404.478 175.421Z" fill="white"/>
<path d="M425.244 175.848C429.713 175.848 433.228 174.411 435.734 171.588L436.213 175.421H439.885V157.848C439.885 151.463 435.041 147.093 427.796 147.093C421.78 147.093 417.254 150.343 416.03 155.666H420.556C421.463 152.952 424.286 151.249 427.853 151.249C432.536 151.249 435.411 153.859 435.411 158.171V159.181H424.124C418.374 159.181 414.593 162.431 414.593 167.437C414.593 172.65 418.588 175.848 425.244 175.848ZM419.067 167.379C419.067 164.77 421.197 163.119 424.286 163.119H435.468C435.306 168.234 431.15 171.853 425.4 171.853C421.515 171.853 419.067 170.098 419.067 167.379Z" fill="white"/>
<path d="M449.203 175.421H453.677V163.494H456.974C458.255 163.494 459.427 163.442 460.49 163.228L468.104 175.421H473.427L464.802 161.739C466.828 160.457 468.266 158.385 469.38 155.348L472.151 147.786H467.359L465.281 153.697C463.74 158.171 461.609 159.343 457.136 159.343H453.677V136.02H449.203V175.421Z" fill="white"/>
<path d="M230.217 214.169V200.171H235.739C236.796 200.171 237.698 200.36 238.446 200.739C239.197 201.112 239.769 201.643 240.161 202.331C240.558 203.015 240.756 203.819 240.756 204.744C240.756 205.673 240.555 206.473 240.154 207.143C239.753 207.808 239.172 208.318 238.411 208.674C237.655 209.029 236.739 209.207 235.664 209.207H231.966V206.828H235.185C235.75 206.828 236.22 206.751 236.593 206.596C236.967 206.441 237.245 206.209 237.427 205.899C237.614 205.589 237.707 205.204 237.707 204.744C237.707 204.279 237.614 203.887 237.427 203.568C237.245 203.249 236.965 203.008 236.587 202.844C236.213 202.675 235.741 202.591 235.172 202.591H233.176V214.169H230.217ZM237.776 207.799L241.255 214.169H237.988L234.584 207.799H237.776ZM247.408 214.374C246.328 214.374 245.398 214.155 244.619 213.718C243.844 213.276 243.248 212.652 242.828 211.845C242.409 211.034 242.2 210.075 242.2 208.968C242.2 207.888 242.409 206.94 242.828 206.124C243.248 205.309 243.838 204.673 244.599 204.218C245.364 203.762 246.262 203.534 247.291 203.534C247.984 203.534 248.629 203.646 249.226 203.869C249.827 204.088 250.351 204.418 250.798 204.86C251.249 205.302 251.6 205.858 251.85 206.528C252.101 207.193 252.226 207.972 252.226 208.865V209.665H243.361V207.86H249.485C249.485 207.441 249.394 207.07 249.212 206.746C249.03 206.423 248.777 206.17 248.453 205.988C248.134 205.801 247.763 205.708 247.339 205.708C246.897 205.708 246.505 205.81 246.164 206.015C245.827 206.216 245.562 206.487 245.371 206.828C245.18 207.166 245.082 207.541 245.077 207.956V209.672C245.077 210.191 245.173 210.64 245.364 211.018C245.56 211.396 245.836 211.688 246.191 211.893C246.546 212.098 246.968 212.201 247.455 212.201C247.779 212.201 248.075 212.155 248.344 212.064C248.613 211.973 248.843 211.836 249.034 211.654C249.226 211.471 249.372 211.248 249.472 210.984L252.165 211.162C252.028 211.809 251.748 212.374 251.324 212.857C250.905 213.335 250.363 213.709 249.697 213.978C249.037 214.242 248.273 214.374 247.408 214.374ZM258.856 218.324C257.913 218.324 257.104 218.195 256.43 217.935C255.76 217.68 255.227 217.331 254.83 216.889C254.434 216.447 254.176 215.951 254.058 215.399L256.751 215.037C256.833 215.247 256.963 215.442 257.14 215.625C257.318 215.807 257.553 215.953 257.844 216.062C258.14 216.176 258.5 216.233 258.924 216.233C259.558 216.233 260.079 216.078 260.489 215.768C260.904 215.463 261.111 214.95 261.111 214.23V212.31H260.988C260.861 212.601 260.669 212.877 260.414 213.137C260.159 213.397 259.831 213.608 259.43 213.773C259.029 213.937 258.551 214.019 257.995 214.019C257.206 214.019 256.489 213.836 255.842 213.472C255.199 213.103 254.687 212.54 254.304 211.784C253.926 211.023 253.737 210.061 253.737 208.899C253.737 207.71 253.93 206.717 254.318 205.919C254.705 205.122 255.22 204.525 255.862 204.129C256.509 203.732 257.218 203.534 257.988 203.534C258.576 203.534 259.068 203.634 259.464 203.835C259.861 204.031 260.18 204.277 260.421 204.573C260.667 204.865 260.856 205.152 260.988 205.434H261.098V203.671H263.989V214.271C263.989 215.165 263.77 215.912 263.333 216.513C262.895 217.115 262.289 217.566 261.515 217.867C260.745 218.172 259.858 218.324 258.856 218.324ZM258.917 211.831C259.387 211.831 259.783 211.715 260.107 211.483C260.435 211.246 260.685 210.909 260.858 210.471C261.036 210.029 261.125 209.501 261.125 208.886C261.125 208.271 261.038 207.737 260.865 207.286C260.692 206.831 260.442 206.478 260.113 206.227C259.785 205.976 259.387 205.851 258.917 205.851C258.439 205.851 258.036 205.981 257.708 206.241C257.38 206.496 257.131 206.851 256.963 207.307C256.794 207.762 256.71 208.289 256.71 208.886C256.71 209.492 256.794 210.016 256.963 210.458C257.136 210.895 257.384 211.235 257.708 211.476C258.036 211.713 258.439 211.831 258.917 211.831ZM266.306 214.169V203.671H269.217V214.169H266.306ZM267.768 202.317C267.335 202.317 266.964 202.174 266.654 201.887C266.349 201.595 266.196 201.247 266.196 200.841C266.196 200.44 266.349 200.096 266.654 199.809C266.964 199.518 267.335 199.372 267.768 199.372C268.201 199.372 268.57 199.518 268.876 199.809C269.185 200.096 269.34 200.44 269.34 200.841C269.34 201.247 269.185 201.595 268.876 201.887C268.57 202.174 268.201 202.317 267.768 202.317ZM280.284 206.664L277.619 206.828C277.573 206.601 277.475 206.396 277.325 206.213C277.175 206.026 276.976 205.878 276.73 205.769C276.489 205.655 276.2 205.598 275.862 205.598C275.411 205.598 275.031 205.694 274.721 205.885C274.411 206.072 274.256 206.323 274.256 206.637C274.256 206.888 274.356 207.1 274.557 207.273C274.757 207.446 275.101 207.585 275.589 207.69L277.489 208.072C278.51 208.282 279.271 208.619 279.772 209.084C280.273 209.549 280.524 210.159 280.524 210.916C280.524 211.604 280.321 212.207 279.915 212.727C279.514 213.246 278.963 213.652 278.261 213.943C277.564 214.23 276.76 214.374 275.849 214.374C274.459 214.374 273.352 214.085 272.527 213.506C271.707 212.923 271.226 212.13 271.085 211.127L273.949 210.977C274.035 211.401 274.245 211.724 274.577 211.948C274.91 212.166 275.336 212.276 275.856 212.276C276.366 212.276 276.776 212.178 277.086 211.982C277.4 211.781 277.56 211.524 277.564 211.209C277.56 210.945 277.448 210.729 277.229 210.56C277.011 210.387 276.673 210.255 276.218 210.164L274.4 209.802C273.375 209.596 272.611 209.241 272.11 208.735C271.613 208.23 271.365 207.585 271.365 206.801C271.365 206.127 271.547 205.546 271.912 205.058C272.281 204.571 272.798 204.195 273.463 203.93C274.133 203.666 274.917 203.534 275.815 203.534C277.14 203.534 278.184 203.814 278.945 204.375C279.71 204.935 280.157 205.698 280.284 206.664ZM287.941 203.671V205.858H281.619V203.671H287.941ZM283.054 201.156H285.966V210.943C285.966 211.212 286.007 211.421 286.089 211.572C286.171 211.718 286.285 211.82 286.431 211.879C286.581 211.939 286.754 211.968 286.95 211.968C287.087 211.968 287.223 211.957 287.36 211.934C287.497 211.907 287.602 211.886 287.675 211.872L288.132 214.039C287.987 214.085 287.782 214.137 287.517 214.196C287.253 214.26 286.932 214.299 286.554 214.312C285.852 214.34 285.237 214.246 284.708 214.032C284.184 213.818 283.776 213.485 283.485 213.034C283.193 212.583 283.05 212.014 283.054 211.326V201.156ZM294.509 214.374C293.429 214.374 292.5 214.155 291.721 213.718C290.946 213.276 290.349 212.652 289.93 211.845C289.511 211.034 289.301 210.075 289.301 208.968C289.301 207.888 289.511 206.94 289.93 206.124C290.349 205.309 290.939 204.673 291.7 204.218C292.466 203.762 293.363 203.534 294.393 203.534C295.086 203.534 295.73 203.646 296.327 203.869C296.929 204.088 297.453 204.418 297.899 204.86C298.35 205.302 298.701 205.858 298.952 206.528C299.202 207.193 299.328 207.972 299.328 208.865V209.665H290.463V207.86H296.587C296.587 207.441 296.496 207.07 296.314 206.746C296.131 206.423 295.878 206.17 295.555 205.988C295.236 205.801 294.865 205.708 294.441 205.708C293.999 205.708 293.607 205.81 293.265 206.015C292.928 206.216 292.664 206.487 292.472 206.828C292.281 207.166 292.183 207.541 292.179 207.956V209.672C292.179 210.191 292.274 210.64 292.466 211.018C292.662 211.396 292.937 211.688 293.293 211.893C293.648 212.098 294.07 212.201 294.557 212.201C294.881 212.201 295.177 212.155 295.446 212.064C295.714 211.973 295.945 211.836 296.136 211.654C296.327 211.471 296.473 211.248 296.573 210.984L299.266 211.162C299.13 211.809 298.849 212.374 298.426 212.857C298.006 213.335 297.464 213.709 296.799 213.978C296.138 214.242 295.375 214.374 294.509 214.374ZM301.228 214.169V203.671H304.051V205.502H304.16C304.351 204.851 304.673 204.359 305.124 204.026C305.575 203.689 306.094 203.52 306.682 203.52C306.828 203.52 306.985 203.53 307.154 203.548C307.322 203.566 307.47 203.591 307.598 203.623V206.206C307.461 206.165 307.272 206.129 307.03 206.097C306.789 206.065 306.568 206.049 306.368 206.049C305.939 206.049 305.556 206.143 305.219 206.329C304.887 206.512 304.622 206.767 304.426 207.095C304.235 207.423 304.139 207.801 304.139 208.23V214.169H301.228ZM316.551 214.367C315.881 214.367 315.285 214.251 314.761 214.019C314.237 213.782 313.822 213.433 313.517 212.973C313.216 212.508 313.066 211.929 313.066 211.237C313.066 210.654 313.173 210.164 313.387 209.767C313.601 209.371 313.893 209.052 314.262 208.81C314.631 208.569 315.05 208.387 315.519 208.264C315.993 208.141 316.49 208.054 317.009 208.004C317.62 207.94 318.112 207.881 318.486 207.826C318.859 207.767 319.13 207.68 319.299 207.567C319.467 207.453 319.552 207.284 319.552 207.061V207.02C319.552 206.587 319.415 206.252 319.142 206.015C318.873 205.778 318.49 205.66 317.993 205.66C317.469 205.66 317.052 205.776 316.743 206.008C316.433 206.236 316.228 206.523 316.128 206.869L313.435 206.651C313.571 206.013 313.84 205.461 314.241 204.997C314.642 204.527 315.159 204.167 315.793 203.917C316.431 203.662 317.169 203.534 318.007 203.534C318.59 203.534 319.148 203.602 319.682 203.739C320.219 203.876 320.695 204.088 321.11 204.375C321.529 204.662 321.86 205.031 322.101 205.482C322.343 205.928 322.463 206.464 322.463 207.088V214.169H319.702V212.713H319.62C319.451 213.041 319.226 213.331 318.943 213.581C318.661 213.827 318.321 214.021 317.925 214.162C317.529 214.299 317.071 214.367 316.551 214.367ZM317.385 212.358C317.813 212.358 318.192 212.273 318.52 212.105C318.848 211.932 319.105 211.699 319.292 211.408C319.479 211.116 319.572 210.786 319.572 210.417V209.303C319.481 209.362 319.356 209.416 319.196 209.467C319.041 209.512 318.866 209.555 318.67 209.596C318.474 209.633 318.278 209.667 318.082 209.699C317.886 209.726 317.709 209.751 317.549 209.774C317.207 209.824 316.909 209.904 316.654 210.013C316.399 210.123 316.2 210.271 316.059 210.458C315.918 210.64 315.847 210.868 315.847 211.141C315.847 211.538 315.991 211.841 316.278 212.05C316.569 212.255 316.939 212.358 317.385 212.358ZM332.088 208.1V214.169H329.177V203.671H331.952V205.523H332.075C332.307 204.912 332.697 204.429 333.243 204.074C333.79 203.714 334.453 203.534 335.232 203.534C335.961 203.534 336.597 203.694 337.139 204.012C337.681 204.331 338.103 204.787 338.404 205.379C338.704 205.967 338.855 206.669 338.855 207.485V214.169H335.943V208.004C335.948 207.362 335.784 206.86 335.451 206.5C335.118 206.136 334.66 205.954 334.077 205.954C333.685 205.954 333.339 206.038 333.038 206.206C332.742 206.375 332.51 206.621 332.341 206.945C332.177 207.264 332.093 207.649 332.088 208.1ZM345.934 214.374C344.854 214.374 343.924 214.155 343.145 213.718C342.371 213.276 341.774 212.652 341.355 211.845C340.935 211.034 340.726 210.075 340.726 208.968C340.726 207.888 340.935 206.94 341.355 206.124C341.774 205.309 342.364 204.673 343.125 204.218C343.89 203.762 344.788 203.534 345.818 203.534C346.51 203.534 347.155 203.646 347.752 203.869C348.353 204.088 348.877 204.418 349.324 204.86C349.775 205.302 350.126 205.858 350.376 206.528C350.627 207.193 350.752 207.972 350.752 208.865V209.665H341.888V207.86H348.012C348.012 207.441 347.92 207.07 347.738 206.746C347.556 206.423 347.303 206.17 346.98 205.988C346.661 205.801 346.289 205.708 345.865 205.708C345.423 205.708 345.032 205.81 344.69 206.015C344.353 206.216 344.088 206.487 343.897 206.828C343.706 207.166 343.608 207.541 343.603 207.956V209.672C343.603 210.191 343.699 210.64 343.89 211.018C344.086 211.396 344.362 211.688 344.717 211.893C345.073 212.098 345.494 212.201 345.982 212.201C346.305 212.201 346.601 212.155 346.87 212.064C347.139 211.973 347.369 211.836 347.56 211.654C347.752 211.471 347.898 211.248 347.998 210.984L350.691 211.162C350.554 211.809 350.274 212.374 349.85 212.857C349.431 213.335 348.889 213.709 348.223 213.978C347.563 214.242 346.8 214.374 345.934 214.374ZM354.648 214.169L351.791 203.671H354.737L356.364 210.724H356.459L358.154 203.671H361.045L362.768 210.683H362.857L364.456 203.671H367.395L364.545 214.169H361.462L359.658 207.567H359.528L357.724 214.169H354.648ZM376.396 214.367C375.726 214.367 375.13 214.251 374.606 214.019C374.082 213.782 373.667 213.433 373.362 212.973C373.061 212.508 372.911 211.929 372.911 211.237C372.911 210.654 373.018 210.164 373.232 209.767C373.446 209.371 373.738 209.052 374.107 208.81C374.476 208.569 374.895 208.387 375.364 208.264C375.838 208.141 376.335 208.054 376.854 208.004C377.465 207.94 377.957 207.881 378.33 207.826C378.704 207.767 378.975 207.68 379.144 207.567C379.312 207.453 379.397 207.284 379.397 207.061V207.02C379.397 206.587 379.26 206.252 378.987 206.015C378.718 205.778 378.335 205.66 377.838 205.66C377.314 205.66 376.897 205.776 376.588 206.008C376.278 206.236 376.073 206.523 375.972 206.869L373.28 206.651C373.416 206.013 373.685 205.461 374.086 204.997C374.487 204.527 375.004 204.167 375.638 203.917C376.275 203.662 377.014 203.534 377.852 203.534C378.435 203.534 378.993 203.602 379.527 203.739C380.064 203.876 380.54 204.088 380.955 204.375C381.374 204.662 381.705 205.031 381.946 205.482C382.188 205.928 382.308 206.464 382.308 207.088V214.169H379.547V212.713H379.465C379.296 213.041 379.071 213.331 378.788 213.581C378.506 213.827 378.166 214.021 377.77 214.162C377.374 214.299 376.916 214.367 376.396 214.367ZM377.23 212.358C377.658 212.358 378.037 212.273 378.365 212.105C378.693 211.932 378.95 211.699 379.137 211.408C379.324 211.116 379.417 210.786 379.417 210.417V209.303C379.326 209.362 379.201 209.416 379.041 209.467C378.886 209.512 378.711 209.555 378.515 209.596C378.319 209.633 378.123 209.667 377.927 209.699C377.731 209.726 377.554 209.751 377.394 209.774C377.052 209.824 376.754 209.904 376.499 210.013C376.244 210.123 376.045 210.271 375.904 210.458C375.763 210.64 375.692 210.868 375.692 211.141C375.692 211.538 375.836 211.841 376.123 212.05C376.414 212.255 376.784 212.358 377.23 212.358ZM389.31 214.374C388.235 214.374 387.31 214.146 386.536 213.69C385.766 213.23 385.173 212.592 384.759 211.777C384.348 210.961 384.143 210.023 384.143 208.961C384.143 207.886 384.351 206.942 384.765 206.131C385.185 205.316 385.779 204.68 386.549 204.224C387.319 203.764 388.235 203.534 389.297 203.534C390.213 203.534 391.015 203.7 391.703 204.033C392.391 204.366 392.935 204.833 393.336 205.434C393.737 206.036 393.958 206.742 393.999 207.553H391.252C391.174 207.029 390.969 206.607 390.636 206.288C390.308 205.965 389.878 205.803 389.345 205.803C388.894 205.803 388.499 205.926 388.162 206.172C387.83 206.414 387.57 206.767 387.383 207.232C387.196 207.696 387.103 208.259 387.103 208.92C387.103 209.59 387.194 210.159 387.376 210.629C387.563 211.098 387.825 211.456 388.162 211.702C388.499 211.948 388.894 212.071 389.345 212.071C389.677 212.071 389.976 212.002 390.24 211.866C390.509 211.729 390.73 211.531 390.903 211.271C391.081 211.007 391.197 210.69 391.252 210.321H393.999C393.954 211.123 393.735 211.829 393.343 212.44C392.956 213.046 392.42 213.52 391.737 213.861C391.053 214.203 390.245 214.374 389.31 214.374ZM400.607 214.374C399.531 214.374 398.606 214.146 397.832 213.69C397.062 213.23 396.469 212.592 396.055 211.777C395.645 210.961 395.44 210.023 395.44 208.961C395.44 207.886 395.647 206.942 396.061 206.131C396.481 205.316 397.075 204.68 397.845 204.224C398.615 203.764 399.531 203.534 400.593 203.534C401.509 203.534 402.311 203.7 402.999 204.033C403.687 204.366 404.231 204.833 404.632 205.434C405.033 206.036 405.254 206.742 405.295 207.553H402.548C402.47 207.029 402.265 206.607 401.933 206.288C401.604 205.965 401.174 205.803 400.641 205.803C400.19 205.803 399.796 205.926 399.458 206.172C399.126 206.414 398.866 206.767 398.679 207.232C398.492 207.696 398.399 208.259 398.399 208.92C398.399 209.59 398.49 210.159 398.672 210.629C398.859 211.098 399.121 211.456 399.458 211.702C399.796 211.948 400.19 212.071 400.641 212.071C400.973 212.071 401.272 212.002 401.536 211.866C401.805 211.729 402.026 211.531 402.199 211.271C402.377 211.007 402.493 210.69 402.548 210.321H405.295C405.25 211.123 405.031 211.829 404.639 212.44C404.252 213.046 403.716 213.52 403.033 213.861C402.349 214.203 401.541 214.374 400.607 214.374ZM411.903 214.374C410.841 214.374 409.923 214.148 409.148 213.697C408.378 213.242 407.784 212.608 407.364 211.797C406.945 210.982 406.736 210.036 406.736 208.961C406.736 207.876 406.945 206.929 407.364 206.118C407.784 205.302 408.378 204.669 409.148 204.218C409.923 203.762 410.841 203.534 411.903 203.534C412.964 203.534 413.88 203.762 414.65 204.218C415.425 204.669 416.022 205.302 416.441 206.118C416.86 206.929 417.07 207.876 417.07 208.961C417.07 210.036 416.86 210.982 416.441 211.797C416.022 212.608 415.425 213.242 414.65 213.697C413.88 214.148 412.964 214.374 411.903 214.374ZM411.916 212.118C412.399 212.118 412.803 211.982 413.126 211.708C413.45 211.43 413.693 211.052 413.857 210.574C414.026 210.095 414.11 209.551 414.11 208.94C414.11 208.33 414.026 207.785 413.857 207.307C413.693 206.828 413.45 206.45 413.126 206.172C412.803 205.894 412.399 205.755 411.916 205.755C411.429 205.755 411.019 205.894 410.686 206.172C410.358 206.45 410.11 206.828 409.941 207.307C409.777 207.785 409.695 208.33 409.695 208.94C409.695 209.551 409.777 210.095 409.941 210.574C410.11 211.052 410.358 211.43 410.686 211.708C411.019 211.982 411.429 212.118 411.916 212.118ZM425.695 209.699V203.671H428.607V214.169H425.811V212.262H425.702C425.465 212.877 425.071 213.372 424.52 213.745C423.973 214.119 423.305 214.306 422.517 214.306C421.815 214.306 421.198 214.146 420.665 213.827C420.132 213.508 419.715 213.055 419.414 212.467C419.118 211.879 418.968 211.175 418.963 210.355V203.671H421.875V209.836C421.879 210.455 422.045 210.945 422.374 211.305C422.702 211.665 423.141 211.845 423.693 211.845C424.043 211.845 424.372 211.765 424.677 211.606C424.982 211.442 425.228 211.2 425.415 210.881C425.606 210.562 425.7 210.168 425.695 209.699ZM433.847 208.1V214.169H430.936V203.671H433.711V205.523H433.834C434.066 204.912 434.456 204.429 435.002 204.074C435.549 203.714 436.212 203.534 436.991 203.534C437.72 203.534 438.356 203.694 438.898 204.012C439.44 204.331 439.862 204.787 440.163 205.379C440.463 205.967 440.614 206.669 440.614 207.485V214.169H437.702V208.004C437.707 207.362 437.543 206.86 437.21 206.5C436.877 206.136 436.419 205.954 435.836 205.954C435.444 205.954 435.098 206.038 434.797 206.206C434.501 206.375 434.269 206.621 434.1 206.945C433.936 207.264 433.852 207.649 433.847 208.1ZM448.492 203.671V205.858H442.17V203.671H448.492ZM443.606 201.156H446.517V210.943C446.517 211.212 446.558 211.421 446.64 211.572C446.722 211.718 446.836 211.82 446.982 211.879C447.132 211.939 447.306 211.968 447.501 211.968C447.638 211.968 447.775 211.957 447.912 211.934C448.048 211.907 448.153 211.886 448.226 211.872L448.684 214.039C448.538 214.085 448.333 214.137 448.069 214.196C447.804 214.26 447.483 214.299 447.105 214.312C446.403 214.34 445.788 214.246 445.26 214.032C444.736 213.818 444.328 213.485 444.036 213.034C443.745 212.583 443.601 212.014 443.606 211.326V201.156ZM452.091 214.347C451.64 214.347 451.253 214.187 450.929 213.868C450.61 213.545 450.451 213.157 450.451 212.706C450.451 212.26 450.61 211.877 450.929 211.558C451.253 211.239 451.64 211.08 452.091 211.08C452.528 211.08 452.911 211.239 453.239 211.558C453.567 211.877 453.731 212.26 453.731 212.706C453.731 213.007 453.654 213.283 453.499 213.533C453.349 213.779 453.15 213.978 452.904 214.128C452.658 214.274 452.387 214.347 452.091 214.347Z" fill="white"/>
</svg>
