<svg xmlns="http://www.w3.org/2000/svg" xmlns:xlink="http://www.w3.org/1999/xlink" width="641" zoomAndPan="magnify" viewBox="0 0 480.75 238.499993" height="318" preserveAspectRatio="xMidYMid meet" version="1.0"><defs><g/><clipPath id="39a7e875bf"><path d="M 75.261719 75 L 140 75 L 140 162.527344 L 75.261719 162.527344 Z M 75.261719 75 " clip-rule="nonzero"/></clipPath></defs><g clip-path="url(#39a7e875bf)"><path fill="#a0e4b0" d="M 139.03125 87.171875 C 137.875 84.117188 134.988281 81.636719 131.261719 80.484375 C 129.496094 78.949219 127.097656 77.917969 124.402344 77.585938 C 122.390625 76.382812 119.855469 75.789062 117.140625 75.910156 C 114.957031 75.074219 112.347656 74.917969 109.707031 75.527344 C 107.222656 75.039062 104.40625 75.441406 101.726562 76.695312 C 97.386719 78.703125 94.625 82.648438 92.191406 86.140625 C 91.703125 86.839844 91.230469 87.539062 90.757812 88.234375 C 89.566406 88.96875 88.480469 89.859375 87.519531 90.871094 C 85.789062 92.09375 84.300781 93.628906 83.128906 95.390625 C 81.640625 96.894531 80.449219 98.65625 79.59375 100.59375 C 78.386719 102.339844 77.511719 104.277344 77.019531 106.335938 C 75.8125 109.027344 75.289062 111.820312 75.515625 114.402344 C 75.570312 114.890625 75.640625 115.398438 75.742188 115.886719 C 77.074219 122.257812 82.777344 126.480469 88.203125 129.78125 L 89.128906 130.339844 C 89.09375 130.496094 89.058594 130.636719 89.023438 130.792969 C 88.429688 133.238281 87.222656 135.507812 86.050781 137.707031 C 85.332031 139.066406 84.578125 140.464844 83.984375 141.914062 C 82.460938 145.542969 81.886719 150.519531 84.753906 153.644531 C 86.136719 155.144531 87.992188 155.894531 89.917969 156.226562 C 90.320312 156.785156 90.808594 157.273438 91.351562 157.675781 C 92.960938 158.914062 94.902344 159.316406 96.84375 159.316406 L 96.878906 159.316406 C 97.371094 159.789062 97.929688 160.1875 98.542969 160.503906 C 99.699219 161.078125 100.957031 161.375 102.253906 161.359375 C 102.933594 161.359375 103.617188 161.304688 104.28125 161.183594 C 104.839844 161.570312 105.472656 161.863281 106.117188 162.074219 C 106.855469 162.300781 107.605469 162.421875 108.375 162.40625 C 109.582031 162.390625 110.753906 162.160156 111.875 161.726562 C 112.503906 162.003906 113.171875 162.179688 113.835938 162.265625 C 114.148438 162.300781 114.464844 162.320312 114.78125 162.320312 C 118.523438 162.320312 121.761719 159.492188 123.929688 157.273438 C 129.355469 151.757812 131.558594 146.574219 130.492188 141.84375 C 129.390625 136.972656 125.015625 133.671875 120.433594 130.828125 L 120.328125 130.777344 C 115.953125 128.054688 111.457031 125.261719 109.722656 120.582031 C 109.445312 119.8125 109.25 119.027344 109.144531 118.226562 C 109.144531 118.101562 109.144531 118 109.144531 117.875 C 109.144531 117.753906 109.199219 117.648438 109.214844 117.527344 C 109.234375 117.40625 109.304688 117.300781 109.339844 117.195312 C 110.546875 115.152344 112.4375 113.265625 115.007812 111.589844 C 117.578125 109.914062 120.464844 108.640625 123.25 107.417969 C 124.230469 106.984375 125.242188 106.546875 126.222656 106.09375 C 129.707031 104.46875 133.660156 102.359375 136.460938 98.9375 C 139.382812 95.425781 140.378906 90.785156 139.03125 87.171875 Z M 132.960938 82.964844 C 134.867188 86.191406 134.691406 90.820312 132.488281 94.746094 C 130.351562 98.550781 126.871094 101.292969 123.757812 103.457031 C 122.863281 104.085938 121.953125 104.695312 121.0625 105.289062 C 118.523438 106.984375 115.898438 108.730469 113.625 110.839844 C 111.980469 112.359375 110.722656 113.949219 109.8125 115.554688 C 110.492188 113.808594 111.421875 112.183594 112.558594 110.703125 C 114.414062 108.238281 116.667969 106.074219 118.875 103.964844 C 119.644531 103.230469 120.449219 102.460938 121.21875 101.695312 C 123.949219 98.988281 126.921875 95.65625 128.375 91.480469 C 129.792969 87.414062 129.320312 83.050781 127.203125 80.101562 C 128.339844 80.136719 129.476562 80.292969 130.5625 80.574219 C 130.738281 80.625 130.929688 80.675781 131.105469 80.730469 C 131.824219 81.394531 132.453125 82.144531 132.960938 82.964844 Z M 95.183594 156.367188 L 95.671875 156.3125 C 97.230469 156.175781 98.769531 155.929688 100.292969 155.582031 C 100.625 156.558594 101.0625 157.484375 101.585938 158.355469 C 100.1875 158.707031 98.578125 159.019531 96.96875 159.039062 C 96.234375 158.269531 95.621094 157.363281 95.183594 156.367188 Z M 91.824219 132.015625 C 92.402344 132.382812 92.960938 132.730469 93.519531 133.113281 C 94.117188 134.546875 94.5 136.066406 94.675781 137.601562 C 94.957031 140.097656 94.605469 142.644531 94.257812 145.125 C 94.046875 146.644531 93.820312 148.230469 93.75 149.785156 C 93.660156 151.808594 93.921875 154.097656 94.726562 156.105469 C 93.277344 156.210938 91.648438 156.226562 90.074219 155.964844 C 88.183594 153.3125 88.132812 149.4375 88.8125 146.347656 C 89.148438 144.84375 89.636719 143.328125 90.109375 141.878906 C 90.878906 139.488281 91.683594 137.023438 91.839844 134.476562 C 91.910156 133.65625 91.910156 132.835938 91.824219 132.015625 Z M 77.019531 108.308594 C 77.074219 107.664062 77.179688 107.035156 77.320312 106.40625 C 77.703125 105.550781 78.160156 104.714844 78.648438 103.910156 C 78.648438 103.910156 78.648438 103.929688 78.648438 103.929688 C 77.722656 110.371094 81.621094 116.304688 85.578125 121.246094 L 86.453125 122.328125 C 87.46875 123.601562 88.5 124.875 89.460938 126.183594 C 89.480469 126.726562 89.480469 127.265625 89.445312 127.808594 C 88.882812 127.300781 88.324219 126.8125 87.765625 126.324219 C 87.414062 126.027344 87.066406 125.714844 86.714844 125.417969 C 82.007812 121.261719 77.179688 116.164062 76.96875 109.777344 C 76.96875 109.289062 76.96875 108.796875 77.019531 108.308594 Z M 85.488281 93.664062 L 85.472656 93.683594 C 85.226562 94.136719 85.015625 94.589844 84.84375 95.0625 C 84.039062 95.722656 83.25 96.40625 82.496094 97.136719 C 82.761719 96.597656 83.058594 96.054688 83.390625 95.550781 C 84.039062 94.886719 84.753906 94.257812 85.488281 93.664062 Z M 89.652344 89.859375 C 89.375 90.277344 89.078125 90.714844 88.78125 91.132812 C 88.027344 91.570312 87.292969 92.007812 86.59375 92.496094 C 86.941406 92.007812 87.328125 91.535156 87.746094 91.097656 C 88.359375 90.644531 88.988281 90.242188 89.652344 89.859375 Z M 90.964844 88.445312 C 92.207031 87.675781 93.519531 87.046875 94.886719 86.558594 C 94.535156 86.925781 94.167969 87.292969 93.800781 87.660156 C 92.785156 88.007812 91.804688 88.425781 90.84375 88.882812 L 90.582031 89.003906 L 90.773438 88.722656 Z M 109.6875 75.824219 C 110.632812 76.015625 111.5625 76.347656 112.402344 76.820312 L 112.488281 76.871094 C 109.445312 77.988281 106.75 79.875 104.300781 81.585938 C 103.496094 82.144531 102.691406 82.738281 101.902344 83.3125 C 101.078125 83.90625 100.222656 84.535156 99.363281 85.128906 C 98.316406 85.304688 97.265625 85.53125 96.234375 85.828125 C 96.144531 85.84375 96.058594 85.878906 95.953125 85.914062 L 96.179688 85.667969 C 96.84375 84.972656 97.546875 84.253906 98.226562 83.558594 C 101.21875 80.574219 104.597656 77.203125 109.109375 75.964844 C 109.339844 75.910156 109.511719 75.859375 109.6875 75.824219 Z M 117.074219 76.207031 C 117.980469 76.558594 118.820312 77.046875 119.574219 77.65625 L 119.644531 77.726562 C 118.175781 78.007812 116.738281 78.40625 115.339844 78.949219 C 114.726562 78.179688 113.992188 77.5 113.1875 76.941406 C 114.273438 76.59375 115.394531 76.347656 116.511719 76.242188 C 116.703125 76.226562 116.898438 76.226562 117.074219 76.207031 Z M 124.28125 77.867188 C 125.105469 78.371094 125.855469 79 126.484375 79.71875 L 126.554688 79.804688 C 125.070312 79.820312 123.5625 79.980469 122.113281 80.277344 C 121.640625 79.402344 121.042969 78.617188 120.34375 77.917969 C 121.078125 77.8125 121.8125 77.761719 122.550781 77.761719 C 122.953125 77.761719 123.335938 77.78125 123.738281 77.8125 C 123.914062 77.832031 124.105469 77.847656 124.28125 77.867188 Z M 104.839844 149.191406 C 104.316406 146.75 103.773438 144.199219 102.636719 141.914062 C 101.027344 138.683594 98.457031 136.238281 95.535156 134.109375 C 94.746094 133.082031 93.90625 132.085938 92.996094 131.160156 C 92.402344 130.007812 91.738281 128.890625 91 127.808594 C 90.617188 126.570312 90.160156 125.347656 89.621094 124.160156 C 89.183594 120.582031 87.972656 117.019531 86.800781 113.53125 L 86.347656 112.203125 C 84.683594 107.246094 83.269531 101.675781 84.613281 96.703125 C 85.558594 95.671875 86.503906 94.605469 87.378906 93.507812 L 87.484375 93.386719 L 87.78125 93.140625 C 89.199219 92.074219 90.667969 90.957031 92.015625 89.753906 L 92.140625 89.648438 L 92.488281 89.476562 C 94.082031 88.671875 95.707031 87.835938 97.246094 86.875 L 97.386719 86.785156 L 97.773438 86.664062 C 99.46875 86.140625 101.238281 85.601562 102.917969 84.917969 L 103.074219 84.867188 L 103.460938 84.8125 C 105.226562 84.585938 107.046875 84.359375 108.8125 83.992188 C 110.738281 83.574219 112.664062 83.035156 114.519531 82.492188 C 115.269531 82.28125 116.023438 82.054688 116.792969 81.847656 C 117.527344 83.539062 117.914062 85.355469 117.929688 87.207031 C 117.980469 91.550781 116.335938 95.671875 114.726562 99.109375 C 114.273438 100.089844 113.78125 101.082031 113.308594 102.042969 C 111.964844 104.765625 110.5625 107.59375 109.652344 110.5625 C 108.867188 113.128906 108.585938 115.484375 108.777344 117.613281 C 108.550781 118.050781 108.359375 118.503906 108.183594 118.957031 C 106.453125 123.742188 108.203125 129.066406 109.722656 133.761719 L 109.757812 133.867188 C 111.402344 138.910156 112.628906 144.183594 110.386719 148.511719 C 109.410156 150.398438 107.886719 151.933594 105.804688 153.121094 C 105.417969 151.863281 105.121094 150.519531 104.839844 149.191406 Z M 105.542969 153.347656 C 103.949219 154.183594 102.269531 154.8125 100.519531 155.230469 C 100.203125 154.273438 99.996094 153.277344 99.855469 152.28125 C 99.664062 150.761719 99.59375 149.175781 99.539062 147.636719 C 99.453125 145.125 99.347656 142.542969 98.628906 140.097656 C 98.070312 138.265625 97.230469 136.535156 96.128906 134.964844 C 98.699219 136.9375 100.941406 139.191406 102.355469 142.070312 C 103.476562 144.320312 104.019531 146.835938 104.542969 149.28125 C 104.824219 150.605469 105.140625 152.003906 105.542969 153.347656 Z M 94.675781 133.5 C 94.378906 133.289062 94.097656 133.097656 93.800781 132.90625 C 93.695312 132.625 93.574219 132.347656 93.449219 132.085938 C 93.855469 132.539062 94.273438 133.011719 94.675781 133.5 Z M 92.242188 130.410156 C 92 130.164062 91.738281 129.921875 91.472656 129.675781 C 91.402344 129.378906 91.332031 129.082031 91.265625 128.804688 C 91.613281 129.328125 91.929688 129.867188 92.242188 130.410156 Z M 89.777344 126.082031 C 89.757812 125.785156 89.742188 125.46875 89.722656 125.171875 C 89.96875 125.75 90.179688 126.34375 90.390625 126.9375 C 90.195312 126.65625 89.988281 126.359375 89.777344 126.082031 Z M 81.5 100.125 C 82.253906 99.269531 83.023438 98.429688 83.792969 97.609375 L 84.175781 97.191406 C 83.058594 102.113281 84.441406 107.507812 86.050781 112.34375 C 86.207031 112.777344 86.347656 113.214844 86.503906 113.667969 C 87.570312 116.8125 88.65625 120.023438 89.164062 123.234375 C 88.308594 121.417969 87.328125 119.640625 86.363281 117.875 L 85.699219 116.652344 C 82.953125 111.574219 80.378906 105.742188 81.5 100.125 Z M 84.808594 96.054688 C 84.894531 95.792969 84.984375 95.515625 85.105469 95.253906 C 85.558594 94.886719 86.015625 94.539062 86.46875 94.1875 C 85.925781 94.832031 85.367188 95.460938 84.808594 96.054688 Z M 88.148438 92.511719 C 88.429688 92.128906 88.710938 91.746094 88.972656 91.359375 C 89.636719 90.976562 90.320312 90.609375 90.984375 90.261719 C 90.074219 91.046875 89.113281 91.796875 88.148438 92.511719 Z M 96.164062 87.207031 C 95.113281 87.816406 94.027344 88.375 92.960938 88.933594 C 93.3125 88.601562 93.644531 88.269531 93.976562 87.9375 C 94.695312 87.675781 95.429688 87.433594 96.164062 87.207031 Z M 98.316406 86.210938 C 98.71875 85.949219 99.101562 85.6875 99.488281 85.40625 C 100.238281 85.285156 101.011719 85.164062 101.761719 85.058594 C 100.625 85.496094 99.46875 85.863281 98.316406 86.210938 Z M 104.070312 84.464844 C 105.488281 83.855469 106.890625 83.15625 108.234375 82.511719 C 109.109375 82.089844 110.003906 81.65625 110.894531 81.234375 C 112.277344 80.589844 113.730469 79.910156 115.253906 79.332031 C 115.796875 80.046875 116.265625 80.816406 116.636719 81.621094 C 115.882812 81.828125 115.128906 82.039062 114.394531 82.25 C 112.539062 82.789062 110.632812 83.332031 108.707031 83.730469 C 107.203125 84.0625 105.613281 84.273438 104.070312 84.464844 Z M 118.210938 87.257812 C 118.191406 85.390625 117.808594 83.539062 117.074219 81.828125 L 117.335938 81.757812 C 118.804688 81.359375 120.363281 80.9375 121.953125 80.640625 C 123.195312 82.980469 123.667969 85.949219 123.179688 88.917969 C 122.480469 93.210938 120.152344 96.980469 117.964844 100.089844 C 117.335938 100.976562 116.6875 101.867188 116.058594 102.722656 C 114.253906 105.183594 112.382812 107.714844 110.984375 110.492188 C 109.96875 112.480469 109.320312 114.402344 109.023438 116.21875 C 109.074219 114.351562 109.375 112.5 109.933594 110.71875 C 110.824219 107.785156 112.207031 104.957031 113.554688 102.234375 C 114.027344 101.273438 114.519531 100.28125 114.972656 99.300781 C 116.617188 95.8125 118.261719 91.65625 118.210938 87.257812 Z M 110.652344 148.722656 C 112.941406 144.285156 111.71875 138.945312 110.054688 133.832031 L 110.019531 133.726562 C 108.429688 128.875 106.785156 123.847656 108.445312 119.183594 C 108.429688 119.308594 108.394531 119.410156 108.375 119.535156 C 107.5 124.542969 110.144531 129.484375 112.46875 133.847656 L 112.523438 133.953125 C 115.023438 138.632812 117.140625 143.625 115.691406 148.265625 C 114.605469 151.742188 111.734375 154.5 107.117188 156.507812 C 106.644531 155.617188 106.257812 154.671875 105.960938 153.714844 C 105.945312 153.644531 105.910156 153.554688 105.890625 153.484375 C 108.042969 152.265625 109.636719 150.660156 110.652344 148.722656 Z M 111.246094 110.597656 C 112.644531 107.855469 114.5 105.324219 116.300781 102.882812 C 116.933594 102.027344 117.578125 101.136719 118.210938 100.246094 C 120.414062 97.101562 122.777344 93.296875 123.476562 88.953125 C 123.964844 85.949219 123.492188 82.964844 122.25 80.574219 C 123.6875 80.292969 125.136719 80.136719 126.609375 80.117188 L 126.800781 80.117188 C 128.988281 83 129.496094 87.363281 128.078125 91.414062 C 126.644531 95.515625 123.6875 98.832031 120.992188 101.503906 C 120.222656 102.269531 119.433594 103.019531 118.664062 103.769531 C 116.460938 105.882812 114.183594 108.066406 112.3125 110.542969 C 110.964844 112.34375 109.984375 114.105469 109.390625 115.851562 C 109.757812 114.019531 110.386719 112.253906 111.246094 110.597656 Z M 121.796875 80.328125 C 120.238281 80.625 118.699219 81.042969 117.246094 81.445312 L 116.949219 81.53125 C 116.582031 80.710938 116.109375 79.925781 115.566406 79.210938 C 116.984375 78.667969 118.453125 78.25 119.960938 77.988281 C 120.675781 78.667969 121.308594 79.457031 121.796875 80.328125 Z M 115.058594 79.070312 C 113.574219 79.648438 112.136719 80.308594 110.773438 80.957031 C 109.882812 81.375 108.988281 81.8125 108.113281 82.230469 C 106.433594 83.050781 104.71875 83.890625 102.96875 84.605469 C 102.007812 84.726562 101.042969 84.847656 100.082031 85.007812 C 100.765625 84.515625 101.429688 84.027344 102.09375 83.558594 C 102.863281 83 103.667969 82.40625 104.472656 81.847656 C 106.976562 80.101562 109.722656 78.164062 112.820312 77.082031 C 113.660156 77.621094 114.414062 78.285156 115.058594 79.070312 Z M 96.339844 86.105469 C 97.144531 85.878906 97.949219 85.703125 98.769531 85.546875 C 98.261719 85.894531 97.753906 86.226562 97.246094 86.542969 C 96.339844 86.839844 95.410156 87.117188 94.5 87.433594 C 94.851562 87.066406 95.21875 86.71875 95.566406 86.351562 C 95.796875 86.261719 96.058594 86.175781 96.339844 86.105469 Z M 90.984375 89.160156 C 91.738281 88.792969 92.507812 88.480469 93.277344 88.183594 C 92.839844 88.601562 92.402344 89.019531 91.964844 89.421875 C 91.105469 89.859375 90.25 90.3125 89.390625 90.785156 C 89.6875 90.363281 89.96875 89.945312 90.25 89.527344 C 90.476562 89.40625 90.738281 89.28125 90.984375 89.160156 Z M 86.242188 93.105469 C 86.925781 92.617188 87.625 92.164062 88.34375 91.746094 C 87.992188 92.234375 87.625 92.722656 87.257812 93.210938 C 86.628906 93.699219 85.980469 94.171875 85.351562 94.675781 C 85.472656 94.398438 85.613281 94.117188 85.753906 93.839844 C 85.875 93.628906 85.996094 93.402344 86.121094 93.191406 Z M 82.269531 97.800781 C 83.023438 97.050781 83.808594 96.316406 84.632812 95.65625 C 84.527344 95.949219 84.421875 96.28125 84.335938 96.597656 L 83.566406 97.417969 C 82.917969 98.097656 82.269531 98.796875 81.640625 99.511719 C 81.710938 99.214844 81.796875 98.917969 81.902344 98.621094 C 81.972656 98.394531 82.058594 98.152344 82.148438 97.921875 Z M 81.621094 98.515625 C 81.464844 99.007812 81.34375 99.496094 81.238281 99.984375 C 80.554688 100.769531 79.890625 101.589844 79.296875 102.425781 C 79.453125 101.851562 79.664062 101.273438 79.890625 100.714844 C 80.433594 99.929688 81.011719 99.199219 81.640625 98.480469 Z M 79.171875 103.109375 C 79.785156 102.234375 80.433594 101.378906 81.117188 100.578125 C 80.222656 106.128906 82.742188 111.820312 85.4375 116.757812 L 86.101562 117.980469 C 87.238281 120.039062 88.375 122.117188 89.320312 124.246094 C 89.375 124.703125 89.410156 125.171875 89.445312 125.625 C 88.550781 124.4375 87.625 123.289062 86.695312 122.117188 L 85.824219 121.035156 C 81.921875 116.128906 78.054688 110.265625 78.964844 103.945312 C 79 103.703125 79.035156 103.457031 79.085938 103.210938 Z M 89.792969 126.621094 C 90.109375 127.058594 90.425781 127.511719 90.722656 127.949219 C 90.863281 128.382812 90.984375 128.839844 91.089844 129.292969 C 90.652344 128.875 90.195312 128.472656 89.757812 128.070312 C 89.777344 127.582031 89.792969 127.109375 89.792969 126.621094 Z M 91.195312 129.832031 C 91.300781 130.355469 91.386719 130.898438 91.457031 131.4375 C 90.828125 131.039062 90.179688 130.652344 89.53125 130.269531 L 89.445312 130.21875 C 89.566406 129.640625 89.636719 129.046875 89.6875 128.472656 C 90.214844 128.90625 90.703125 129.363281 91.195312 129.832031 Z M 91.578125 130.199219 C 91.964844 130.582031 92.347656 130.96875 92.734375 131.351562 C 92.945312 131.769531 93.136719 132.191406 93.328125 132.609375 C 92.820312 132.277344 92.3125 131.964844 91.804688 131.632812 C 91.753906 131.140625 91.667969 130.671875 91.578125 130.199219 Z M 94.082031 149.785156 C 94.152344 148.25 94.378906 146.679688 94.589844 145.160156 C 94.9375 142.679688 95.289062 140.097656 95.007812 137.566406 C 94.851562 136.136719 94.5 134.738281 93.992188 133.410156 C 94.449219 133.707031 94.886719 134.023438 95.324219 134.335938 C 96.652344 136.101562 97.703125 138.019531 98.332031 140.148438 C 99.050781 142.558594 99.136719 145.140625 99.226562 147.621094 C 99.277344 149.15625 99.347656 150.746094 99.539062 152.300781 C 99.679688 153.3125 99.890625 154.308594 100.203125 155.285156 C 98.699219 155.632812 97.179688 155.859375 95.65625 156.015625 C 95.464844 156.035156 95.269531 156.050781 95.0625 156.070312 C 94.257812 154.097656 93.992188 151.808594 94.082031 149.785156 Z M 100.609375 155.511719 C 102.355469 155.109375 104.035156 154.480469 105.628906 153.644531 C 105.648438 153.695312 105.664062 153.75 105.683594 153.800781 C 105.996094 154.777344 106.382812 155.71875 106.855469 156.628906 C 105.4375 157.222656 103.984375 157.726562 102.496094 158.128906 C 102.304688 158.183594 102.113281 158.234375 101.917969 158.285156 C 101.378906 157.414062 100.941406 156.488281 100.609375 155.511719 Z M 102.566406 158.425781 C 104.070312 158.007812 105.542969 157.5 106.992188 156.90625 C 107.484375 157.816406 108.078125 158.652344 108.761719 159.421875 C 107.429688 160.015625 105.910156 160.589844 104.335938 160.886719 C 103.441406 160.257812 102.691406 159.472656 102.09375 158.566406 Z M 107.273438 156.769531 C 111.945312 154.707031 114.867188 151.878906 115.988281 148.335938 C 117.476562 143.570312 115.339844 138.527344 112.804688 133.777344 L 112.75 133.671875 C 110.335938 129.171875 107.851562 124.492188 108.671875 119.621094 C 108.671875 119.742188 108.671875 119.847656 108.671875 119.96875 C 108.691406 125.050781 112.136719 129.464844 115.199219 133.359375 L 115.269531 133.445312 C 118.558594 137.636719 121.5 142.15625 120.871094 146.992188 C 120.257812 151.6875 116.460938 155.71875 109.582031 159.003906 C 109.410156 159.089844 109.234375 159.175781 109.042969 159.246094 C 108.359375 158.511719 107.765625 157.675781 107.273438 156.769531 Z M 109.722656 159.300781 C 116.703125 155.964844 120.554688 151.84375 121.183594 147.046875 C 121.832031 142.105469 118.839844 137.496094 115.515625 133.273438 L 115.445312 133.183594 C 112.277344 129.152344 109.023438 124.996094 108.988281 120.058594 C 109.007812 120.179688 109.023438 120.285156 109.042969 120.40625 C 109.933594 125.398438 114.117188 129.152344 117.789062 132.453125 L 117.878906 132.523438 C 121.832031 136.066406 125.523438 140.027344 125.75 144.898438 C 125.960938 149.609375 122.933594 154.253906 116.722656 158.6875 C 115.375 159.648438 113.695312 160.730469 111.875 161.410156 C 110.894531 160.941406 110.019531 160.3125 109.269531 159.507812 Z M 130.511719 80.277344 C 129.355469 79.996094 128.164062 79.839844 126.957031 79.820312 C 126.886719 79.734375 126.800781 79.628906 126.730469 79.542969 C 126.222656 78.949219 125.644531 78.425781 125.015625 77.988281 C 127.117188 78.339844 129.003906 79.140625 130.511719 80.277344 Z M 123.617188 77.5 C 122.425781 77.414062 121.21875 77.464844 120.046875 77.65625 C 119.960938 77.570312 119.871094 77.5 119.765625 77.429688 C 119.171875 76.925781 118.507812 76.503906 117.808594 76.191406 C 119.941406 76.191406 121.9375 76.644531 123.617188 77.5 Z M 112.871094 75.457031 C 114.0625 75.457031 115.234375 75.613281 116.355469 75.964844 C 115.164062 76.085938 113.992188 76.347656 112.871094 76.730469 C 112.769531 76.664062 112.664062 76.609375 112.574219 76.539062 C 111.894531 76.15625 111.175781 75.875 110.421875 75.667969 C 111.210938 75.527344 112.050781 75.457031 112.871094 75.457031 Z M 92.4375 86.316406 C 94.851562 82.859375 97.597656 78.949219 101.832031 76.957031 C 104.210938 75.839844 106.679688 75.441406 108.9375 75.703125 C 104.40625 76.976562 101.027344 80.34375 98.035156 83.332031 C 97.335938 84.027344 96.652344 84.746094 95.972656 85.441406 L 95.359375 86.089844 C 93.976562 86.542969 92.628906 87.136719 91.367188 87.851562 C 91.738281 87.328125 92.085938 86.820312 92.4375 86.316406 Z M 90.320312 88.882812 L 90.039062 89.300781 C 89.6875 89.492188 89.339844 89.683594 89.007812 89.875 C 89.410156 89.542969 89.847656 89.195312 90.320312 88.882812 Z M 86.574219 91.988281 C 86.46875 92.128906 86.363281 92.269531 86.257812 92.40625 C 86.136719 92.582031 86.015625 92.773438 85.890625 92.964844 C 85.367188 93.351562 84.878906 93.75 84.40625 94.152344 C 85.070312 93.386719 85.789062 92.652344 86.574219 91.988281 Z M 82.394531 96.667969 C 82.304688 96.824219 82.234375 96.980469 82.164062 97.136719 C 82.078125 97.347656 81.992188 97.539062 81.902344 97.75 C 81.464844 98.21875 81.046875 98.691406 80.644531 99.179688 C 81.152344 98.273438 81.726562 97.433594 82.394531 96.667969 Z M 79.085938 101.972656 C 79.035156 102.148438 78.980469 102.304688 78.945312 102.480469 C 78.894531 102.6875 78.839844 102.917969 78.789062 103.125 C 78.4375 103.667969 78.105469 104.207031 77.792969 104.75 C 78.140625 103.789062 78.578125 102.863281 79.085938 101.972656 Z M 88.34375 129.535156 C 83.003906 126.253906 77.355469 122.082031 76.042969 115.816406 C 75.9375 115.34375 75.867188 114.855469 75.832031 114.382812 C 75.640625 112.273438 75.972656 110.019531 76.777344 107.769531 C 76.757812 107.945312 76.742188 108.117188 76.722656 108.292969 C 76.6875 108.78125 76.671875 109.289062 76.6875 109.777344 C 76.898438 116.269531 81.78125 121.4375 86.523438 125.625 C 86.871094 125.921875 87.222656 126.238281 87.570312 126.535156 C 88.203125 127.074219 88.8125 127.632812 89.445312 128.175781 C 89.390625 128.785156 89.320312 129.398438 89.199219 130.007812 Z M 84.984375 153.453125 C 82.199219 150.429688 82.796875 145.578125 84.265625 142.035156 C 84.859375 140.605469 85.613281 139.207031 86.328125 137.863281 C 87.503906 135.644531 88.726562 133.359375 89.320312 130.878906 C 89.355469 130.757812 89.375 130.636719 89.410156 130.53125 C 90.109375 130.949219 90.828125 131.386719 91.527344 131.824219 C 91.613281 132.695312 91.632812 133.585938 91.578125 134.460938 C 91.421875 136.972656 90.617188 139.417969 89.863281 141.789062 C 89.390625 143.257812 88.902344 144.777344 88.550781 146.292969 C 87.871094 149.347656 87.90625 153.171875 89.6875 155.894531 C 87.90625 155.527344 86.242188 154.8125 84.984375 153.453125 Z M 90.355469 156.3125 C 91.175781 156.417969 92.015625 156.472656 92.855469 156.472656 C 93.554688 156.472656 94.238281 156.4375 94.867188 156.382812 C 95.269531 157.363281 95.847656 158.25 96.566406 159.039062 C 94.78125 159.003906 92.996094 158.582031 91.527344 157.449219 C 91.089844 157.117188 90.6875 156.734375 90.355469 156.3125 Z M 98.664062 160.257812 C 98.175781 160.015625 97.71875 159.699219 97.316406 159.335938 C 98.824219 159.265625 100.328125 159.019531 101.78125 158.636719 C 102.355469 159.527344 103.074219 160.3125 103.914062 160.941406 C 102.148438 161.21875 100.308594 161.113281 98.664062 160.257812 Z M 106.1875 161.796875 C 105.664062 161.636719 105.15625 161.410156 104.703125 161.113281 C 106.171875 160.78125 107.605469 160.292969 108.972656 159.648438 C 109.6875 160.417969 110.527344 161.0625 111.472656 161.550781 C 109.777344 162.128906 107.957031 162.335938 106.1875 161.796875 Z M 120.167969 131.089844 L 120.273438 131.160156 C 124.789062 133.96875 129.128906 137.21875 130.195312 141.984375 C 131.226562 146.589844 129.039062 151.6875 123.703125 157.117188 C 121.394531 159.457031 117.878906 162.527344 113.871094 162.003906 C 113.328125 161.933594 112.785156 161.796875 112.277344 161.601562 C 114.027344 160.90625 115.621094 159.875 116.898438 158.949219 C 123.195312 154.464844 126.277344 149.734375 126.046875 144.898438 C 125.820312 139.921875 122.078125 135.90625 118.070312 132.3125 L 117.980469 132.226562 C 114.167969 128.804688 110.230469 125.277344 109.339844 120.40625 C 109.375 120.511719 109.410156 120.632812 109.445312 120.738281 C 111.191406 125.503906 115.953125 128.472656 120.167969 131.089844 Z M 136.230469 98.796875 C 133.484375 102.164062 129.566406 104.261719 126.117188 105.867188 C 125.136719 106.320312 124.125 106.773438 123.144531 107.191406 C 120.34375 108.414062 117.457031 109.6875 114.867188 111.382812 C 112.996094 112.605469 111.457031 113.929688 110.300781 115.363281 C 111.28125 113.773438 112.46875 112.324219 113.851562 111.066406 C 116.109375 108.972656 118.71875 107.226562 121.238281 105.535156 C 122.128906 104.941406 123.039062 104.328125 123.929688 103.703125 C 127.082031 101.503906 130.597656 98.742188 132.765625 94.886719 C 135.023438 90.871094 135.199219 86.125 133.222656 82.808594 C 132.820312 82.144531 132.347656 81.515625 131.804688 80.972656 C 135.148438 82.179688 137.703125 84.464844 138.75 87.257812 C 140.0625 90.800781 139.066406 95.324219 136.230469 98.796875 Z M 136.230469 98.796875 " fill-opacity="1" fill-rule="nonzero"/></g><g fill="#ffffff" fill-opacity="1"><g transform="translate(143.505304, 131.565757)"><g><path d="M 11.222656 0.519531 C 16.332031 0.519531 19.648438 -1.835938 19.648438 -5.429688 C 19.648438 -8.664062 16.933594 -10.863281 11.699219 -11.902344 C 7.386719 -12.738281 5.910156 -13.578125 5.910156 -15.335938 C 5.910156 -17.171875 7.667969 -18.289062 10.664062 -18.289062 C 13.816406 -18.289062 15.695312 -17.050781 15.933594 -14.777344 L 19.25 -14.777344 C 18.96875 -18.847656 15.734375 -21.246094 10.621094 -21.246094 C 5.628906 -21.246094 2.597656 -19.046875 2.597656 -15.335938 C 2.597656 -12.058594 5.113281 -10.0625 10.460938 -9.183594 C 14.496094 -8.507812 16.332031 -7.386719 16.332031 -5.511719 C 16.332031 -3.632812 14.417969 -2.476562 11.261719 -2.476562 C 7.707031 -2.476562 5.589844 -3.992188 5.472656 -6.507812 L 2.15625 -6.507812 C 2.238281 -2.277344 5.789062 0.519531 11.222656 0.519531 Z M 11.222656 0.519531 "/></g></g></g><g fill="#ffffff" fill-opacity="1"><g transform="translate(165.308781, 131.565757)"><g><path d="M 10.503906 0.320312 C 13.855469 0.320312 16.492188 -0.757812 18.371094 -2.875 L 18.730469 0 L 21.484375 0 L 21.484375 -13.179688 C 21.484375 -17.96875 17.851562 -21.246094 12.417969 -21.246094 C 7.90625 -21.246094 4.511719 -18.808594 3.59375 -14.816406 L 6.988281 -14.816406 C 7.667969 -16.851562 9.785156 -18.128906 12.460938 -18.128906 C 15.972656 -18.128906 18.128906 -16.171875 18.128906 -12.9375 L 18.128906 -12.179688 L 9.664062 -12.179688 C 5.351562 -12.179688 2.515625 -9.742188 2.515625 -5.988281 C 2.515625 -2.078125 5.511719 0.320312 10.503906 0.320312 Z M 5.871094 -6.03125 C 5.871094 -7.988281 7.46875 -9.226562 9.785156 -9.226562 L 18.171875 -9.226562 C 18.050781 -5.390625 14.933594 -2.675781 10.621094 -2.675781 C 7.707031 -2.675781 5.871094 -3.992188 5.871094 -6.03125 Z M 5.871094 -6.03125 "/></g></g></g><g fill="#ffffff" fill-opacity="1"><g transform="translate(190.067306, 131.565757)"><g><path d="M 3.714844 0 L 7.070312 0 L 7.070312 -11.023438 C 7.070312 -15.296875 9.464844 -18.050781 13.058594 -18.050781 C 16.53125 -18.050781 18.730469 -15.414062 18.730469 -11.300781 L 18.730469 0 L 22.082031 0 L 22.082031 -11.023438 C 22.082031 -15.296875 24.480469 -18.050781 28.074219 -18.050781 C 31.546875 -18.050781 33.746094 -15.414062 33.746094 -11.300781 L 33.746094 0 L 37.097656 0 L 37.097656 -11.859375 C 37.097656 -17.652344 33.746094 -21.246094 28.511719 -21.246094 C 25.160156 -21.246094 22.441406 -19.808594 20.804688 -17.171875 C 19.410156 -19.847656 16.851562 -21.246094 13.539062 -21.246094 C 10.664062 -21.246094 8.347656 -20.167969 6.789062 -18.128906 L 6.46875 -20.726562 L 3.714844 -20.726562 Z M 3.714844 0 "/></g></g></g><g fill="#ffffff" fill-opacity="1"><g transform="translate(230.479605, 131.565757)"><g><path d="M 15.015625 0.519531 C 21.125 0.519531 25.558594 -4.074219 25.558594 -10.382812 C 25.558594 -16.652344 21.125 -21.246094 15.015625 -21.246094 C 11.621094 -21.246094 8.746094 -19.847656 6.867188 -17.53125 L 6.46875 -20.726562 L 3.714844 -20.726562 L 3.714844 7.988281 L 7.070312 7.988281 L 7.070312 -2.957031 C 8.945312 -0.796875 11.742188 0.519531 15.015625 0.519531 Z M 6.949219 -10.382812 C 6.949219 -14.855469 10.101562 -18.050781 14.574219 -18.050781 C 19.089844 -18.050781 22.203125 -14.855469 22.203125 -10.382812 C 22.203125 -5.871094 19.089844 -2.714844 14.574219 -2.714844 C 10.101562 -2.714844 6.949219 -5.871094 6.949219 -10.382812 Z M 6.949219 -10.382812 "/></g></g></g><g fill="#ffffff" fill-opacity="1"><g transform="translate(258.113311, 131.565757)"><g><path d="M 3.714844 0 L 7.070312 0 L 7.070312 -29.550781 L 3.714844 -29.550781 Z M 3.714844 0 "/></g></g></g><g fill="#ffffff" fill-opacity="1"><g transform="translate(268.895253, 131.565757)"><g><path d="M 11.222656 0.519531 C 16.332031 0.519531 19.648438 -1.835938 19.648438 -5.429688 C 19.648438 -8.664062 16.933594 -10.863281 11.699219 -11.902344 C 7.386719 -12.738281 5.910156 -13.578125 5.910156 -15.335938 C 5.910156 -17.171875 7.667969 -18.289062 10.664062 -18.289062 C 13.816406 -18.289062 15.695312 -17.050781 15.933594 -14.777344 L 19.25 -14.777344 C 18.96875 -18.847656 15.734375 -21.246094 10.621094 -21.246094 C 5.628906 -21.246094 2.597656 -19.046875 2.597656 -15.335938 C 2.597656 -12.058594 5.113281 -10.0625 10.460938 -9.183594 C 14.496094 -8.507812 16.332031 -7.386719 16.332031 -5.511719 C 16.332031 -3.632812 14.417969 -2.476562 11.261719 -2.476562 C 7.707031 -2.476562 5.589844 -3.992188 5.472656 -6.507812 L 2.15625 -6.507812 C 2.238281 -2.277344 5.789062 0.519531 11.222656 0.519531 Z M 11.222656 0.519531 "/></g></g></g><g fill="#ffffff" fill-opacity="1"><g transform="translate(290.698729, 131.565757)"><g><path d="M 12.660156 0 L 15.773438 0 L 15.773438 -3.234375 L 12.820312 -3.234375 C 10.0625 -3.234375 8.785156 -4.632812 8.785156 -7.628906 L 8.785156 -17.652344 L 15.496094 -17.652344 L 15.496094 -20.726562 L 8.785156 -20.726562 L 8.785156 -25.878906 L 6.191406 -25.878906 L 5.871094 -23.082031 C 5.628906 -21.207031 5.070312 -20.726562 3.15625 -20.726562 L 1.078125 -20.726562 L 1.078125 -17.652344 L 5.429688 -17.652344 L 5.429688 -7.46875 C 5.429688 -2.714844 8.066406 0 12.660156 0 Z M 12.660156 0 "/></g></g></g><g fill="#ffffff" fill-opacity="1"><g transform="translate(308.429023, 131.565757)"><g><path d="M 10.503906 0.320312 C 13.855469 0.320312 16.492188 -0.757812 18.371094 -2.875 L 18.730469 0 L 21.484375 0 L 21.484375 -13.179688 C 21.484375 -17.96875 17.851562 -21.246094 12.417969 -21.246094 C 7.90625 -21.246094 4.511719 -18.808594 3.59375 -14.816406 L 6.988281 -14.816406 C 7.667969 -16.851562 9.785156 -18.128906 12.460938 -18.128906 C 15.972656 -18.128906 18.128906 -16.171875 18.128906 -12.9375 L 18.128906 -12.179688 L 9.664062 -12.179688 C 5.351562 -12.179688 2.515625 -9.742188 2.515625 -5.988281 C 2.515625 -2.078125 5.511719 0.320312 10.503906 0.320312 Z M 5.871094 -6.03125 C 5.871094 -7.988281 7.46875 -9.226562 9.785156 -9.226562 L 18.171875 -9.226562 C 18.050781 -5.390625 14.933594 -2.675781 10.621094 -2.675781 C 7.707031 -2.675781 5.871094 -3.992188 5.871094 -6.03125 Z M 5.871094 -6.03125 "/></g></g></g><g fill="#ffffff" fill-opacity="1"><g transform="translate(333.187548, 131.565757)"><g><path d="M 3.714844 0 L 7.070312 0 L 7.070312 -8.945312 L 9.542969 -8.945312 C 10.503906 -8.945312 11.382812 -8.984375 12.179688 -9.144531 L 17.890625 0 L 21.882812 0 L 15.414062 -10.261719 C 16.933594 -11.222656 18.011719 -12.777344 18.847656 -15.054688 L 20.925781 -20.726562 L 17.332031 -20.726562 L 15.773438 -16.292969 C 14.617188 -12.9375 13.019531 -12.058594 9.664062 -12.058594 L 7.070312 -12.058594 L 7.070312 -29.550781 L 3.714844 -29.550781 Z M 3.714844 0 "/></g></g></g></svg>